<svg width="1062" height="560" viewBox="0 0 1062 560" fill="none" xmlns="http://www.w3.org/2000/svg" xmlns:xlink="http://www.w3.org/1999/xlink">
<path d="M277.77,504.328L287.305,542.989L236.215,555.761L258.33,530.394L250.661,509.144L277.77,504.328Z" fill="#FF957D"/>
<path d="M288.471,542.438L234.034,559.93C234.034,559.93 233.087,533.864 258.193,529.199L265.272,536.786L283.889,523.958L288.471,542.438Z" fill="#FFC56B"/>
<path d="M249.993,532.281L257.346,540.938L258.657,539.824L251.304,531.167L249.993,532.281Z" fill="#0D344F"/>
<path d="M246.509,534.492L253.862,543.135L255.173,542.02L247.819,533.377L246.509,534.492Z" fill="#0D344F"/>
<path d="M247.644,515.879L281.475,504.931L217.366,241.703L143.996,293.684L247.644,515.879Z" fill="#1E2046"/>
<path d="M240.662,501.199L277.361,487.124L276.286,484.323L239.588,498.398L240.662,501.199Z" fill="#FFF8ED"/>
<path d="M271.406,488.056C272.896,494.266 274.401,500.485 275.919,506.714C276.152,507.688 277.634,507.276 277.401,506.302C275.901,500.083 274.396,493.864 272.887,487.644C272.654,486.67 271.172,487.082 271.406,488.056Z" fill="#FFF8ED"/>
<path d="M264.957,490.772C266.658,496.937 268.355,503.106 270.047,509.279C270.101,509.476 270.232,509.642 270.409,509.743C270.587,509.843 270.797,509.869 270.993,509.814C271.19,509.76 271.356,509.629 271.457,509.452C271.557,509.274 271.583,509.064 271.528,508.868C269.845,502.694 268.153,496.525 266.452,490.361C266.379,490.185 266.244,490.043 266.073,489.96C265.902,489.877 265.707,489.859 265.524,489.909C265.341,489.96 265.182,490.075 265.078,490.234C264.973,490.393 264.93,490.584 264.957,490.772L264.957,490.772Z" fill="#FFF8ED"/>
<path d="M257.686,493.242L264.449,512.229C264.778,513.162 266.274,512.764 265.944,511.817C263.676,505.488 261.422,499.159 259.181,492.83C258.838,491.897 257.343,492.295 257.686,493.242Z" fill="#FFF8ED"/>
<path d="M250.25,496.713L256.053,514.548C256.369,515.495 257.864,515.097 257.549,514.137L251.746,496.302C251.43,495.355 249.948,495.767 250.25,496.713Z" fill="#FFF8ED"/>
<path d="M242.39,499.333C244.077,503.641 245.874,507.908 247.685,512.174C248.138,513.231 248.591,514.301 249.057,515.357C249.331,515.988 249.757,516.729 250.58,516.592C252.116,516.345 251.142,513.78 249.825,514.877C249.057,515.522 250.155,516.606 250.923,515.975L250.991,515.906L250.237,516.112C250.662,515.673 250.758,515.261 250.511,514.877L250.264,514.274C250.127,513.972 250.004,513.67 249.866,513.354L248.961,511.242C248.385,509.87 247.809,508.498 247.246,507.126C246.094,504.382 244.973,501.638 243.885,498.894C243.528,497.989 242.033,498.387 242.39,499.306L242.39,499.333Z" fill="#FFF8ED"/>
<path d="M259.137,492.113L179.004,271.647L176.184,272.672L256.317,493.137L259.137,492.113Z" fill="#FFF8ED"/>
<path d="M68.225,518.334L52.668,553.77L0.014,554.346L27.411,534.797L40.732,516.729L68.225,518.334Z" fill="#FF957D"/>
<path d="M55.658,554.952L60.337,537.35L33.187,546.954L24.955,536.623C24.955,536.623 5.007,527.363 0,554.458L55.658,554.952Z" fill="#FFC56B"/>
<path d="M22.337,542.868L18.057,534.939L16.543,535.756L20.823,543.685L22.337,542.868Z" fill="#0D344F"/>
<path d="M18.633,543.087L14.352,535.157L12.839,535.974L17.119,543.904L18.633,543.087Z" fill="#0D344F"/>
<path d="M34.75,517.211L146.163,215.733L146.163,206.13L202.891,205.183C202.768,209.381 236.352,245.325 209.23,276.07C174.328,323.936 71.778,519.365 71.778,519.365L34.75,517.211Z" fill="#0096C8"/>
<path d="M183.945,230.262C182.47,230.534 182.47,230.534 182.47,230.534C182.47,230.534 182.47,230.534 182.47,230.535C182.47,230.535 182.47,230.536 182.471,230.538C182.471,230.542 182.473,230.548 182.474,230.555C182.477,230.571 182.481,230.595 182.487,230.627C182.498,230.691 182.515,230.789 182.537,230.917C182.582,231.173 182.645,231.554 182.723,232.045C182.878,233.027 183.088,234.45 183.307,236.205C183.745,239.718 184.215,244.55 184.349,249.829C184.483,255.114 184.279,260.811 183.381,266.067C182.48,271.343 180.901,276.049 178.377,279.457L180.788,281.243C183.71,277.298 185.4,272.066 186.338,266.572C187.28,261.058 187.485,255.151 187.348,249.753C187.211,244.348 186.73,239.415 186.284,235.834C186.061,234.043 185.846,232.587 185.686,231.577C185.606,231.072 185.54,230.678 185.494,230.409C185.471,230.274 185.453,230.171 185.44,230.1C185.434,230.065 185.429,230.038 185.426,230.02C185.424,230.01 185.423,230.003 185.422,229.998C185.421,229.996 185.421,229.994 185.421,229.992C185.421,229.991 185.42,229.991 185.42,229.99C185.42,229.99 185.42,229.989 183.945,230.262ZM178.377,279.457C176.949,281.385 174.024,286.293 170.051,293.283C166.054,300.315 160.945,309.548 155.124,320.206C143.482,341.525 128.982,368.567 114.825,395.146C100.667,421.726 86.85,447.846 76.573,467.32C71.434,477.058 67.18,485.134 64.211,490.776C62.726,493.596 61.563,495.808 60.77,497.316C60.374,498.07 60.071,498.646 59.866,499.036C59.764,499.23 59.687,499.378 59.635,499.476C59.609,499.526 59.59,499.562 59.576,499.588C59.57,499.6 59.565,499.61 59.562,499.616C59.56,499.618 59.559,499.622 59.558,499.622C59.557,499.624 59.557,499.626 60.885,500.322C62.213,501.02 62.213,501.02 62.214,501.018C62.215,501.016 62.216,501.014 62.218,501.01C62.221,501.004 62.226,500.996 62.232,500.982C62.245,500.958 62.265,500.92 62.291,500.872C62.343,500.772 62.42,500.626 62.522,500.43C62.726,500.042 63.03,499.466 63.426,498.712C64.218,497.204 65.381,494.992 66.866,492.172C69.835,486.532 74.088,478.456 79.226,468.72C89.502,449.248 103.317,423.132 117.473,396.557C131.628,369.981 146.122,342.949 157.757,321.644C163.575,310.991 168.675,301.775 172.659,294.766C176.666,287.716 179.492,282.992 180.788,281.243L178.377,279.457Z" fill="#FFF8ED"/>
<path d="M40.676,500.187L84.248,501.82L84.36,498.822L40.789,497.19L40.676,500.187Z" fill="#FFF8ED"/>
<path d="M77.509,499.667L68.249,518.722L70.947,520.034L80.207,500.978L77.509,499.667Z" fill="#FFF8ED"/>
<path d="M67.164,499.667L57.904,518.722L60.602,520.034L69.862,500.978L67.164,499.667Z" fill="#FFF8ED"/>
<path d="M56.819,499.667L47.559,518.722L50.257,520.034L59.518,500.978L56.819,499.667Z" fill="#FFF8ED"/>
<path d="M46.462,499.667L37.215,518.723L39.914,520.033L49.161,500.977L46.462,499.667Z" fill="#FFF8ED"/>
<path d="M93.167,110.015C93.167,110.015 106.886,206.927 129.989,193.893C144.668,185.662 148.043,167.416 149.415,164.768C149.415,160.309 149.415,157.209 149.566,156.536C149.566,156.536 157.55,131.087 165.055,121.717C165.878,120.702 173.423,104.266 173.094,104.184C150.334,98.395 135.847,115.228 133.117,151.405C133.034,152.53 112.744,100.796 112.744,100.796C113.334,98.463 118.08,81.863 114.28,83.88C110.48,85.897 111.043,89.711 109.876,90.575C108.71,91.439 106.748,64.948 103.854,65.757C99.738,66.909 104.361,83.592 101.741,82.083C99.121,80.574 98.064,65.291 95.691,66.018C91.891,67.17 97.941,83.235 96.199,83.221C94.456,83.208 93.112,68.597 90.423,69.2C86.623,70.065 92.673,87.872 90.642,86.706C88.612,85.54 86.897,75.305 85.155,76.183C83.412,77.061 93.167,110.015 93.167,110.015Z" fill="#FF937E"/>
<path d="M106.556,69.266L109.492,75.577C110.942,78.679 113.564,81.078 116.782,82.249C120,83.419 123.55,83.265 126.654,81.819C129.749,80.362 132.139,77.736 133.299,74.518C134.459,71.3 134.294,67.753 132.842,64.656L129.906,58.359C129.189,56.822 128.177,55.441 126.926,54.296C125.676,53.15 124.212,52.262 122.618,51.682C121.024,51.103 119.332,50.843 117.637,50.917C115.943,50.992 114.28,51.4 112.743,52.117L112.743,52.117C109.652,53.575 107.265,56.198 106.105,59.413C104.945,62.627 105.107,66.171 106.556,69.266L106.556,69.266Z" fill="#FF616B"/>
<path d="M58.923,91.191L61.859,97.488C62.576,99.026 63.588,100.406 64.839,101.552C66.089,102.698 67.553,103.586 69.147,104.165C70.741,104.745 72.433,105.005 74.128,104.931C75.822,104.856 77.485,104.448 79.022,103.731L79.022,103.731C80.559,103.015 81.939,102.004 83.085,100.755C84.23,99.506 85.118,98.043 85.698,96.45C86.278,94.857 86.538,93.166 86.463,91.473C86.389,89.779 85.981,88.117 85.264,86.582L82.328,80.271C80.878,77.169 78.256,74.77 75.038,73.599C71.82,72.429 68.27,72.583 65.166,74.029L65.166,74.029C63.628,74.745 62.248,75.758 61.102,77.008C59.956,78.259 59.068,79.723 58.488,81.317C57.909,82.911 57.649,84.603 57.723,86.297C57.798,87.992 58.206,89.655 58.923,91.191L58.923,91.191Z" fill="#FF616B"/>
<path d="M104.17,60.274L90.766,60.274L90.766,99.003L104.17,99.003L104.17,60.274Z" transform="rotate(-230 97.468 79.638)" fill="#FF616B"/>
<path d="M142.336,189.503L146.314,206.706L202.59,206.048L207.227,185.195L142.336,189.503Z" fill="#FF7859"/>
<path d="M137.959,72.038L143.062,56.741C141.087,53.394 145.806,40.58 148.084,37.452C154.491,28.919 156.919,20.029 167.386,17.875C179.432,15.405 196.197,18.986 200.875,30.634C202.795,35.339 224.609,55.04 216.967,67.785Z" fill="#3F468E"/>
<path d="M184.042,52.298C184.087,52.412 184.154,52.515 184.24,52.601C184.326,52.688 184.428,52.756 184.541,52.802C184.653,52.848 184.774,52.871 184.896,52.869C185.018,52.868 185.138,52.842 185.249,52.792C187.211,51.942 191.587,49.555 194.455,54.439C197.322,59.323 193.645,64.467 190.723,65.922C189.886,66.333 187.979,67.376 187.65,68.268C186.703,71.011 193.837,89.848 194.757,95.706C196.773,108.807 201.122,102.991 201.122,102.991C201.122,102.991 161.776,128.659 161.982,112.086C162.201,93.538 163.203,80.148 162.983,80.121C154.683,78.914 148.537,81.644 145.821,59.172C143.31,38.346 157.427,33.819 161.145,32.941C164.273,32.269 174.644,28.551 184.042,52.298Z" fill="#FF937E"/>
<path d="M192.863,56.906C192.863,56.906 186.936,51.693 186.771,62.161Z" fill="#D95A4E"/>
<path d="M164.204,59.61C163.279,59.988 162.486,60.631 161.927,61.46C161.367,62.288 161.067,63.264 161.063,64.264C161.058,65.264 161.351,66.242 161.904,67.075C162.456,67.908 163.243,68.558 164.166,68.944C165.088,69.329 166.104,69.431 167.085,69.239C168.066,69.046 168.968,68.566 169.676,67.86C170.383,67.154 170.866,66.254 171.062,65.274C171.258,64.294 171.158,63.277 170.776,62.354C170.263,61.123 169.285,60.145 168.054,59.631C166.824,59.117 165.44,59.11 164.204,59.61L164.204,59.61Z" fill="#FF7859"/>
<path d="M148.317,69.761C149.171,69.192 149.831,68.376 150.21,67.423C150.589,66.469 150.668,65.422 150.437,64.423C150.206,63.423 149.676,62.517 148.917,61.826C148.159,61.135 147.207,60.692 146.19,60.555C146.19,60.555 146.424,66.537 148.317,69.761Z" fill="#FF7859"/>
<path d="M149.99,66.071L158.578,65.563C158.578,65.563 156.671,69.816 154.161,69.528C151.65,69.24 149.99,66.071 149.99,66.071Z" fill="#FFFFFF"/>
<path d="M152.831,61.049L154.203,64.74L152.186,65.028C152.102,65.04 152.015,65.03 151.936,64.999C151.856,64.968 151.786,64.917 151.732,64.851C151.678,64.784 151.642,64.705 151.628,64.621C151.614,64.536 151.622,64.45 151.651,64.369L152.831,61.049Z" fill="#D95A4E"/>
<path d="M160.28,54.205C161.268,54.795 159.621,51.955 158.318,51.708C157.745,51.56 157.137,51.643 156.625,51.938C156.112,52.232 155.735,52.716 155.574,53.286C157.202,53.032 158.867,53.357 160.28,54.205L160.28,54.205Z" fill="#000000"/>
<path d="M145.642,54.782C144.75,55.495 145.985,52.463 147.233,52.038C147.781,51.804 148.399,51.797 148.952,52.018C149.505,52.239 149.947,52.671 150.183,53.218C148.532,53.188 146.924,53.742 145.642,54.782L145.642,54.782Z" fill="#000000"/>
<path d="M161.898,80.065C165.463,79.716 168.948,78.789 172.215,77.321C170.775,84.606 165.205,85.045 161.898,80.065Z" fill="#1E2046"/>
<path d="M163.312,102.919C160.65,102.041 156.37,104.469 156.987,103.907C148.481,117.118 138.274,136.627 137.479,149.18C136.518,164.559 137.369,186.55 137.369,186.55C137.671,188.471 200.024,189.596 214.786,188.759C223.799,163.653 224.17,141.497 219.56,121.796C219.56,121.796 220.136,119.203 212.385,110.547C210.725,108.694 196.1,93.768 195.222,92.629C195.222,92.602 148.097,127.407 163.312,102.919Z" fill="#3F468E"/>
<path d="M153.421,129.973L154.01,129.973C154.582,129.973 155.13,129.746 155.533,129.342C155.937,128.938 156.164,128.39 156.164,127.819C156.164,127.248 155.937,126.7 155.533,126.296C155.13,125.892 154.582,125.665 154.01,125.665L153.421,125.665C152.849,125.665 152.301,125.892 151.897,126.296C151.494,126.7 151.267,127.248 151.267,127.819C151.267,128.39 151.494,128.938 151.897,129.342C152.301,129.746 152.849,129.973 153.421,129.973L154.01,129.973C154.582,129.973 155.13,129.746 155.533,129.342C155.937,128.938 156.164,128.39 156.164,127.819C156.164,127.248 155.937,126.7 155.533,126.296C155.13,125.892 154.582,125.665 154.01,125.665L153.421,125.665C152.849,125.665 152.301,125.892 151.897,126.296C151.494,126.7 151.267,127.248 151.267,127.819C151.267,128.39 151.494,128.938 151.897,129.342C152.301,129.746 152.849,129.973 153.421,129.973L153.421,129.973Z" fill="#FFF8ED"/>
<path d="M169.651,151.939C170.222,151.939 170.77,151.712 171.174,151.308C171.578,150.904 171.805,150.356 171.805,149.785C171.805,149.214 171.578,148.666 171.174,148.262C170.77,147.858 170.222,147.631 169.651,147.631C169.08,147.631 168.532,147.858 168.128,148.262C167.724,148.666 167.497,149.214 167.497,149.785C167.497,150.356 167.724,150.904 168.128,151.308C168.532,151.712 169.08,151.939 169.651,151.939L169.651,151.939Z" fill="#FFF8ED"/>
<path d="M145.765,156.74C146.308,156.697 146.815,156.45 147.185,156.05C147.555,155.649 147.76,155.124 147.76,154.579C147.76,154.034 147.555,153.509 147.185,153.109C146.815,152.708 146.308,152.462 145.765,152.418C145.222,152.462 144.714,152.708 144.345,153.109C143.975,153.509 143.77,154.034 143.77,154.579C143.77,155.124 143.975,155.649 144.345,156.05C144.714,156.45 145.222,156.697 145.765,156.74L145.765,156.74Z" fill="#FFF8ED"/>
<path d="M175.372,120.425C175.943,120.425 176.491,120.199 176.895,119.795C177.299,119.391 177.526,118.843 177.526,118.272C177.526,117.7 177.299,117.152 176.895,116.749C176.491,116.345 175.943,116.118 175.372,116.118C174.8,116.118 174.253,116.345 173.849,116.749C173.445,117.152 173.218,117.7 173.218,118.272C173.218,118.843 173.445,119.391 173.849,119.795C174.253,120.199 174.8,120.425 175.372,120.425L175.372,120.425Z" fill="#FFF8ED"/>
<path d="M155.066,60.708C155.217,61.86 155.697,62.752 156.15,62.683C156.602,62.615 156.849,61.64 156.698,60.488C156.547,59.336 156.067,58.444 155.615,58.512C155.162,58.581 154.915,59.5 155.066,60.708Z" fill="#000000"/>
<path d="M148.852,60.706C149.003,61.859 149.483,62.75 149.935,62.696C150.388,62.641 150.635,61.653 150.484,60.5C150.333,59.348 149.839,58.456 149.4,58.511C148.961,58.566 148.701,59.526 148.852,60.706Z" fill="#000000"/>
<path d="M179.57,55.315C170.666,50.678 167.689,37.137 167.689,37.137L145.341,47.715C145.341,47.715 139.304,28.796 150.335,26.793C150.755,24.35 151.941,22.103 153.721,20.377C155.502,18.651 157.784,17.535 160.24,17.19C162.855,16.697 165.551,16.841 168.099,17.61C170.647,18.378 172.972,19.75 174.878,21.607C174.878,21.607 188.076,32.583 185.359,49.457C185.359,49.677 185.291,49.896 185.25,50.116C185.25,50.184 186.58,58.964 179.57,55.315Z" fill="#3F468E"/>
<path d="M108.724,163.834L115.666,163.944C117.362,163.973 119.046,163.668 120.623,163.046C122.201,162.424 123.64,161.497 124.859,160.319C126.079,159.14 127.054,157.733 127.729,156.178C128.404,154.623 128.767,152.949 128.795,151.254L128.795,151.254C128.824,149.559 128.519,147.874 127.897,146.297C127.275,144.719 126.348,143.28 125.17,142.061C123.991,140.841 122.584,139.866 121.029,139.191C119.474,138.516 117.801,138.153 116.105,138.125L109.15,138.015C107.455,137.986 105.771,138.291 104.194,138.914C102.618,139.536 101.179,140.463 99.961,141.641C98.743,142.82 97.769,144.227 97.095,145.782C96.422,147.338 96.061,149.01 96.034,150.705L96.034,150.705C96.005,152.401 96.31,154.085 96.932,155.663C97.554,157.24 98.481,158.679 99.66,159.899C100.838,161.118 102.245,162.093 103.8,162.768C105.356,163.444 107.029,163.806 108.724,163.834L108.724,163.834Z" fill="#FF616B"/>
<path d="M107.571,216.254L114.527,216.364C117.948,216.419 121.252,215.113 123.711,212.734C126.17,210.354 127.584,207.096 127.642,203.674L127.642,203.674C127.671,201.979 127.366,200.294 126.744,198.717C126.122,197.139 125.195,195.7 124.017,194.481C122.838,193.261 121.431,192.286 119.876,191.611C118.32,190.936 116.647,190.573 114.952,190.545L108.01,190.435C106.315,190.406 104.63,190.711 103.053,191.333C101.475,191.955 100.036,192.882 98.817,194.06C97.597,195.239 96.622,196.646 95.947,198.201C95.272,199.757 94.909,201.43 94.881,203.125L94.881,203.125C94.852,204.821 95.157,206.505 95.779,208.082C96.401,209.66 97.328,211.099 98.506,212.319C99.685,213.538 101.092,214.513 102.647,215.188C104.202,215.864 105.876,216.226 107.571,216.254L107.571,216.254Z" fill="#FF616B"/>
<path d="M121.523,156.522L108.117,156.522L108.117,195.259L121.523,195.259L121.523,156.522Z" transform="rotate(-357.708 114.82 175.891)" fill="#FF616B"/>
<path d="M134.021,190.737C134.021,190.737 174.685,213.154 201.094,203.523C207.323,201.246 210.958,197.281 212.069,190.737C215.581,169.802 221.673,129.001 219.93,127.3C216.446,99.862 194.728,107.49 192.163,114.692C183.616,138.646 186.319,164.259 184.796,172.655L131.291,171.105C129.412,169.953 116.2,161.31 116.927,165.178C117.655,169.047 121.125,169.582 121.578,170.844C122.031,172.107 104.841,168.938 104.772,171.681C104.663,175.564 112.51,174.425 112.043,175.084C111.577,175.742 104.567,172.34 104.539,174.631C104.539,178.267 112.153,178.952 112.153,179.638C112.153,179.94 105.541,175.523 105.294,178.047C105.019,181.6 113.525,183.535 111.769,182.355C111.44,182.135 104.498,178.239 105.87,181.792C106.515,183.466 134.021,190.737 134.021,190.737Z" fill="#FF937E"/>
<path d="M111.771,182.221C112.039,182.288 112.31,182.126 112.378,181.858C112.445,181.59 112.282,181.318 112.014,181.251L111.771,182.221ZM106.335,179.824C106.067,179.757 105.795,179.919 105.728,180.187C105.661,180.455 105.823,180.727 106.091,180.794L106.335,179.824ZM112.014,181.251L106.335,179.824L106.091,180.794L111.771,182.221L112.014,181.251Z" fill="#FF7859"/>
<path d="M111.935,179.726C112.203,179.793 112.474,179.63 112.542,179.363C112.609,179.095 112.446,178.823 112.178,178.756L111.935,179.726ZM106.499,177.329C106.231,177.262 105.959,177.424 105.892,177.692C105.825,177.96 105.987,178.232 106.255,178.299L106.499,177.329ZM112.178,178.756L106.499,177.329L106.255,178.299L111.935,179.726L112.178,178.756Z" fill="#FF7859"/>
<path d="M111.716,175.802C111.984,175.869 112.256,175.707 112.323,175.439C112.39,175.171 112.228,174.899 111.96,174.832L111.716,175.802ZM106.28,173.405C106.012,173.338 105.741,173.5 105.673,173.768C105.606,174.036 105.769,174.308 106.036,174.375L106.28,173.405ZM111.96,174.832L106.28,173.405L106.036,174.375L111.716,175.802L111.96,174.832Z" fill="#FF7859"/>
<path d="M1047.542,509.705L1053.236,527.362C1053.236,527.362 1048.091,549.792 1044.373,542.247C1041.872,537.529 1037.75,533.875 1032.767,531.957L1021.709,510.569L1047.542,509.705Z" fill="#753231"/>
<path d="M1022.217,511.546L1044.689,511.299L1042.48,535.554L1031.34,530.437L1022.217,511.546Z" fill="#A94846"/>
<path d="M1030.887,530.434L1004.258,547.528C1003.065,548.296 1003.696,549.915 1005.191,549.929C1017.429,549.929 1050.464,549.819 1059.052,549.764C1059.276,549.788 1059.502,549.757 1059.711,549.674C1059.92,549.59 1060.106,549.456 1060.251,549.284C1060.396,549.112 1060.496,548.907 1060.543,548.686C1060.59,548.466 1060.582,548.238 1060.52,548.022C1058.723,543.316 1053.812,530.187 1053.249,526.606C1053.153,525.961 1045.635,536.744 1042.041,535.551C1038.94,534.536 1031.587,529.803 1030.887,530.434Z" fill="#5BC29C"/>
<path d="M1030.585,530.676C1029.846,530.191 1028.854,530.397 1028.369,531.136C1027.885,531.874 1028.09,532.866 1028.829,533.351L1030.585,530.676ZM1034.179,534.95L1033.301,536.287L1033.306,536.29L1034.179,534.95ZM1030.297,540.904L1029.418,542.241L1029.426,542.246L1030.297,540.904ZM1024.646,535.273C1023.907,534.787 1022.915,534.992 1022.43,535.731C1021.944,536.469 1022.149,537.461 1022.888,537.946L1024.646,535.273ZM1028.829,533.351L1033.301,536.287L1035.057,533.612L1030.585,530.676L1028.829,533.351ZM1033.306,536.29C1033.568,536.46 1033.784,536.691 1033.938,536.962L1036.72,535.38C1036.314,534.665 1035.742,534.058 1035.053,533.609L1033.306,536.29ZM1033.938,536.962C1034.093,537.233 1034.179,537.537 1034.192,537.848L1037.389,537.72C1037.356,536.898 1037.127,536.096 1036.72,535.38L1033.938,536.962ZM1034.192,537.848C1034.205,538.16 1034.142,538.47 1034.011,538.753L1036.911,540.105C1037.258,539.36 1037.423,538.542 1037.389,537.72L1034.192,537.848ZM1034.011,538.753C1033.879,539.035 1033.681,539.282 1033.434,539.473L1035.391,542.005C1036.042,541.502 1036.563,540.851 1036.911,540.105L1034.011,538.753ZM1033.437,539.471C1033.115,539.719 1032.723,539.86 1032.317,539.877L1032.445,543.074C1033.513,543.031 1034.541,542.659 1035.388,542.007L1033.437,539.471ZM1032.317,539.877C1031.911,539.893 1031.509,539.783 1031.168,539.561L1029.426,542.246C1030.322,542.827 1031.377,543.117 1032.445,543.074L1032.317,539.877ZM1031.176,539.567L1024.646,535.273L1022.888,537.946L1029.418,542.24L1031.176,539.567Z" fill="#FFFFFF"/>
<path d="M1006.604,549.547L1057.79,549.547C1058.707,549.547 1059.586,549.911 1060.235,550.559C1060.883,551.208 1061.247,552.087 1061.247,553.004L1061.247,557.531C1061.247,557.986 1061.067,558.422 1060.745,558.744C1060.423,559.065 1059.987,559.246 1059.532,559.246L1004.862,559.246C1004.407,559.246 1003.971,559.065 1003.649,558.744C1003.327,558.422 1003.147,557.986 1003.147,557.531L1003.147,553.004C1003.147,552.087 1003.511,551.208 1004.159,550.559C1004.808,549.911 1005.687,549.547 1006.604,549.547L1006.604,549.547Z" transform="rotate(360 1032.197 554.396)" fill="#5BC29C"/>
<path d="M947.392,509.705L947.954,527.362C947.954,527.362 942.728,549.792 939.01,542.247C936.509,537.529 932.387,533.875 927.403,531.957L921.696,509.746L947.392,509.705Z" fill="#753231"/>
<path d="M922.465,511.545L938.365,511.545L936.664,535.553L925.524,530.436L922.465,511.545Z" fill="#A94846"/>
<path d="M925.524,530.434L898.896,547.528C897.702,548.296 898.333,549.915 899.815,549.929C912.052,549.929 945.019,549.819 953.69,549.764C953.912,549.786 954.137,549.753 954.344,549.668C954.551,549.584 954.735,549.45 954.878,549.278C955.022,549.106 955.121,548.902 955.167,548.683C955.213,548.464 955.206,548.237 955.144,548.022C953.347,543.316 948.435,530.187 947.887,526.606C947.791,525.961 940.272,536.744 936.664,535.551C933.564,534.536 926.224,529.803 925.524,530.434Z" fill="#5BC29C"/>
<path d="M901.804,549.547L952.99,549.547C953.907,549.547 954.786,549.911 955.435,550.559C956.083,551.208 956.447,552.087 956.447,553.004L956.447,557.531C956.447,557.986 956.267,558.422 955.945,558.744C955.624,559.065 955.187,559.246 954.732,559.246L900.062,559.246C899.607,559.246 899.171,559.065 898.849,558.744C898.528,558.422 898.347,557.986 898.347,557.531L898.347,553.004C898.347,552.087 898.711,551.208 899.36,550.559C900.008,549.911 900.887,549.547 901.804,549.547L901.804,549.547Z" transform="rotate(360 927.397 554.396)" fill="#5BC29C"/>
<path d="M925.223,530.676C924.484,530.191 923.492,530.397 923.007,531.136C922.522,531.874 922.728,532.866 923.467,533.351L925.223,530.676ZM928.817,534.95L927.939,536.287L927.941,536.288L928.817,534.95ZM929.037,540.739L928.061,539.471L928.058,539.473L929.037,540.739ZM924.921,540.904L924.042,542.241L924.046,542.243L924.921,540.904ZM919.27,535.273C918.531,534.787 917.539,534.992 917.054,535.731C916.568,536.469 916.773,537.461 917.512,537.946L919.27,535.273ZM923.467,533.351L927.939,536.287L929.695,533.612L925.223,530.676L923.467,533.351ZM927.941,536.288C928.201,536.459 928.418,536.69 928.571,536.961L931.357,535.386C930.952,534.67 930.382,534.062 929.694,533.611L927.941,536.288ZM928.571,536.961C928.725,537.233 928.811,537.537 928.823,537.848L932.02,537.727C931.989,536.905 931.762,536.102 931.357,535.386L928.571,536.961ZM928.823,537.848C928.834,538.16 928.771,538.47 928.639,538.752L931.536,540.111C931.885,539.366 932.051,538.549 932.02,537.727L928.823,537.848ZM928.639,538.752C928.507,539.034 928.309,539.281 928.061,539.471L930.012,542.007C930.664,541.506 931.187,540.856 931.536,540.111L928.639,538.752ZM928.058,539.473C927.737,539.722 927.347,539.864 926.941,539.88L927.069,543.077C928.139,543.034 929.169,542.66 930.015,542.005L928.058,539.473ZM926.941,539.88C926.536,539.896 926.135,539.786 925.795,539.564L924.046,542.243C924.943,542.829 925.999,543.12 927.069,543.077L926.941,539.88ZM925.8,539.567L919.27,535.273L917.512,537.946L924.042,542.24L925.8,539.567Z" fill="#FFFFFF"/>
<path d="M962.141,269.925C962.141,269.925 940.383,215.913 928.09,195.581C922.603,186.595 898.306,171.065 898.306,187.35C898.306,187.35 888.017,282.341 888.703,322.936C889.348,363.325 912.368,508.336 912.368,508.336C912.368,508.336 942.646,510.16 946.803,504.618L962.141,269.925Z" fill="#FF937E"/>
<g opacity="0.5" style="mix-blend-mode:multiply">
<path d="M962.141,269.924C962.141,269.924 940.382,215.912 928.09,195.58C922.602,186.594 898.896,165.755 898.896,181.998C898.896,181.998 888.017,282.299 888.661,322.893C889.306,363.282 912.327,508.292 912.327,508.292C912.327,508.292 942.605,510.118 946.762,504.576L962.141,269.924Z" fill="#FF937E"/>
</g>
<path d="M940.533,227.203C939.72,227.034 939.72,227.034 939.72,227.035C939.72,227.036 939.719,227.037 939.719,227.038C939.719,227.041 939.718,227.045 939.717,227.05C939.715,227.06 939.711,227.075 939.707,227.096C939.699,227.137 939.686,227.198 939.669,227.279C939.636,227.44 939.586,227.68 939.522,227.993C939.392,228.619 939.203,229.54 938.963,230.717C938.482,233.072 937.797,236.455 936.978,240.568C935.341,248.794 933.17,259.941 931.037,271.622C928.904,283.302 926.806,295.524 925.317,305.897C923.832,316.235 922.936,324.833 923.242,329.208L924.898,329.092C924.607,324.927 925.47,316.512 926.96,306.133C928.445,295.79 930.538,283.592 932.67,271.921C934.801,260.25 936.97,249.113 938.606,240.892C939.424,236.782 940.109,233.402 940.589,231.049C940.83,229.873 941.019,228.953 941.147,228.328C941.212,228.015 941.261,227.776 941.295,227.615C941.311,227.535 941.324,227.474 941.332,227.433C941.337,227.413 941.34,227.398 941.342,227.387C941.343,227.382 941.344,227.379 941.344,227.376C941.345,227.375 941.345,227.374 941.345,227.373C941.345,227.372 941.345,227.372 940.533,227.203ZM923.242,329.208C923.838,337.741 926.403,381.874 928.819,423.885C930.028,444.887 931.198,465.357 932.067,480.575C932.502,488.185 932.861,494.481 933.111,498.875C933.236,501.073 933.334,502.795 933.401,503.967C933.434,504.553 933.46,505.001 933.477,505.303C933.485,505.455 933.492,505.569 933.496,505.645C933.498,505.685 933.5,505.713 933.501,505.733C933.502,505.743 933.502,505.749 933.502,505.755C933.503,505.757 933.503,505.759 933.503,505.759C933.503,505.761 933.503,505.761 934.331,505.715C935.16,505.667 935.16,505.667 935.16,505.665C935.16,505.665 935.16,505.663 935.16,505.661C935.159,505.655 935.159,505.647 935.158,505.639C935.157,505.619 935.156,505.591 935.154,505.551C935.149,505.475 935.143,505.361 935.134,505.209C935.117,504.907 935.091,504.459 935.058,503.873C934.991,502.699 934.893,500.979 934.768,498.781C934.518,494.387 934.159,488.091 933.725,480.481C932.856,465.263 931.685,444.793 930.477,423.79C928.061,381.788 925.495,337.639 924.898,329.092L923.242,329.208Z" fill="#FFFFFF"/>
<path d="M908.499,511.406L950.178,511.406L950.274,497.166L908.609,497.166L908.499,511.406Z" fill="#F4B1A8"/>
<path d="M894.766,181.436C899.334,162.23 943.798,165.851 958.518,179.077C968.684,188.2 994.641,229.041 1000.293,251.157C1006.851,276.798 1010.129,304.881 1014.67,332.25C1015.672,338.3 1020.227,361.65 1022.902,373.738C1031.737,413.522 1044.455,456.82 1047.596,503.464C1039.516,505.412 1018.155,510.804 1015.699,506.304C960.453,404.934 941.726,320.356 929.941,293.055C928.59,289.92 927.525,286.669 926.759,283.342L894.766,181.436Z" fill="#FF937E"/>
<path d="M938.996,181.613C938.331,182.11 938.331,182.11 938.332,182.111C938.332,182.111 938.332,182.111 938.333,182.112C938.334,182.113 938.335,182.115 938.337,182.118C938.341,182.123 938.346,182.131 938.354,182.141C938.37,182.162 938.393,182.193 938.424,182.235C938.485,182.318 938.577,182.442 938.698,182.606C938.939,182.934 939.294,183.421 939.75,184.054C940.661,185.319 941.973,187.167 943.575,189.495C946.779,194.151 951.14,200.727 955.767,208.403C965.031,223.773 975.317,243.48 979.552,260.995L981.166,260.605C976.868,242.834 966.472,222.948 957.189,207.546C952.541,199.836 948.161,193.231 944.943,188.554C943.334,186.215 942.014,184.357 941.097,183.083C940.638,182.447 940.28,181.956 940.036,181.624C939.914,181.457 939.82,181.331 939.757,181.246C939.726,181.203 939.702,181.171 939.686,181.15C939.678,181.139 939.671,181.13 939.667,181.125C939.665,181.122 939.664,181.12 939.663,181.119C939.662,181.118 939.662,181.117 939.661,181.117C939.661,181.116 939.661,181.116 938.996,181.613ZM979.552,260.995C983.816,278.626 997.337,340.348 1009.795,397.679C1016.024,426.343 1021.985,453.901 1026.39,474.295C1028.592,484.493 1030.405,492.899 1031.668,498.755C1032.299,501.683 1032.793,503.973 1033.128,505.533C1033.296,506.311 1033.425,506.909 1033.511,507.309C1033.554,507.511 1033.587,507.663 1033.609,507.765C1033.62,507.815 1033.628,507.853 1033.634,507.879C1033.637,507.893 1033.639,507.901 1033.64,507.909C1033.641,507.911 1033.641,507.915 1033.642,507.915C1033.642,507.917 1033.642,507.919 1034.454,507.743C1035.265,507.569 1035.265,507.567 1035.264,507.567C1035.264,507.565 1035.264,507.563 1035.263,507.559C1035.261,507.553 1035.259,507.543 1035.257,507.531C1035.251,507.505 1035.243,507.467 1035.232,507.415C1035.21,507.313 1035.177,507.161 1035.134,506.961C1035.047,506.559 1034.919,505.963 1034.751,505.183C1034.415,503.625 1033.922,501.333 1033.291,498.405C1032.028,492.549 1030.215,484.143 1028.013,473.945C1023.608,453.551 1017.646,425.991 1011.417,397.327C998.962,340.009 985.435,278.26 981.166,260.605L979.552,260.995Z" fill="#FFFFFF"/>
<path d="M923.975,195.305C923.16,195.463 923.16,195.464 923.16,195.464C923.16,195.465 923.16,195.466 923.16,195.466C923.161,195.468 923.161,195.47 923.162,195.473C923.163,195.479 923.164,195.486 923.167,195.496C923.171,195.517 923.177,195.546 923.184,195.583C923.2,195.659 923.224,195.768 923.256,195.91C923.32,196.193 923.418,196.603 923.554,197.119C923.826,198.151 924.251,199.608 924.868,201.319C926.1,204.736 928.104,209.194 931.191,213.307C934.279,217.422 938.472,221.22 944.081,223.258C949.702,225.3 956.661,225.545 965.216,222.693L964.691,221.119C956.434,223.871 949.864,223.593 944.648,221.698C939.422,219.799 935.472,216.246 932.518,212.31C929.563,208.372 927.627,204.078 926.43,200.756C925.832,199.098 925.42,197.688 925.159,196.696C925.028,196.2 924.935,195.809 924.875,195.543C924.845,195.411 924.823,195.309 924.809,195.242C924.802,195.209 924.797,195.184 924.794,195.168C924.792,195.16 924.791,195.154 924.79,195.15C924.79,195.148 924.79,195.147 924.789,195.147C924.789,195.146 924.789,195.146 924.789,195.146C924.789,195.146 924.789,195.146 923.975,195.305Z" fill="#FFFFFF"/>
<path d="M1013.875,511.406L1055.54,511.406L1049.942,497.166L1008.277,497.166L1013.875,511.406Z" fill="#F4B1A8"/>
<path d="M831.755,98.299C831.755,98.299 862.266,186.225 883.201,174.413C896.509,166.909 899.582,150.405 900.817,148.004C900.817,143.957 900.817,141.144 900.954,140.513C900.954,140.513 908.184,117.438 914.989,108.959C917.694,103.788 920.13,98.481 922.287,93.059C908.417,84.388 897.167,106.901 876.904,137.056C876.328,137.906 849.466,89.917 849.466,89.917C850.001,87.804 854.295,72.755 850.838,74.593C847.381,76.431 847.902,79.861 846.846,80.657C845.789,81.452 844.006,57.417 841.358,58.157C837.654,59.2 841.811,74.291 839.437,72.96C837.064,71.63 836.117,57.732 833.95,58.391C830.506,59.433 835.994,74.003 834.416,73.989C832.839,73.976 831.673,60.723 829.176,61.272C825.732,62.054 831.22,78.215 829.381,77.145C827.543,76.075 825.979,66.814 824.388,67.541C822.796,68.268 831.755,98.299 831.755,98.299Z" fill="#A94846"/>
<path d="M903.889,132.047C906.633,124.57 910.886,114.212 914.988,109.012C917.693,103.842 920.129,98.534 922.286,93.112C912.834,87.199 904.589,95.856 893.888,111.399C897.084,118.328 900.459,125.187 903.889,132.047Z" fill="#8064A2"/>
<path d="M902.998,101.783L907.114,47.14C905.262,43.984 906.332,29.867 908.486,26.931C914.522,18.892 912.807,13.528 922.644,11.511C933.989,9.193 953.539,12.581 959.397,26.684C965.255,40.788 965.255,58.115 975.86,106.571Z" fill="#031F46"/>
<path d="M942.357,40.883C942.399,40.99 942.462,41.087 942.543,41.169C942.624,41.251 942.72,41.316 942.827,41.36C942.933,41.403 943.047,41.425 943.162,41.423C943.277,41.421 943.391,41.396 943.496,41.349C945.348,40.54 949.463,38.304 952.152,42.899C954.841,47.495 951.398,52.324 948.654,53.696C947.858,54.08 946.047,55.068 945.759,55.891C944.854,58.471 950.067,83.727 950.931,89.311C952.825,101.658 920.749,115.268 920.749,115.268C920.749,115.268 912.628,108.751 919.556,94.785C925.839,82.109 922.3,67.347 922.149,67.237C918.911,65.947 908.91,68.609 906.358,47.399C903.998,27.822 917.333,23.569 920.777,22.705C923.768,22.046 933.522,18.548 942.357,40.883Z" fill="#A94846"/>
<path d="M950.657,45.217C950.657,45.217 945.087,40.32 944.937,50.156Z" fill="#753231"/>
<path d="M923.699,47.769C922.83,48.122 922.084,48.725 921.557,49.501C921.03,50.278 920.745,51.193 920.738,52.132C920.731,53.07 921.003,53.99 921.518,54.774C922.034,55.558 922.77,56.172 923.634,56.538C924.498,56.904 925.451,57.006 926.373,56.83C927.295,56.654 928.144,56.209 928.813,55.551C929.482,54.893 929.942,54.052 930.133,53.133C930.324,52.214 930.238,51.259 929.886,50.389C929.654,49.809 929.309,49.281 928.872,48.835C928.435,48.389 927.914,48.034 927.338,47.791C926.763,47.547 926.146,47.42 925.521,47.416C924.896,47.412 924.277,47.532 923.699,47.769Z" fill="#BD504E"/>
<path d="M909.116,58.239C909.976,57.586 910.583,56.654 910.834,55.604C911.084,54.553 910.961,53.448 910.488,52.477C910.172,51.698 909.655,51.017 908.989,50.504C908.324,49.991 907.534,49.663 906.701,49.555C906.701,49.555 907.332,55.221 909.116,58.239Z" fill="#BD504E"/>
<path d="M910.352,53.847L918.432,53.367C918.432,53.367 916.635,57.359 914.316,57.085C911.998,56.811 910.352,53.847 910.352,53.847Z" fill="#FFFFFF"/>
<path d="M912.998,49.113L914.233,52.584L912.34,52.859C912.26,52.872 912.179,52.864 912.104,52.835C912.028,52.806 911.962,52.758 911.912,52.695C911.861,52.632 911.829,52.557 911.817,52.477C911.806,52.397 911.816,52.316 911.846,52.241L912.998,49.113Z" fill="#753231"/>
<path d="M919.954,44.011C920.873,44.56 919.336,41.898 918.102,41.665C917.562,41.522 916.987,41.597 916.501,41.874C916.016,42.151 915.66,42.608 915.509,43.147C917.046,42.903 918.62,43.209 919.954,44.011L919.954,44.011Z" fill="#000000"/>
<path d="M906.235,44.547C905.384,45.22 906.551,42.366 907.73,41.968C908.243,41.764 908.814,41.766 909.325,41.973C909.837,42.18 910.248,42.576 910.474,43.079C908.933,43.061 907.434,43.58 906.235,44.547L906.235,44.547Z" fill="#000000"/>
<path d="M921.532,66.991C924.887,66.681 928.168,65.823 931.245,64.453C929.887,71.272 924.646,71.683 921.532,66.991Z" fill="#031F46"/>
<path d="M920.791,92.26C920.571,91.588 916.757,91.533 917.306,91.025C909.596,103.002 899.211,124.225 898.497,135.598C897.619,149.523 889.964,186.277 889.964,186.277C890.225,188.019 948.009,182.833 961.385,182.065C969.548,159.305 977.08,128.561 972.896,110.726C972.896,110.726 973.431,108.393 966.407,100.532C964.897,98.859 951.631,85.332 950.835,84.289C950.835,84.303 908.896,122.661 920.791,92.26Z" fill="#8064A2"/>
<g opacity="0.5" style="mix-blend-mode:multiply">
<g opacity="0.5" style="mix-blend-mode:multiply">
<path d="M972.265,108.545C969.192,114.979 964.295,121.208 960.892,125.927C953.674,135.866 945.514,145.087 936.527,153.461C924.18,165.068 910.968,175.618 898.004,186.511C914.467,185.866 951.083,182.642 961.386,182.052C969.549,159.292 977.081,128.547 972.897,110.713C972.897,110.74 973.034,110.095 972.265,108.545Z" fill="#5BC29C"/>
</g>
</g>
<path d="M915.111,48.728C915.248,49.826 915.701,50.663 916.126,50.608C916.552,50.553 916.785,49.62 916.648,48.536C916.51,47.453 916.044,46.616 915.619,46.671C915.193,46.725 914.974,47.645 915.111,48.728Z" fill="#000000"/>
<path d="M909.267,48.769C909.404,49.853 909.857,50.69 910.282,50.635C910.707,50.58 910.94,49.647 910.803,48.564C910.666,47.48 910.2,46.643 909.774,46.698C909.349,46.753 909.116,47.686 909.267,48.769Z" fill="#000000"/>
<path d="M938.16,46.18L908.595,30.814L905.961,39.046C905.961,39.046 898.347,26.987 908.705,25.107C908.705,25.107 913.712,13.405 922.163,11.8C930.614,10.195 952.784,22.775 952.784,22.775C952.784,22.775 946.13,24.819 943.592,40.61C943.592,40.816 943.592,41.021 943.483,41.227C943.496,41.351 944.758,49.61 938.16,46.18Z" fill="#031F46"/>
<path d="M922.328,86.965C918.925,92.452 917.746,99.161 913.602,104.182C909.532,108.874 903.952,111.998 897.825,113.017C884.285,115.583 871.114,108.723 861.237,99.97C855.336,94.489 849.834,88.593 844.774,82.328C844.321,81.779 843.539,82.575 843.992,83.11C853.321,94.181 863.199,105.677 876.808,111.426C888.373,116.282 902.805,116.049 912.368,107.036C918.047,101.699 919.227,93.934 923.22,87.527C923.59,86.923 922.63,86.361 922.259,86.965L922.328,86.965Z" fill="#031F46"/>
<path d="M870.223,54.698L828.311,54.698L828.311,83.289L870.223,83.289L870.223,54.698Z" transform="rotate(360 849.267 68.994)" fill="#031F46"/>
<path d="M863.089,54.534L821.177,54.534L821.177,83.344L863.089,83.344L863.089,54.534Z" transform="rotate(360 842.133 68.939)" fill="#FF937E"/>
<path d="M826.582,69.103C826.582,67.339 827.105,65.615 828.085,64.149C829.065,62.682 830.457,61.539 832.087,60.864C833.716,60.189 835.509,60.013 837.239,60.357C838.969,60.701 840.558,61.55 841.805,62.797C843.052,64.045 843.901,65.633 844.246,67.363C844.59,69.093 844.413,70.886 843.738,72.516C843.063,74.145 841.92,75.538 840.454,76.518C838.987,77.497 837.263,78.02 835.499,78.02C834.328,78.02 833.169,77.79 832.087,77.342C831.005,76.893 830.022,76.237 829.194,75.409C828.366,74.58 827.709,73.597 827.261,72.516C826.813,71.434 826.582,70.274 826.582,69.103L826.582,69.103Z" fill="#031F46"/>
<path d="M832.372,78.02C837.297,78.02 841.29,74.028 841.29,69.103C841.29,64.178 837.297,60.186 832.372,60.186C827.448,60.186 823.455,64.178 823.455,69.103C823.455,74.028 827.448,78.02 832.372,78.02Z" fill="#5BC29C"/>
<path d="M826.966,69.103C826.966,68.03 827.284,66.982 827.88,66.091C828.476,65.199 829.323,64.505 830.314,64.095C831.305,63.685 832.396,63.579 833.447,63.789C834.499,63.999 835.464,64.516 836.222,65.276C836.979,66.035 837.494,67.002 837.702,68.054C837.909,69.106 837.8,70.196 837.388,71.186C836.975,72.176 836.279,73.021 835.386,73.615C834.493,74.209 833.444,74.524 832.371,74.522C831.66,74.523 830.955,74.384 830.297,74.113C829.64,73.841 829.043,73.441 828.54,72.938C828.038,72.434 827.64,71.836 827.37,71.178C827.1,70.519 826.962,69.814 826.966,69.103Z" fill="#031F46"/>
<path d="M864.008,52.723L858.493,52.723L858.493,54.809L864.008,54.809L864.008,52.723Z" transform="rotate(360 861.25 53.766)" fill="#18333D"/>
<path d="M842.181,51.722L829.888,51.722L829.888,54.645L842.181,54.645L842.181,51.722Z" transform="rotate(360 836.034 53.183)" fill="#031F46"/>
<path d="M863.35,98.46C863.35,98.46 867.959,149.92 893.271,168.29C899.239,172.625 905.165,173.503 911.874,170.444C933.372,160.662 975.915,143.939 976.354,141.346C992.542,124.663 978.028,97.774 969.782,99.887C942.344,106.897 928.323,120.109 911.559,134.033L879.703,83.698C879.593,81.256 879.346,63.668 876.232,66.755C873.118,69.842 874.778,73.381 873.9,74.575C873.022,75.768 863.336,50.498 860.757,52.131C857.107,54.449 866.464,69.334 863.501,68.676C860.537,68.017 855.008,53.379 852.896,54.778C849.521,57.015 860.139,70.912 858.383,71.42C856.627,71.927 851.071,58.057 848.629,59.429C845.186,61.377 856.312,76.989 853.979,76.441C851.647,75.892 846.983,66.426 845.529,67.784C844.074,69.142 863.35,98.46 863.35,98.46Z" fill="#A94846"/>
<path d="M969.823,99.888C954.623,103.77 940.616,106.747 930.889,113.538C935.69,126.475 945.76,150.717 949.094,164.093C965.337,157.234 976.121,142.842 976.395,141.347C992.583,124.665 978.069,97.748 969.823,99.888Z" fill="#8064A2"/>
<path d="M867.52,61.254C891.144,63.517 899.376,89.831 910.269,106.815C912.991,111.234 916.29,115.271 920.078,118.819C923.631,122.002 927.87,124.183 932.754,123.141C937.858,122.057 942.81,118.737 947.036,115.801C951.236,112.961 954.943,109.453 958.011,105.416C961.431,100.886 963.504,95.485 963.993,89.831C964.144,87.498 964.185,84.549 962.538,82.683C961.962,81.977 961.147,81.506 960.247,81.359C959.347,81.213 958.425,81.401 957.654,81.887C957.078,82.299 957.654,83.259 958.217,82.848C961.455,80.584 962.881,85.592 962.923,87.828C962.966,90.349 962.619,92.862 961.894,95.277C960.336,100.237 957.628,104.759 953.991,108.475C950.532,111.984 946.619,115.015 942.358,117.488C937.872,120.232 932.439,123.566 927.02,121.865C922.41,120.411 918.788,116.295 915.797,112.646C912.7,108.699 909.947,104.495 907.566,100.079C902.984,91.957 898.964,83.465 893.243,76.043C886.864,67.812 878.235,61.172 867.561,60.143C866.848,60.143 866.861,61.185 867.561,61.254L867.52,61.254Z" fill="#031F46"/>
<path d="M955.212,130.522C954.525,130.821 953.767,130.921 953.025,130.812C952.283,130.703 951.587,130.389 951.014,129.904C950.335,129.418 949.734,128.83 949.231,128.162C948.66,127.483 948.235,126.694 947.983,125.844C947.653,124.335 949.354,123.868 950.479,124.005C951.191,124.14 951.869,124.414 952.474,124.812C953.079,125.21 953.6,125.724 954.005,126.324C954.522,127.026 954.892,127.826 955.092,128.674C955.293,129.523 955.319,130.403 955.171,131.263C955.034,131.962 956.104,132.25 956.241,131.551C956.595,129.65 956.207,127.686 955.158,126.063C954.686,125.28 954.06,124.6 953.316,124.067C952.573,123.534 951.729,123.158 950.836,122.963C949.3,122.716 947.201,123.196 946.871,124.993C946.793,126.121 947.14,127.237 947.845,128.121C948.382,128.974 949.049,129.737 949.821,130.385C950.583,131.153 951.562,131.669 952.626,131.865C953.69,132.061 954.789,131.928 955.775,131.482C956.392,131.153 955.775,130.193 955.212,130.536L955.212,130.522Z" fill="#FFF8ED"/>
<path d="M969.44,128.437C968.755,126.489 968.232,124.489 967.876,122.455C967.642,121.084 967.299,119.081 968.287,117.846C969.275,116.611 971.456,117.311 972.225,118.628C972.621,119.392 972.837,120.237 972.856,121.098C972.875,121.959 972.696,122.813 972.334,123.594C971.496,125.306 970.399,126.88 969.083,128.259C968.616,128.794 969.398,129.631 969.865,129.041C972.403,126.16 975.353,122.291 973.308,118.299C972.914,117.438 972.215,116.755 971.345,116.38C970.476,116.005 969.499,115.965 968.603,116.268C966.847,117.009 966.463,119.012 966.559,120.768C966.791,123.496 967.4,126.178 968.369,128.739C968.603,129.411 969.741,129.123 969.44,128.437L969.44,128.437Z" fill="#FFF8ED"/>
<path d="M908.979,180.529C907.721,178.885 906.286,177.386 904.699,176.057C904.372,175.727 903.971,175.48 903.53,175.337C903.088,175.194 902.619,175.159 902.161,175.234C901.8,175.357 901.475,175.568 901.216,175.848C900.957,176.129 900.773,176.469 900.679,176.839C899.76,179.679 902.38,182.327 904.959,182.985C905.694,183.188 906.464,183.23 907.217,183.109C907.969,182.989 908.687,182.708 909.322,182.285C909.898,181.874 909.322,180.914 908.76,181.325C907.852,181.886 906.781,182.125 905.721,182.003C904.66,181.882 903.672,181.406 902.915,180.653C902.522,180.31 902.205,179.888 901.983,179.416C901.761,178.944 901.639,178.431 901.626,177.909C901.617,177.65 901.666,177.392 901.771,177.154C901.875,176.917 902.032,176.706 902.229,176.537C902.874,176.112 903.601,176.743 904.122,177.141C905.632,178.433 907.011,179.871 908.238,181.435C908.342,181.539 908.483,181.597 908.629,181.597C908.776,181.597 908.917,181.539 909.02,181.435C909.124,181.331 909.182,181.191 909.182,181.044C909.182,180.897 909.124,180.757 909.02,180.653L908.979,180.529Z" fill="#FFF8ED"/>
<path d="M928.46,171.324C927.749,170.315 927.28,169.156 927.088,167.936C926.981,167.343 926.949,166.739 926.992,166.139C926.982,165.546 927.109,164.959 927.363,164.424C927.843,163.546 929.023,163.834 929.599,164.424C929.911,164.915 930.101,165.474 930.153,166.054C930.206,166.634 930.119,167.218 929.901,167.757C929.494,169.2 928.814,170.55 927.898,171.736C927.861,171.798 927.836,171.867 927.826,171.938C927.815,172.01 927.819,172.083 927.837,172.153C927.855,172.223 927.886,172.289 927.93,172.347C927.973,172.405 928.028,172.454 928.09,172.49C928.218,172.563 928.369,172.583 928.512,172.547C928.655,172.512 928.779,172.423 928.858,172.298C929.836,171.012 930.558,169.549 930.985,167.991C931.241,167.286 931.326,166.53 931.233,165.786C931.14,165.042 930.872,164.33 930.45,163.71C930.051,163.243 929.508,162.923 928.906,162.801C928.304,162.679 927.678,162.762 927.13,163.038C925.895,163.806 925.758,165.782 925.881,167.044C925.972,168.769 926.548,170.433 927.541,171.846C927.953,172.422 928.913,171.846 928.502,171.283L928.46,171.324Z" fill="#FFF8ED"/>
<path d="M961.866,173.287C960.273,172.705 958.578,172.457 956.886,172.56C956.039,172.64 955.233,172.963 954.566,173.492C953.898,174.02 953.399,174.73 953.127,175.537C952.995,176.254 953.095,176.995 953.41,177.653C953.725,178.311 954.241,178.852 954.883,179.2C955.55,179.62 956.323,179.843 957.112,179.843C957.901,179.843 958.674,179.62 959.342,179.2C960.906,178.137 962.024,176.535 962.483,174.7C962.502,174.629 962.507,174.556 962.498,174.484C962.488,174.412 962.465,174.342 962.428,174.279C962.392,174.216 962.344,174.161 962.286,174.116C962.228,174.072 962.162,174.04 962.092,174.021C962.022,174.002 961.949,173.997 961.876,174.006C961.804,174.016 961.735,174.039 961.672,174.075C961.609,174.112 961.553,174.16 961.509,174.218C961.465,174.275 961.432,174.341 961.413,174.412C960.755,176.634 958.669,179.639 955.925,178.527C955.4,178.361 954.942,178.032 954.616,177.589C954.291,177.145 954.115,176.608 954.115,176.058C954.283,175.413 954.649,174.837 955.16,174.409C955.672,173.981 956.303,173.723 956.968,173.671C958.522,173.594 960.076,173.832 961.537,174.37C961.678,174.409 961.83,174.389 961.957,174.316C962.084,174.242 962.177,174.121 962.216,173.979C962.254,173.838 962.234,173.686 962.161,173.559C962.087,173.432 961.967,173.339 961.825,173.3L961.866,173.287Z" fill="#FFF8ED"/>
<path d="M913.095,121.786C911.93,121.516 910.868,120.916 910.036,120.057C909.2,119.257 908.658,118.199 908.499,117.053C908.431,116.161 908.733,114.94 909.871,114.94C911.01,114.94 911.819,116.106 912.08,117.053C912.533,118.671 912.231,120.386 912.752,122.005C912.972,122.677 914.042,122.389 913.822,121.703C913.274,120.03 913.658,118.205 913.095,116.545C912.893,115.845 912.498,115.215 911.954,114.73C911.411,114.245 910.741,113.923 910.022,113.801C909.356,113.79 908.712,114.041 908.23,114.501C907.747,114.96 907.464,115.591 907.443,116.257C907.356,117.669 907.818,119.06 908.733,120.139C909.742,121.506 911.198,122.477 912.848,122.883C913.548,123.048 913.85,121.978 913.15,121.813L913.095,121.786Z" fill="#FFF8ED"/>
<path d="M931.712,102.854C931.065,102.596 930.374,102.47 929.678,102.481C928.983,102.492 928.296,102.641 927.659,102.92C927.021,103.198 926.444,103.599 925.963,104.101C925.481,104.603 925.104,105.196 924.852,105.844C924.562,106.523 924.53,107.284 924.762,107.984C924.995,108.684 925.476,109.275 926.114,109.645C927.692,110.344 929.311,109.137 930.23,107.93C930.65,107.287 930.957,106.577 931.135,105.831C931.3,105.309 931.506,104.637 932.082,104.459C932.221,104.414 932.338,104.319 932.409,104.192C932.481,104.064 932.501,103.915 932.466,103.773C932.425,103.632 932.33,103.513 932.202,103.441C932.073,103.369 931.922,103.35 931.78,103.389C930.573,103.841 930.257,105.008 929.901,106.133C929.738,106.728 929.433,107.275 929.013,107.726C928.592,108.178 928.068,108.521 927.486,108.725C927.243,108.804 926.981,108.807 926.736,108.733C926.491,108.66 926.274,108.513 926.114,108.314C925.816,107.866 925.698,107.322 925.785,106.791C925.878,106.244 926.094,105.724 926.418,105.273C926.741,104.821 927.163,104.449 927.651,104.184C928.179,103.864 928.773,103.667 929.388,103.608C930.003,103.548 930.624,103.628 931.204,103.841C931.333,103.91 931.483,103.929 931.625,103.894C931.767,103.858 931.891,103.771 931.972,103.649C932.009,103.586 932.033,103.517 932.042,103.445C932.052,103.373 932.047,103.299 932.027,103.229C932.008,103.159 931.975,103.093 931.931,103.036C931.886,102.978 931.83,102.93 931.766,102.895L931.712,102.854Z" fill="#FFF8ED"/>
<path d="M975.722,160.184C974.168,160.145 972.673,159.579 971.483,158.579C970.55,157.783 969.411,156.315 970.262,155.08C970.584,154.682 971.015,154.386 971.502,154.228C971.989,154.07 972.511,154.056 973.006,154.189C973.488,154.364 973.92,154.657 974.262,155.04C974.605,155.423 974.847,155.884 974.968,156.384C975.443,157.647 975.685,158.985 975.681,160.335C975.702,160.467 975.769,160.588 975.871,160.675C975.973,160.762 976.103,160.81 976.237,160.81C976.371,160.81 976.5,160.762 976.602,160.675C976.704,160.588 976.771,160.467 976.792,160.335C976.795,158.931 976.549,157.537 976.065,156.219C975.901,155.546 975.579,154.921 975.126,154.396C974.672,153.871 974.101,153.462 973.459,153.201C972.776,152.998 972.051,152.988 971.363,153.172C970.675,153.356 970.052,153.727 969.562,154.244C969.069,154.94 968.853,155.796 968.957,156.643C969.061,157.491 969.478,158.269 970.125,158.826C970.848,159.594 971.716,160.212 972.679,160.643C973.642,161.074 974.681,161.309 975.736,161.336C975.868,161.315 975.989,161.248 976.076,161.146C976.163,161.044 976.211,160.915 976.211,160.781C976.211,160.647 976.163,160.517 976.076,160.415C975.989,160.313 975.868,160.246 975.736,160.225L975.722,160.184Z" fill="#FFF8ED"/>
<path d="M648.899,251.527L697.616,556.708L703.817,555.718L655.101,250.537L648.899,251.527Z" fill="#FF616B"/>
<path d="M557.201,250.537L508.484,555.718L514.686,556.708L563.402,251.527L557.201,250.537Z" fill="#FF616B"/>
<path d="M709.14,233.21L509.198,233.21L509.198,254.228L709.14,254.228L709.14,233.21Z" fill="#FFC56B"/>
<path d="M696.409,241.646L528.94,241.646L571.922,0.314L739.404,0.314L696.409,241.646Z" fill="#FFC56B"/>
<path d="M683.527,241.646L516.044,241.646L559.026,0.314L726.508,0.314L683.527,241.646Z" fill="#FFFFFF"/>
<path d="M620.021,196.528C607.303,187.281 593.502,189.023 580.304,196.02C569.328,201.81 559.725,196.295 552.454,187.24C548.242,182.027 540.107,164.494 531.958,171.175C531.219,171.785 530.372,172.25 529.461,172.547L519.857,226.435L638.157,226.435C635.921,214.651 629.747,203.525 620.021,196.528Z" fill="#0096C8"/>
<path d="M684.789,233.21L484.847,233.21L484.847,254.228L684.789,254.228L684.789,233.21Z" fill="#FF616B"/>
<path d="M568.162,22.707C589.937,27.333 609.446,39.336 623.392,56.687C637.337,74.037 644.865,95.671 644.701,117.931C631.983,117.849 618.731,117.437 607.467,111.538C592.198,103.54 583.528,87.2 575.776,71.752C568.025,56.305 560.041,39.691 562.743,22.679Z" fill="#5BC29C"/>
<path d="M609.649,79.433L618.182,87.143C618.689,87.61 619.458,86.855 618.936,86.389L610.403,78.665C609.896,78.199 609.127,78.967 609.649,79.433L609.649,79.433Z" fill="#FFFFFF"/>
<path d="M628.802,97.543L635.565,105.116C636.018,105.638 636.786,104.869 636.32,104.362L629.556,96.789C629.09,96.267 628.335,97.036 628.802,97.543Z" fill="#FFFFFF"/>
<path d="M574.377,39.25L579.096,44.079C579.59,44.573 580.345,43.805 579.865,43.311L575.132,38.496C574.652,37.988 573.883,38.756 574.377,39.25L574.377,39.25Z" fill="#FFFFFF"/>
<path d="M685.365,27.33C677.389,30.04 670.068,34.387 663.871,40.092C657.673,45.798 652.738,52.736 649.38,60.462C654.552,63.068 660.945,62.437 666.158,59.885C671.371,57.334 675.556,53.108 679.191,48.581C683.623,43.093 687.533,36.508 687.121,29.457Z" fill="#5BC29C"/>
<path d="M634.81,226.201C632.34,219.342 631.956,211.179 631.586,203.894C631.215,196.609 633.287,188.803 638.692,183.919C646.114,177.169 658.022,177.128 665.143,170.076C670.329,164.945 671.824,157.29 673.566,150.225C679.054,128.164 688.259,107.695 709.304,99.162L686.709,226.517L634.81,226.201Z" fill="#FF937E"/>
<path d="M473.83,508.662L474.242,541.176C474.242,541.176 479.318,559.684 484.023,552.522C486.617,548.447 489.766,544.753 493.38,541.547L495.808,509.993L473.83,508.662Z" fill="#FFC56B"/>
<path d="M495.617,541.437L524.221,557.749C525.497,558.49 524.797,560.013 523.192,559.999C509.98,559.93 474.407,559.56 465.05,559.45C463.912,559.45 463.13,558.6 463.486,557.804C465.476,553.373 472.198,536.58 472.966,536.471C472.966,536.471 479.648,547.268 483.544,546.184C486.891,545.119 490.052,543.541 492.914,541.506C493.293,541.196 493.764,541.022 494.254,541.01C494.743,540.997 495.222,541.147 495.617,541.437L495.617,541.437Z" fill="#FF937E"/>
<path d="M502.08,544.057C502.496,543.676 502.524,543.031 502.144,542.616C501.764,542.2 501.119,542.171 500.703,542.552L502.08,544.057ZM495.846,546.997C495.431,547.377 495.402,548.022 495.783,548.438C496.163,548.853 496.808,548.882 497.224,548.502L495.846,546.997ZM500.703,542.552L495.846,546.997L497.224,548.502L502.08,544.057L500.703,542.552Z" fill="#FFFFFF"/>
<path d="M505.29,546.623C505.706,546.242 505.734,545.597 505.354,545.181C504.974,544.766 504.329,544.737 503.913,545.118L505.29,546.623ZM499.056,549.563C498.641,549.943 498.612,550.588 498.993,551.004C499.373,551.419 500.018,551.448 500.434,551.068L499.056,549.563ZM503.913,545.118L499.056,549.563L500.434,551.068L505.29,546.623L503.913,545.118Z" fill="#FFFFFF"/>
<path d="M354.845,506.646L349.11,520.131C349.11,520.131 345.324,538.927 352.746,534.646C356.742,532.232 361.074,530.424 365.601,529.282L382.393,501.94L354.845,506.646Z" fill="#FFC56B"/>
<path d="M368.084,529.9L386.303,557.338C387.112,558.559 385.809,559.615 384.368,558.888C372.611,552.879 340.988,536.567 332.688,532.259C331.673,531.738 331.316,530.64 332.03,530.092C335.789,527.019 349.343,515.001 350.084,515.289C350.084,515.289 351.195,527.938 355.16,528.72C358.633,529.257 362.168,529.257 365.642,528.72C366.122,528.612 366.625,528.67 367.068,528.884C367.512,529.098 367.869,529.456 368.084,529.9L368.084,529.9Z" fill="#FF937E"/>
<path d="M372.683,535.205C373.225,535.052 373.54,534.488 373.386,533.946C373.232,533.404 372.668,533.089 372.126,533.243L372.683,535.205ZM365.788,535.04C365.246,535.194 364.931,535.758 365.085,536.3C365.239,536.842 365.803,537.156 366.345,537.003L365.788,535.04ZM372.126,533.243L365.788,535.04L366.345,537.003L372.683,535.205L372.126,533.243Z" fill="#FFFFFF"/>
<path d="M374.397,538.95C374.939,538.797 375.255,538.234 375.102,537.691C374.95,537.149 374.386,536.833 373.844,536.986L374.397,538.95ZM367.506,538.769C366.964,538.922 366.648,539.485 366.8,540.028C366.953,540.57 367.516,540.886 368.059,540.733L367.506,538.769ZM373.844,536.986L367.506,538.769L368.059,540.733L374.397,538.95L373.844,536.986Z" fill="#FFFFFF"/>
<path d="M436.117,190.173C427.46,208.557 423.275,213.496 417.87,235.803C411.6,261.65 412.931,296.442 409.268,322.426C405.523,348.999 405.962,346.763 399.665,376.342C391.804,413.136 371.239,470.798 354.872,506.426C356.34,508.622 370.32,517.402 379.813,523.26C409.597,486.534 436.473,423.796 448.08,377.371C456.887,342.154 463.678,317.006 465.709,283.065C465.956,278.95 470.716,279.21 472.266,282.969C488.729,322.673 462.443,472.732 465.777,530.42L501.584,530.42C509.651,475.298 516.675,422.684 519.556,361.237C522.369,300.255 534.359,251.58 495.863,190.146C472.541,190.695 455.241,190.544 436.117,190.173Z" fill="#0096C8"/>
<g opacity="0.5">
<path d="M455.845,190.709C455.099,190.786 455.099,190.786 455.099,190.786C455.099,190.786 455.099,190.786 455.099,190.787C455.099,190.788 455.099,190.789 455.1,190.791C455.1,190.795 455.101,190.802 455.102,190.812C455.103,190.83 455.106,190.859 455.109,190.898C455.116,190.975 455.126,191.092 455.137,191.245C455.158,191.552 455.185,192.005 455.203,192.585C455.241,193.743 455.248,195.405 455.123,197.403C454.875,201.405 454.102,206.735 452.017,212.085C449.933,217.432 446.545,222.781 441.072,226.86C435.604,230.935 428,233.781 417.413,234.039L417.45,235.538C428.299,235.274 436.215,232.35 441.969,228.063C447.718,223.778 451.254,218.173 453.414,212.63C455.573,207.091 456.365,201.597 456.62,197.496C456.748,195.444 456.741,193.735 456.703,192.536C456.683,191.936 456.656,191.464 456.633,191.14C456.621,190.978 456.611,190.853 456.604,190.767C456.6,190.724 456.597,190.691 456.595,190.669C456.594,190.657 456.593,190.649 456.592,190.642C456.592,190.639 456.592,190.637 456.591,190.635C456.591,190.634 456.591,190.633 456.591,190.633C456.591,190.632 456.591,190.632 455.845,190.709Z" fill="#FFFFFF"/>
</g>
<g opacity="0.5">
<path d="M487.647,191.044C487.695,191.14 487.773,191.367 487.884,191.775C487.99,192.164 488.111,192.663 488.254,193.266C488.539,194.465 488.904,196.047 489.386,197.869C490.35,201.512 491.786,206.141 494.017,210.718C498.475,219.863 506.187,228.941 519.74,229.337L519.783,227.838C507.037,227.465 499.712,218.976 495.366,210.06C493.195,205.607 491.787,201.081 490.836,197.485C490.36,195.687 490,194.128 489.713,192.92C489.571,192.319 489.444,191.797 489.331,191.381C489.223,190.984 489.112,190.621 488.988,190.374L487.647,191.044Z" fill="#FFFFFF"/>
</g>
<path d="M479.277,80.86C480.402,77.238 467.972,23.871 465.064,21.429C457.079,14.747 449.287,13.197 439.107,15.406C431.232,17.107 413.041,26.738 408.596,82.767Z" fill="#FF616B"/>
<path d="M435.334,22.911C441.661,22.911 446.79,17.782 446.79,11.455C446.79,5.129 441.661,0 435.334,0C429.008,0 423.879,5.129 423.879,11.455C423.879,17.782 429.008,22.911 435.334,22.911Z" fill="#FF616B"/>
<path d="M474.214,43.366C469.604,23.446 455.158,23.981 451.467,24.406C448.353,24.777 437.611,24.804 436.87,49.69C436.869,49.809 436.843,49.926 436.795,50.034C436.746,50.142 436.676,50.238 436.588,50.318C436.501,50.398 436.398,50.459 436.286,50.497C436.174,50.536 436.055,50.55 435.937,50.541C433.852,50.418 429.078,49.677 428.035,55.11C426.993,60.542 432.151,64.027 435.265,64.397C436.184,64.493 438.283,64.809 438.86,65.522C439.543,66.021 440.349,66.325 441.192,66.4L438.338,94.675C490.677,114.939 468.657,92.974 468.657,92.974L462.607,67.484C463.321,67.484 466.476,67.786 466.504,67.786C471.813,66.853 479.194,64.823 474.214,43.366Z" fill="#FFC56B"/>
<path d="M435.855,43.024L447.887,38.209C447.887,38.209 446.995,29.484 447.283,30.389C448.552,32.108 449.966,33.714 451.509,35.191L465.64,31.281L459.027,21.348L469.865,33.997C469.865,33.997 465.941,10.153 449.698,17.534C433.455,24.915 435.855,43.024 435.855,43.024Z" fill="#FF616B"/>
<path d="M462.608,67.483L453.307,65.288C453.307,65.288 456.256,76.592 462.608,67.483Z" fill="#1E2046"/>
<path d="M430.012,55.698C430.012,55.698 433.716,48.962 437.324,58.511Z" fill="#FA9E52"/>
<path d="M454.747,49.731C455.72,49.767 456.662,50.091 457.451,50.662C458.241,51.233 458.843,52.025 459.182,52.939C459.521,53.852 459.582,54.846 459.356,55.794C459.13,56.742 458.628,57.601 457.914,58.264C457.199,58.927 456.305,59.362 455.342,59.516C454.38,59.67 453.394,59.535 452.509,59.128C451.623,58.721 450.878,58.061 450.368,57.231C449.858,56.401 449.606,55.438 449.643,54.464C449.666,53.818 449.817,53.182 450.086,52.594C450.355,52.006 450.738,51.477 451.212,51.037C451.686,50.598 452.242,50.256 452.849,50.032C453.456,49.807 454.101,49.705 454.747,49.731Z" fill="#FA9E52"/>
<path d="M475.71,52.612C473.487,52.063 471.278,50.129 471.361,47.741C471.41,46.828 471.687,45.942 472.167,45.164C472.646,44.385 473.312,43.739 474.104,43.283C475.042,46.31 475.582,49.446 475.71,52.612Z" fill="#FA9E52"/>
<path d="M467.313,51.022L469.481,50.021C469.594,49.981 469.695,49.911 469.773,49.82C469.851,49.729 469.904,49.619 469.927,49.501C469.949,49.383 469.94,49.261 469.9,49.147C469.86,49.034 469.792,48.933 469.701,48.854L466.477,45.452Z" fill="#FA9E52"/>
<path d="M456.531,40.211C455.831,41.076 456.394,37.934 457.505,37.262C457.984,36.934 458.572,36.806 459.144,36.906C459.715,37.006 460.225,37.326 460.564,37.797C458.981,38.11 457.555,38.964 456.531,40.211L456.531,40.211Z" fill="#183350"/>
<path d="M471.086,39.182C472.143,39.553 470.003,37.179 468.713,37.207C468.134,37.176 467.566,37.375 467.132,37.76C466.698,38.145 466.433,38.686 466.395,39.264C467.9,38.686 469.561,38.657 471.086,39.182L471.086,39.182Z" fill="#183350"/>
<path d="M462.553,46.988C462.868,47.907 463.472,48.525 463.925,48.36C464.378,48.195 464.474,47.345 464.172,46.439C463.87,45.534 463.253,44.889 462.8,45.067C462.347,45.246 462.251,46.096 462.553,46.988Z" fill="#183350"/>
<path d="M468.356,45.027C468.658,45.905 469.235,46.508 469.66,46.399C470.085,46.289 470.195,45.438 469.893,44.56C469.591,43.682 469.015,43.092 468.59,43.188C468.164,43.284 468.068,44.162 468.356,45.027Z" fill="#183350"/>
<path d="M460.989,53.956C461.593,53.805 472.28,50.609 472.28,50.609C472.28,50.609 471.388,56.097 468.603,56.7C465.818,57.304 460.989,53.956 460.989,53.956Z" fill="#FFF8ED"/>
<path d="M494.601,124.761C494.601,124.761 517.086,131.538 521.97,125.859C526.086,121.043 549.271,87.335 555.76,74.151C556.913,71.805 561.317,67.292 568.629,66.455C577.958,65.385 598.249,65.687 598.207,68.581C598.207,72.258 576.86,76.566 576.86,76.566C576.86,76.566 579.728,90.889 566.626,91.561C566.626,91.561 551.947,152.666 541.74,157.33C531.533,161.995 490.32,163.6 490.32,163.6L494.601,124.761Z" fill="#FFC56B"/>
<path d="M591.622,58.882L595.176,63.108L568.945,94.58C568.328,95.323 567.447,95.798 566.486,95.903C565.526,96.008 564.563,95.735 563.8,95.142L563.8,95.142C563.388,94.827 563.046,94.43 562.796,93.975C562.547,93.52 562.395,93.018 562.351,92.501C562.307,91.985 562.372,91.464 562.541,90.974C562.71,90.484 562.98,90.034 563.334,89.654L591.622,58.882Z" fill="#A94846"/>
<path d="M570.042,71.818C570.042,71.818 585.463,75.605 584.201,78.541C582.938,81.477 567.642,82.039 567.642,82.039L570.042,71.818Z" fill="#FFC56B"/>
<path d="M591.622,58.883C591.622,58.883 588.645,56.14 594.695,52.682C600.745,49.225 603.928,49.815 603.928,49.815C603.928,49.815 604.875,61.915 599.154,62.56C593.433,63.205 595.134,63.109 595.134,63.109L591.622,58.883Z" fill="#FFFFFF"/>
<path d="M504.108,166.194L512.34,124.158C502.736,109.52 482.295,93.441 472.554,93.331C472.362,93.331 472.197,93.51 472.033,93.77C469.893,92.097 467.629,90.437 467.656,90.341C476.876,111.811 440.342,87.295 440.342,87.295C435.499,87.665 412.903,98.051 394.945,110.906C382.269,119.946 386.206,117.628 386.206,117.628C386.206,117.628 406.936,150.074 411.751,155.273C412.739,159.101 417.417,150.266 417.417,150.266L426.431,202.481L509.212,203.125C510.199,202.467 503.875,162.928 495.712,137.726C497.111,140.717 501.886,167.25 504.108,166.194Z" fill="#FF937E"/>
<path d="M409.377,97.377C407.649,103.893 412.519,109.724 416.415,114.402C420.531,119.286 425.25,123.91 431.122,126.585C440.479,130.838 455.364,128.739 457.6,116.789C458.56,111.631 455.638,105.814 450.11,104.854C443.62,103.811 446.282,113.264 448.285,116.199C449.903,118.483 452.097,120.297 454.645,121.456C457.192,122.615 460.001,123.078 462.786,122.798C469.179,122.291 474.818,118.82 479.153,114.238C484.171,108.731 488.121,102.339 490.8,95.388C493.786,88.407 494.668,80.706 493.338,73.231C493.187,72.504 492.09,72.806 492.241,73.533C494.587,85.057 490.046,96.636 483.872,106.212C478.124,115.143 467.985,124.733 456.365,120.96C451.427,119.355 447.228,114.608 447.132,109.271C447.132,107.57 447.434,105.842 449.478,105.924C451.015,106.089 452.457,106.743 453.594,107.79C454.611,108.694 455.411,109.817 455.933,111.073C456.456,112.33 456.688,113.688 456.612,115.047C456.091,126.503 442.07,129.521 433.29,126.256C427.487,124.102 422.726,119.863 418.679,115.28C414.632,110.698 408.705,104.305 410.448,97.665C410.488,97.519 410.468,97.364 410.394,97.233C410.319,97.102 410.195,97.005 410.05,96.965C409.904,96.925 409.749,96.945 409.617,97.019C409.486,97.094 409.39,97.218 409.35,97.363L409.377,97.377Z" fill="#FFF8ED"/>
<path d="M450.947,206.528C448.45,189.104 452.84,171.215 461.854,156.234C470.648,141.609 483.804,130.085 498.785,122.073C507.257,117.57 516.239,114.102 525.538,111.743C525.68,111.698 525.799,111.6 525.87,111.469C525.942,111.339 525.96,111.186 525.921,111.042C525.882,110.898 525.789,110.775 525.661,110.699C525.533,110.622 525.381,110.598 525.236,110.631C508.368,114.813 492.677,122.79 479.359,133.954C465.893,145.349 456.209,160.568 451.592,177.594C449.062,187.134 448.47,197.084 449.849,206.857C449.946,207.584 451.057,207.282 450.947,206.555L450.947,206.528Z" fill="#FFF8ED"/>
<path d="M415.95,177.715C425.935,183.223 436.976,186.548 448.342,187.47C459.708,188.393 471.141,186.891 481.884,183.066C486.658,181.337 492.036,179.307 495.822,175.822C498.923,172.955 500.377,168.469 497.77,164.764C497.303,164.057 496.666,163.479 495.917,163.083C495.168,162.687 494.331,162.485 493.484,162.498C492.636,162.51 491.806,162.735 491.068,163.153C490.331,163.571 489.711,164.167 489.264,164.888C486.754,168.633 488.359,173.119 491.638,175.699C496.275,179.403 503.052,180.624 508.828,180.747C515.3,180.872 521.697,179.347 527.417,176.316C528.076,175.973 527.5,174.944 526.841,175.328C522.321,177.731 517.347,179.159 512.24,179.521C507.134,179.882 502.008,179.169 497.194,177.427C493.01,175.849 487.893,172.365 489.429,167.193C490.046,165.149 491.857,163.2 494.176,163.612C495.16,163.895 496.038,164.463 496.699,165.244C497.361,166.026 497.777,166.985 497.894,168.002C498.799,172.955 493.929,176.234 490.129,178.25C485.782,180.482 481.223,182.275 476.519,183.601C467.205,186.237 457.491,187.167 447.846,186.344C436.844,185.397 426.168,182.124 416.526,176.741C416.462,176.703 416.391,176.678 416.318,176.668C416.244,176.658 416.169,176.662 416.097,176.68C416.025,176.699 415.957,176.731 415.898,176.776C415.839,176.82 415.789,176.876 415.751,176.94C415.713,177.004 415.688,177.075 415.678,177.148C415.667,177.222 415.671,177.297 415.69,177.369C415.708,177.441 415.741,177.509 415.785,177.568C415.83,177.627 415.886,177.677 415.95,177.715L415.95,177.715Z" fill="#FFF8ED"/>
<path d="M392.901,108.064C402.381,112.742 409.2,121.468 412.917,131.222C417.308,142.787 417.445,155.45 416.21,167.619C416.141,168.346 417.28,168.346 417.362,167.619C418.625,155.024 418.433,141.84 413.631,129.946C409.748,120.343 402.916,111.727 393.478,107.076C392.833,106.761 392.243,107.735 392.901,108.064L392.901,108.064Z" fill="#FFF8ED"/>
<path d="M416.374,167.796C417.765,163.349 419.799,159.129 422.411,155.271C424.894,151.608 428.228,147.04 432.563,145.476C433.511,145.116 434.528,144.976 435.538,145.067C436.548,145.157 437.524,145.475 438.394,145.997C440.685,147.492 440.836,150.469 439.765,152.76C438.587,154.826 436.937,156.584 434.95,157.891C433.141,159.236 431.238,160.451 429.257,161.527C424.61,164.022 419.571,165.707 414.358,166.507C413.631,166.617 413.932,167.714 414.66,167.604C422.566,166.4 430.031,163.183 436.336,158.262C438.393,156.843 440.028,154.895 441.069,152.623C441.485,151.684 441.661,150.656 441.581,149.631C441.501,148.607 441.168,147.618 440.612,146.754C440.056,145.891 439.293,145.179 438.394,144.682C437.494,144.186 436.485,143.921 435.458,143.912C430.395,143.623 426.472,148.137 423.632,151.731C419.914,156.431 417.091,161.774 415.304,167.495C415.085,168.194 416.182,168.496 416.402,167.796L416.374,167.796Z" fill="#FFF8ED"/>
<path d="M503.492,98.256C500.112,99.017 496.899,100.389 494.012,102.303C491.446,104.004 488.524,106.254 487.399,109.259C487.144,109.898 487.059,110.593 487.149,111.275C487.24,111.958 487.505,112.606 487.918,113.157C488.331,113.707 488.879,114.143 489.509,114.421C490.139,114.7 490.829,114.812 491.515,114.746C493.165,114.587 494.73,113.942 496.015,112.894C497.453,111.883 498.828,110.783 500.13,109.602C503.116,106.878 505.748,103.79 507.964,100.41C508.362,99.793 507.374,99.216 506.976,99.834C505.295,102.396 503.365,104.785 501.214,106.968C499.163,109.196 496.819,111.134 494.245,112.73C493.626,113.147 492.921,113.419 492.182,113.525C491.443,113.632 490.69,113.571 489.978,113.347C489.627,113.206 489.309,112.995 489.044,112.725C488.779,112.456 488.572,112.135 488.437,111.782C488.302,111.429 488.241,111.052 488.258,110.674C488.276,110.297 488.371,109.927 488.538,109.588C489.498,106.844 492.324,104.827 494.615,103.305C497.421,101.447 500.54,100.113 503.821,99.367C504.534,99.203 504.232,98.105 503.519,98.27L503.492,98.256Z" fill="#FFF8ED"/>
<path d="M491.46,266.042C484.712,267.133 477.794,266.331 471.475,263.725C465.156,261.119 459.683,256.811 455.667,251.28C449.356,242.678 445.199,230.797 452.854,217.133C468.604,188.954 502.037,202.797 504.905,210.438C507.772,218.08 509.679,218.56 500.61,229.069C491.542,239.577 499.376,241.827 502.517,252.954C504.877,261.336 498.827,264.779 491.46,266.042Z" fill="#FFFFFF"/>
<path d="M483.419,253.418C485.526,253.418 487.233,251.711 487.233,249.604C487.233,247.498 485.526,245.791 483.419,245.791C481.313,245.791 479.605,247.498 479.605,249.604C479.605,251.711 481.313,253.418 483.419,253.418Z" fill="#FF616B"/>
<path d="M472.911,247.219C475.283,247.219 477.205,245.297 477.205,242.925C477.205,240.554 475.283,238.631 472.911,238.631C470.54,238.631 468.617,240.554 468.617,242.925C468.617,245.297 470.54,247.219 472.911,247.219Z" fill="#5BC29C"/>
<path d="M483.42,216.653C483.423,215.8 483.173,214.966 482.701,214.256C482.229,213.545 481.557,212.991 480.771,212.663C479.984,212.335 479.117,212.247 478.281,212.412C477.444,212.577 476.675,212.986 476.071,213.588C475.467,214.19 475.056,214.957 474.888,215.793C474.721,216.629 474.806,217.496 475.131,218.284C475.457,219.072 476.009,219.746 476.718,220.22C477.426,220.694 478.26,220.947 479.112,220.947C480.253,220.947 481.346,220.495 482.154,219.69C482.961,218.885 483.417,217.793 483.42,216.653L483.42,216.653Z" fill="#45A2B9"/>
<path d="M496.302,215.224C496.299,214.375 496.045,213.546 495.572,212.842C495.098,212.137 494.427,211.589 493.642,211.266C492.857,210.943 491.994,210.86 491.162,211.028C490.33,211.195 489.566,211.605 488.967,212.206C488.368,212.807 487.96,213.572 487.795,214.405C487.631,215.237 487.717,216.1 488.042,216.884C488.367,217.668 488.918,218.338 489.624,218.809C490.33,219.28 491.159,219.532 492.008,219.532C492.573,219.532 493.133,219.42 493.654,219.203C494.176,218.987 494.65,218.669 495.049,218.269C495.448,217.869 495.764,217.394 495.979,216.871C496.194,216.349 496.304,215.789 496.302,215.224L496.302,215.224Z" fill="#1E2046"/>
<path d="M475.82,228.08C475.82,227.228 475.567,226.395 475.094,225.686C474.62,224.978 473.948,224.426 473.16,224.1C472.373,223.774 471.507,223.689 470.671,223.855C469.836,224.021 469.068,224.431 468.466,225.034C467.863,225.636 467.453,226.404 467.287,227.239C467.121,228.075 467.206,228.941 467.532,229.728C467.858,230.515 468.41,231.188 469.119,231.662C469.827,232.135 470.66,232.388 471.512,232.388C472.654,232.388 473.75,231.934 474.558,231.126C475.366,230.318 475.82,229.222 475.82,228.08L475.82,228.08Z" fill="#FF937E"/>
<path d="M450.618,222.222C452.895,224.307 464.186,227.929 463.884,231.825C463.582,235.721 454.528,229.191 454.089,231.331C453.65,233.471 463.404,233.801 462.773,236.819C462.142,239.837 453.416,235.447 452.826,236.997C452.236,238.547 462.69,238.671 461.373,241.017C460.056,243.363 453.142,240.166 450.618,240.729C448.093,241.291 461.387,242.992 454.473,244.529C451.976,245.091 449.122,243.774 443.621,242.677C357.698,214.484 345.255,212.221 390.116,123.924C394.63,129.494 401.997,143.035 409.323,151.76C385.617,206.747 421.451,202.878 452.634,217.722Z" fill="#FFC56B"/>
</svg>
