<svg width="1276" height="602" viewBox="0 0 1276 602" fill="none" xmlns="http://www.w3.org/2000/svg" xmlns:xlink="http://www.w3.org/1999/xlink">
<path d="M115.32,86.212C117.106,87.357 117.045,90.593 115.213,93.448C113.381,96.303 110.45,97.692 108.679,96.501C106.908,95.311 106.954,92.12 108.786,89.265C110.618,86.41 113.549,85.067 115.32,86.212Z" fill="#3F468E"/>
<path d="M130.282,77.617C132.053,78.762 132.007,81.998 130.16,84.853C128.313,87.708 125.397,89.113 123.626,87.907C121.855,86.701 121.9,83.525 123.748,80.67C125.595,77.815 128.511,76.487 130.282,77.617Z" fill="#3F468E"/>
<path d="M115.148,88.143C115.398,88.534 115.917,88.649 116.308,88.399C116.699,88.149 116.813,87.63 116.563,87.239L115.148,88.143ZM114.863,67.203L114.308,66.572C114.12,66.738 114.016,66.979 114.024,67.23L114.863,67.203ZM130.771,53.203L131.611,53.203C131.611,52.873 131.418,52.574 131.117,52.438C130.817,52.302 130.464,52.355 130.216,52.573L130.771,53.203ZM129.931,79.767C129.931,80.231 130.307,80.607 130.771,80.607C131.235,80.607 131.611,80.231 131.611,79.767L129.931,79.767ZM116.563,87.239C116.619,87.325 116.639,87.397 116.64,87.399C116.645,87.415 116.646,87.421 116.643,87.408C116.638,87.384 116.63,87.336 116.619,87.257C116.598,87.101 116.574,86.875 116.549,86.581C116.499,85.996 116.446,85.182 116.391,84.211C116.282,82.271 116.169,79.732 116.067,77.207C115.965,74.682 115.874,72.174 115.808,70.297C115.776,69.359 115.749,68.578 115.731,68.033C115.722,67.76 115.715,67.545 115.71,67.399C115.708,67.326 115.706,67.27 115.705,67.233C115.704,67.214 115.704,67.2 115.703,67.19C115.703,67.185 115.703,67.182 115.703,67.179C115.703,67.178 115.703,67.177 115.703,67.177C115.703,67.176 115.703,67.176 115.703,67.176C115.703,67.176 115.703,67.176 114.863,67.203C114.024,67.23 114.024,67.23 114.024,67.23C114.024,67.23 114.024,67.23 114.024,67.231C114.024,67.231 114.024,67.232 114.024,67.233C114.024,67.236 114.024,67.24 114.024,67.244C114.024,67.254 114.025,67.268 114.026,67.287C114.027,67.325 114.029,67.381 114.031,67.454C114.036,67.601 114.043,67.815 114.052,68.089C114.07,68.635 114.097,69.417 114.129,70.356C114.195,72.235 114.286,74.746 114.388,77.275C114.491,79.802 114.604,82.352 114.714,84.305C114.769,85.281 114.823,86.114 114.875,86.724C114.901,87.028 114.927,87.287 114.954,87.483C114.968,87.581 114.983,87.676 115,87.759C115.009,87.801 115.021,87.851 115.038,87.903C115.05,87.941 115.082,88.04 115.148,88.143L116.563,87.239ZM115.418,67.833L131.326,53.834L130.216,52.573L114.308,66.572L115.418,67.833ZM129.931,53.203L129.931,79.767L131.611,79.767L131.611,53.203L129.931,53.203Z" fill="#3F468E"/>
<path d="M281.789,209.903C283.56,211.033 283.514,214.285 281.682,217.139C279.85,219.994 276.919,221.384 275.148,220.193C273.377,219.002 273.423,215.811 275.255,212.941C277.087,210.071 280.018,208.758 281.789,209.903Z" fill="#3F468E"/>
<path d="M296.75,201.308C298.521,202.453 298.46,205.689 296.628,208.544C294.796,211.399 291.865,212.804 290.094,211.598C288.323,210.392 288.369,207.216 290.201,204.361C292.033,201.506 294.964,200.163 296.75,201.308Z" fill="#3F468E"/>
<path d="M281.616,211.837C281.865,212.228 282.385,212.342 282.776,212.093C283.167,211.843 283.281,211.323 283.031,210.932L281.616,211.837ZM281.331,190.897L280.775,190.267C280.587,190.433 280.483,190.673 280.491,190.924L281.331,190.897ZM297.178,176.897L298.018,176.897C298.018,176.567 297.824,176.267 297.523,176.131C297.222,175.995 296.869,176.049 296.622,176.267L297.178,176.897ZM296.338,203.431C296.338,203.895 296.714,204.271 297.178,204.271C297.642,204.271 298.018,203.895 298.018,203.431L296.338,203.431ZM283.031,210.932C283.086,211.019 283.107,211.09 283.108,211.093C283.113,211.109 283.114,211.114 283.111,211.102C283.106,211.078 283.097,211.03 283.087,210.951C283.066,210.795 283.042,210.569 283.017,210.275C282.967,209.69 282.914,208.875 282.859,207.904C282.75,205.965 282.637,203.426 282.535,200.901C282.433,198.376 282.342,195.868 282.276,193.991C282.243,193.053 282.217,192.272 282.199,191.726C282.19,191.453 282.183,191.239 282.178,191.093C282.176,191.02 282.174,190.964 282.172,190.927C282.172,190.908 282.171,190.894 282.171,190.884C282.171,190.879 282.171,190.876 282.171,190.873C282.171,190.872 282.171,190.871 282.171,190.87C282.171,190.87 282.171,190.87 282.171,190.87C282.171,190.87 282.171,190.87 281.331,190.897C280.491,190.924 280.491,190.924 280.491,190.924C280.492,190.924 280.492,190.924 280.492,190.925C280.492,190.925 280.492,190.926 280.492,190.927C280.492,190.93 280.492,190.933 280.492,190.938C280.492,190.948 280.493,190.962 280.493,190.981C280.495,191.019 280.496,191.075 280.499,191.148C280.504,191.294 280.511,191.509 280.52,191.782C280.538,192.329 280.564,193.11 280.597,194.05C280.663,195.929 280.754,198.44 280.856,200.968C280.958,203.496 281.072,206.045 281.182,207.999C281.236,208.974 281.291,209.808 281.343,210.418C281.369,210.722 281.395,210.98 281.422,211.177C281.435,211.275 281.45,211.37 281.468,211.453C281.477,211.495 281.489,211.545 281.505,211.597C281.517,211.635 281.549,211.733 281.616,211.837L283.031,210.932ZM281.887,191.526L297.734,177.527L296.622,176.267L280.775,190.267L281.887,191.526ZM296.338,176.897L296.338,203.431L298.018,203.431L298.018,176.897L296.338,176.897Z" fill="#3F468E"/>
<path d="M199.089,25.968C200.86,27.113 200.799,30.35 198.967,33.204C197.135,36.059 194.204,37.449 192.433,36.258C190.662,35.067 190.708,31.876 192.54,29.021C194.372,26.166 197.303,24.808 199.089,25.968Z" fill="#3F468E"/>
<path d="M198.901,27.902C199.15,28.293 199.67,28.407 200.061,28.158C200.452,27.908 200.566,27.388 200.316,26.997L198.901,27.902ZM198.616,6.962L198.067,6.326C197.875,6.492 197.769,6.735 197.777,6.989L198.616,6.962ZM207.211,0.635C207.562,0.332 207.601,-0.199 207.297,-0.55C206.993,-0.9 206.463,-0.939 206.112,-0.635L207.211,0.635ZM200.316,26.997C200.372,27.084 200.392,27.155 200.393,27.158C200.398,27.174 200.399,27.179 200.396,27.167C200.391,27.143 200.383,27.095 200.372,27.016C200.351,26.86 200.327,26.634 200.302,26.34C200.252,25.755 200.199,24.94 200.144,23.969C200.035,22.03 199.922,19.491 199.82,16.966C199.718,14.441 199.627,11.933 199.561,10.056C199.529,9.118 199.502,8.337 199.484,7.791C199.475,7.519 199.468,7.304 199.463,7.158C199.461,7.085 199.459,7.029 199.458,6.992C199.457,6.973 199.457,6.959 199.456,6.949C199.456,6.944 199.456,6.941 199.456,6.938C199.456,6.937 199.456,6.936 199.456,6.936C199.456,6.935 199.456,6.935 199.456,6.935C199.456,6.935 199.456,6.935 198.616,6.962C197.777,6.989 197.777,6.989 197.777,6.989C197.777,6.989 197.777,6.989 197.777,6.99C197.777,6.99 197.777,6.991 197.777,6.992C197.777,6.995 197.777,6.998 197.777,7.003C197.777,7.013 197.778,7.027 197.779,7.046C197.78,7.084 197.782,7.14 197.784,7.213C197.789,7.359 197.796,7.574 197.805,7.847C197.823,8.394 197.85,9.176 197.882,10.115C197.948,11.994 198.039,14.505 198.141,17.033C198.244,19.561 198.357,22.11 198.467,24.064C198.522,25.039 198.576,25.873 198.628,26.483C198.654,26.787 198.68,27.045 198.707,27.242C198.72,27.34 198.736,27.435 198.753,27.518C198.762,27.56 198.774,27.61 198.79,27.662C198.803,27.7 198.835,27.798 198.901,27.902L200.316,26.997ZM199.166,7.597L207.211,0.635L206.112,-0.635L198.067,6.326L199.166,7.597Z" fill="#3F468E"/>
<path d="M222.02,525.803C211.883,524.275 204.494,516.795 202.341,514.047C202.341,514.139 159.091,430.187 142.16,410.233C151.518,386.249 183.014,367.089 197.38,354.341C200.708,351.395 219.685,335.853 223.608,333.762C242.875,323.502 252.035,306.068 245.837,272.526C238.402,278.282 222.28,266.252 196.891,260.481C196.891,260.481 122.267,332.235 103.886,367.852C85.077,404.264 81.886,412.126 135.595,475.941C150.48,495.787 197.059,552.885 197.059,552.885C197.059,552.885 210.799,590.259 211.013,590.823C211.227,591.389 222.31,554.565 227.471,537.543C228.906,532.809 226.952,526.521 222.02,525.803Z" fill="#FFC56B"/>
<path d="M187.853,489.377C187.96,488.705 188.082,488.033 188.189,487.347C174.037,460.981 152.862,422.844 142.16,410.249C151.518,386.264 183.014,367.105 197.38,354.357C200.708,351.41 219.685,335.869 223.608,333.777C242.875,323.518 252.035,306.083 245.837,272.542C238.402,278.298 222.28,266.267 196.891,260.497C196.891,260.497 122.267,332.25 103.886,367.868C85.077,404.279 81.886,412.142 135.595,475.957C142.77,485.529 157.304,503.757 170.434,520.063C176.022,509.713 181.828,499.483 187.853,489.377Z" fill="#1E2046"/>
<path d="M157.778,513.346C165.823,507.53 188.556,491.346 197.029,486.186C188.922,468.554 170.327,444.325 156.068,426.86C151.486,421.234 149.129,414.121 149.444,406.871C149.759,399.622 152.725,392.74 157.778,387.533C172.419,372.403 191.868,360.175 200.342,351.503C207.356,344.598 215.214,338.607 223.73,333.672C242.905,323.397 250.63,301.413 244.447,268.024C237.012,273.765 222.28,266.299 196.891,260.528C196.891,260.528 122.267,332.282 103.886,367.9C85.077,404.311 86.803,405.166 89.657,414.57C99.26,434.035 147.564,500.582 157.778,513.346Z" fill="#0096C8"/>
<g style="mix-blend-mode:multiply">
<path d="M138.036,329.09C148.433,339.303 158.372,349.99 168.341,360.677C171.318,363.898 174.326,367.104 177.318,370.31C186.646,362.921 195.378,356.57 200.34,351.532C207.355,344.627 215.213,338.636 223.729,333.7C242.904,323.426 250.629,300.282 244.446,266.817C237.011,272.557 222.278,266.252 196.89,260.481C196.89,260.481 162.57,293.488 134.754,325.838L138.036,329.09Z" fill="#1E2046"/>
</g>
<path d="M203.074,582.044L199.593,566.228L210.676,572.014L210.127,521.633L231.088,528.671L211.012,590.761C209.046,590.122 207.28,588.983 205.888,587.454C204.496,585.926 203.526,584.061 203.074,582.044L203.074,582.044Z" fill="#FF937E"/>
<path d="M54.925,466.92C50.011,454.204 47.821,440.598 48.498,426.982C48.407,426.982 79.032,354.77 81.306,328.679C105.275,318.344 137.794,325.962 157.243,327.153C161.747,327.428 205.776,343.198 221.7,335.336C254.646,319.092 241.318,282.726 243.684,268.422C234.218,267.215 224.554,266.574 198.021,259.124C198.021,259.124 123.336,259.521 84.574,271.673C44.88,284.1 36.941,287.444 29.247,370.541C25.537,395.136 17.583,468.462 17.583,468.462C17.583,468.462 0.469,504.644 0.194,505.102C-0.081,505.56 34.392,487.454 50.345,479.072C52.477,477.972 54.125,476.122 54.971,473.876C55.817,471.632 55.801,469.154 54.925,466.92Z" fill="#FFC56B"/>
<path d="M245.27,268.377C229.276,266.789 213.469,263.676 198.066,259.079C198.066,259.079 123.381,259.476 84.619,271.628C44.925,284.056 36.986,287.399 29.292,370.496C26.773,387.152 22.33,426.144 19.704,449.593C29.078,442.082 38.604,434.785 48.513,428.021C48.513,427.686 48.513,427.334 48.513,426.983C48.421,426.983 79.046,354.771 81.321,328.681C105.29,318.345 137.808,325.963 157.258,327.154C161.762,327.429 205.791,343.199 221.714,335.337C254.644,319.047 242.858,282.682 245.27,268.377Z" fill="#1E2046"/>
<path d="M245.272,268.758C235.806,267.552 224.6,266.529 198.066,259.079C198.066,259.079 123.381,259.476 84.619,271.628C44.925,284.056 36.895,286.468 26.605,323.032C25.429,330.314 10.162,419.304 8.636,431.96C18.834,435.227 52.161,426.892 62.146,430.708C62.405,411.976 72.1,374.099 77.657,348.878C79.271,341.658 83.39,335.243 89.284,330.771C95.179,326.299 102.466,324.061 109.855,324.452C126.282,325.307 142.632,330.207 154.693,332.085C171.578,334.65 211.624,338.772 227.546,330.909C260.432,314.589 250.614,279.949 245.272,268.758Z" fill="#0096C8"/>
<path d="M0.193,505.117C-1.684,501.347 10.728,474.981 10.728,474.981L16.834,486.477L50.513,451.149C50.513,451.149 60.787,473.821 57.093,475.576C53.398,477.332 0.193,505.117 0.193,505.117Z" fill="#FF937E"/>
<path d="M13.537,404.859C20.315,406.049 27.811,407.255 34.376,404.569C36.724,403.612 38.794,402.08 40.394,400.114C41.995,398.147 43.075,395.81 43.536,393.317C46.177,382.31 43.231,369.256 36.895,360.005C33.918,355.654 29.261,353.486 25.368,350.219C24.987,349.913 24.422,350.463 24.819,350.784C27.872,353.303 31.597,355.104 34.315,358.005C37.885,362.155 40.441,367.078 41.78,372.386C43.327,377.731 43.896,383.312 43.46,388.859C43.017,393.943 41.444,399.439 36.956,402.385C30.162,406.828 21.307,405.439 13.796,404.111C13.292,404.019 13.079,404.767 13.582,404.859L13.537,404.859Z" fill="#FFF8ED"/>
<path d="M69.077,370.158C58.318,359.052 51.686,344.597 50.284,329.197C49.917,324.862 50.284,320.648 53.902,317.702C57.042,315.341 60.616,313.624 64.421,312.648C72.005,310.648 79.935,310.325 87.657,311.702C96.246,313.177 104.672,315.483 112.816,318.587C113.29,318.755 113.503,317.992 113.03,317.824C97.84,312.404 80.588,307.244 64.497,311.824C57.963,313.686 50.177,317.06 49.444,324.709C49.237,328.754 49.623,332.807 50.589,336.739C53.201,349.549 59.42,361.345 68.512,370.738C68.863,371.09 69.428,370.54 69.077,370.174L69.077,370.158Z" fill="#FFF8ED"/>
<path d="M94.419,272.939L115.121,291.015C120.8,295.977 126.541,302.236 133.67,305.106C145.701,309.946 159.044,301.946 163.654,290.603C166.514,283.07 166.719,274.787 164.234,267.122C164.097,266.634 163.334,266.847 163.486,267.321C167.349,280.145 164.54,295.793 152.036,302.77C149.361,304.333 146.378,305.295 143.293,305.59C140.209,305.886 137.097,305.507 134.174,304.48C130.64,302.941 127.389,300.82 124.556,298.205C121.503,295.656 118.633,293.045 115.671,290.465L94.984,272.389C94.603,272.053 94.053,272.603 94.419,272.939Z" fill="#FFF8ED"/>
<path d="M182.891,336.253C179.364,330.07 174.937,321.322 180.815,315.032C183.99,311.613 188.616,312.529 192.616,313.689C196.616,314.849 200.784,316.086 204.829,317.292C208.875,318.498 217.287,321.658 219.409,315.674C220.493,312.62 218.768,309.231 218.982,306.086C219.392,302.444 221.218,299.11 224.065,296.804C231.363,290.438 241.714,291.644 250.599,292.773C251.103,292.85 251.088,292.056 250.599,291.995C242.691,290.987 233.806,289.873 226.554,294.056C220.859,297.369 217.394,303.063 218.463,309.674C218.814,311.857 219.501,314.422 218.173,316.422C216.844,318.422 214.539,318.544 212.493,318.376C208.325,318.025 204.127,316.269 200.127,315.093C193.883,313.246 184.586,308.727 179.578,315.231C174.403,321.963 178.57,330.33 182.189,336.604C182.25,336.674 182.333,336.72 182.424,336.735C182.516,336.749 182.61,336.732 182.689,336.685C182.769,336.637 182.83,336.564 182.861,336.477C182.892,336.39 182.892,336.294 182.86,336.207L182.891,336.253Z" fill="#FFF8ED"/>
<path d="M121.442,342.97C124.038,346.206 127.549,348.313 130.602,351.092C133.656,353.87 136.709,358.725 134.679,363.107C132.373,368.053 125.915,369.793 121.61,372.435C117.305,375.076 114.236,379.412 116.343,384.755C117.671,388.098 120.145,390.862 121.748,394.037C122.688,396.021 123.204,398.18 123.262,400.376C123.319,402.571 122.918,404.754 122.084,406.785C118.496,416.357 108.817,421.136 100.176,425.303C99.718,425.517 100.176,426.189 100.573,425.975C108.206,422.296 116.45,418.342 121,410.785C123.068,407.514 124.129,403.708 124.053,399.838C123.885,395.9 122.022,392.724 119.931,389.503C117.839,386.282 115.351,382.465 116.878,378.45C117.961,375.595 120.679,373.87 123.229,372.343C127.518,369.946 133.473,367.992 135.534,363.076C139.488,353.611 126.633,348.145 121.961,342.359C121.641,341.962 121.091,342.527 121.412,342.909L121.442,342.97Z" fill="#FFF8ED"/>
<path d="M115.579,449.666C121.046,447.391 126.935,446.309 132.853,446.49C138.771,446.672 144.582,448.114 149.899,450.72C160.551,456.036 168.895,465.059 173.364,476.093C175.978,482.309 177.527,488.92 177.944,495.65C177.944,496.154 178.753,496.154 178.723,495.65C178.077,483.437 173.589,471.74 165.898,462.231C162.057,457.587 157.336,453.746 152.008,450.93C146.679,448.114 140.847,446.377 134.846,445.819C128.139,445.211 121.386,446.303 115.213,448.995C114.755,449.193 115.213,449.865 115.61,449.666L115.579,449.666Z" fill="#FFF8ED"/>
<path d="M154.463,384.539C150.336,385.101 146.5,386.978 143.525,389.892C140.55,392.806 138.594,396.603 137.947,400.717C137.301,404.832 137.999,409.045 139.937,412.731C141.876,416.418 144.952,419.38 148.708,421.18C149.166,421.409 149.563,420.737 149.105,420.508C145.462,418.797 142.473,415.949 140.587,412.393C138.702,408.837 138.023,404.765 138.651,400.79C139.279,396.814 141.182,393.15 144.072,390.349C146.962,387.548 150.684,385.761 154.677,385.257C155.166,385.181 154.952,384.433 154.463,384.509L154.463,384.539Z" fill="#FFF8ED"/>
<path d="M52.345,200.042C47.052,195.099 40.711,191.414 33.796,189.263C33.494,189.15 33.171,189.103 32.849,189.126C32.471,189.255 32.159,189.527 31.979,189.884C31.799,190.241 31.766,190.654 31.887,191.034C32.205,191.794 32.735,192.446 33.414,192.912C36.238,195.416 39.017,198.24 41.841,200.744Z" fill="#FFC56B"/>
<path d="M41.291,198.363L48.68,197.844L48.497,197.462C47.687,196.164 46.97,194.409 47.779,193.172C47.893,192.955 48.05,192.764 48.242,192.611C48.433,192.458 48.654,192.347 48.891,192.283C49.128,192.22 49.375,192.207 49.617,192.244C49.86,192.282 50.091,192.369 50.298,192.5C52.038,193.676 62.038,199.844 62.267,206.897C62.267,206.897 110.434,219.248 115.701,219.92C120.968,220.591 140.616,204.378 140.616,204.378L165.318,223.889C165.318,223.889 126.342,250.255 120.632,250.132C115.167,249.995 55.397,224.362 50.497,222.255C46.207,223.141 42.1,221.446 38.359,218.255C36.862,216.966 35.847,215.207 35.481,213.265C35.115,211.323 35.419,209.315 36.344,207.569L41.291,198.363Z" fill="#FFC56B"/>
<path d="M154.206,184.728C139.886,199.552 119.092,220.345 115.734,219.918C114.909,219.811 113.031,219.414 110.451,218.834C108.619,228.971 107.093,239.169 105.627,249.368C114.787,253.337 121.962,256.238 123.596,256.283C129.291,256.421 171.961,219.781 171.961,219.781L187.136,167.751C174.114,169.309 163.305,175.293 154.206,184.728Z" fill="#FF937E"/>
<path d="M41.78,200.742C41.78,200.742 52.223,200.147 50.528,207.673C48.834,215.2 46.696,221.413 46.696,221.413C46.696,221.413 55.856,208.742 55.169,205.353C54.482,201.963 41.78,200.742 41.78,200.742Z" fill="#753231"/>
<path d="M197.699,96.563C196.869,92.922 197.068,89.122 198.273,85.588C199.478,82.053 201.642,78.924 204.523,76.548C214.584,68.213 221.088,77.648 228.874,74.823C236.66,71.999 234.217,69.526 241.21,60.152C248.202,50.778 265.896,72.747 268.812,61.678C271.728,50.61 283.239,81.525 272.354,90.334C261.469,99.143 251.683,95.754 245.133,95.311C238.584,94.868 236.737,110.12 225.454,110.12C218.508,110.181 202.142,109.693 197.699,96.563Z" fill="#3F468E"/>
<path d="M162.296,122.973C159.823,120.133 159.029,110.179 160.769,106.805C165.349,97.645 171.792,93.065 181.914,91.035C189.731,89.508 233.256,99.844 202.326,142.805Z" fill="#3F468E"/>
<path d="M161.105,130.348C157.38,110.501 170.693,105.188 174.22,104.105C177.181,103.204 186.937,98.975 197.486,121.249C197.537,121.355 197.608,121.45 197.695,121.528C197.783,121.606 197.885,121.666 197.996,121.704C198.106,121.742 198.224,121.758 198.341,121.751C198.458,121.744 198.572,121.713 198.677,121.661C200.524,120.7 204.585,118.135 207.669,122.654C210.753,127.173 207.517,132.363 204.784,133.951C204.005,134.409 202.219,135.478 201.975,136.409C201.868,136.821 201.211,137.417 200.204,138.119L214.02,162.637C174.601,201.812 183.242,166.317 183.242,166.317L181.151,147.615C180.494,147.89 177.762,149.416 177.731,149.432C172.617,150.699 165.136,151.828 161.105,130.348Z" fill="#FFC56B"/>
<path d="M206.112,124.045C206.112,124.045 200.006,119.389 200.586,129.496Z" fill="#DB8F42"/>
<path d="M181.273,128.317C180.406,128.735 179.682,129.401 179.193,130.231C178.704,131.061 178.472,132.017 178.526,132.978C178.581,133.94 178.919,134.864 179.498,135.633C180.077,136.402 180.872,136.983 181.781,137.301C182.69,137.619 183.673,137.66 184.605,137.419C185.538,137.179 186.378,136.667 187.02,135.949C187.662,135.231 188.076,134.339 188.211,133.385C188.346,132.432 188.195,131.459 187.777,130.592C187.5,130.015 187.111,129.499 186.634,129.072C186.157,128.646 185.601,128.318 184.997,128.107C184.393,127.895 183.753,127.805 183.114,127.841C182.475,127.877 181.85,128.039 181.273,128.317L181.273,128.317Z" fill="#FFA64D"/>
<path d="M163.426,139.308C164.385,138.652 165.102,137.699 165.466,136.595C165.83,135.492 165.821,134.299 165.441,133.201C165.053,132.375 164.462,131.661 163.722,131.127C162.982,130.593 162.118,130.256 161.212,130.148C161.55,133.284 162.294,136.364 163.426,139.308L163.426,139.308Z" fill="#FFA64D"/>
<path d="M170.463,134.545L168.097,134.545C167.979,134.551 167.861,134.526 167.755,134.473C167.649,134.42 167.559,134.34 167.493,134.242C167.427,134.144 167.387,134.03 167.378,133.912C167.369,133.794 167.39,133.675 167.441,133.568L168.967,129.202Z" fill="#DB8F42"/>
<path d="M175.9,120.456C176.877,120.96 175.121,118.334 173.839,118.166C173.274,118.058 172.69,118.177 172.213,118.497C171.735,118.818 171.403,119.313 171.289,119.876C172.846,119.523 174.478,119.728 175.9,120.456Z" fill="#183350"/>
<path d="M162.281,125.311C161.472,126.059 162.465,123.052 163.655,122.563C164.17,122.307 164.765,122.265 165.311,122.445C165.857,122.625 166.31,123.013 166.571,123.525C164.977,123.601 163.459,124.233 162.281,125.311L162.281,125.311Z" fill="#183350"/>
<path d="M173.136,129.02C173.212,129.982 172.907,130.791 172.449,130.821C171.991,130.852 171.533,130.119 171.456,129.173C171.38,128.226 171.67,127.417 172.144,127.371C172.617,127.325 173.044,128.073 173.136,129.02Z" fill="#183350"/>
<path d="M167.075,129.526C167.167,130.442 166.862,131.205 166.434,131.251C166.007,131.297 165.564,130.58 165.472,129.725C165.381,128.87 165.686,128.045 166.129,128.015C166.572,127.984 166.999,128.625 167.075,129.526Z" fill="#183350"/>
<path d="M177.318,134.729L165.73,136.256C165.73,136.256 168.784,140.928 171.486,140.317C174.188,139.706 177.318,134.729 177.318,134.729Z" fill="#FFF8ED"/>
<path d="M165.884,103.525C169.105,108.734 173.106,113.419 177.746,117.418C180.922,120.013 191.898,127.662 199.12,121.998C206.341,116.334 189.868,83.327 165.884,103.525Z" fill="#3F468E"/>
<path d="M213.532,190.299C234.249,186.559 260.783,176.559 271.867,166.605C284.782,154.918 294.183,139.861 299.011,123.125L315.407,67.554C315.407,67.554 330.583,35.83 329.422,34.868C327.514,33.265 323.178,41.387 321.285,45.203C321.277,45.222 321.265,45.24 321.251,45.254C321.236,45.269 321.219,45.28 321.199,45.288C321.18,45.296 321.16,45.3 321.139,45.3C321.119,45.3 321.098,45.295 321.079,45.287C321.06,45.279 321.043,45.268 321.028,45.253C321.014,45.238 321.002,45.221 320.994,45.202C320.987,45.183 320.983,45.162 320.983,45.141C320.983,45.121 320.987,45.1 320.995,45.081L324.888,32.288C326.186,28.868 324.018,29.463 323.789,29.998L316.705,44.318C316.684,44.348 316.654,44.37 316.619,44.382C316.584,44.393 316.547,44.393 316.512,44.38C316.477,44.368 316.448,44.345 316.427,44.315C316.407,44.284 316.397,44.248 316.4,44.211L320.232,27.143C320.69,24.089 318.568,25.387 318.384,25.845L311.927,41.875C311.921,41.895 311.911,41.914 311.897,41.93C311.884,41.946 311.868,41.96 311.85,41.97C311.831,41.98 311.811,41.986 311.79,41.988C311.769,41.99 311.748,41.988 311.728,41.982C311.708,41.976 311.689,41.966 311.673,41.953C311.657,41.94 311.644,41.924 311.634,41.905C311.624,41.887 311.617,41.866 311.615,41.846C311.613,41.825 311.615,41.804 311.621,41.784C312.568,37.875 314.797,30.013 314.293,26.975C313.942,24.776 312.95,26.257 312.598,26.654C310.965,28.486 303.515,52.135 303.515,52.135C303.515,52.135 298.828,39.753 297.408,41.921C296.446,43.31 299.24,50.333 299.53,57.432C299.713,62.012 301.057,62.455 299.53,66.791L275.531,121.507C273.661,125.898 271.082,129.952 267.897,133.507C260.92,141.14 248.05,151.018 226.57,154.712L213.532,190.299Z" fill="#FFC56B"/>
<path d="M278.538,114.454L275.485,121.553C273.615,125.945 271.036,129.999 267.851,133.553C260.874,141.186 248.004,151.064 226.524,154.759L213.654,190.3C234.371,186.559 266.401,183.124 277.5,173.216C286.26,165.341 293.418,155.849 298.583,145.263C291.846,135.003 285.164,124.734 278.538,114.454Z" fill="#FF937E"/>
<path d="M181.976,168.5C180.739,169.691 174.587,203.354 174.342,214.682C174.052,224.972 183.747,241.674 187.456,260.269C187.456,260.269 227.15,278.589 245.684,269.918C246.753,254.01 243.501,185.111 232.906,158.775C232.906,158.775 223.44,160.21 218.128,160.577C218.051,160.577 186.571,186.866 181.976,168.5Z" fill="#FFC56B"/>
<path d="M183.242,166.315C182.799,166.727 178.555,168.986 177.288,169.704C174.845,178.207 168.662,207.291 168.464,214.634C168.174,224.924 176.204,252.007 178.097,261.793C178.097,261.793 197.028,257.961 255.958,264.51C259.484,242.74 248.324,178.146 237.76,151.796C237.76,151.796 217.44,156.666 212.829,159.338C212.89,159.338 183.532,240.603 183.242,166.315Z" fill="#FF937E"/>
<g opacity="0.5" style="mix-blend-mode:multiply">
<g opacity="0.5" style="mix-blend-mode:multiply">
<path d="M247.531,185.598C234.559,211.727 219.637,236.84 202.891,260.726C215.028,260.925 232.279,261.871 256.019,264.512C258.431,249.612 253.973,214.62 247.531,185.598Z" fill="#FF937E"/>
</g>
</g>
<path d="M610.483,549.116L608.331,588.382L566.988,591.97L585.461,573.985L580.606,548.704L610.483,549.116Z" fill="#FF937E"/>
<path d="M605.17,550.046L602.972,585.465L609.491,574.58L609.933,551.848L605.17,550.046Z" fill="#E0603D"/>
<path d="M574.47,582.534L565.035,591.068C564.012,591.862 564.745,593.19 566.21,593.205C566.21,593.205 615.064,592.946 615.064,592.289C615.461,588.213 610.652,573.969 609.95,570.183C609.843,569.649 585.416,591.312 582.011,590.03C579.737,589.267 575.157,582.045 574.47,582.534Z" fill="#8CD1B5"/>
<path d="M715.306,548.917L722.069,588.581L675.887,591.97L696.802,573.024L689.505,551.62L715.306,548.917Z" fill="#FF937E"/>
<path d="M704.572,549.192L718.19,573.024L721.641,574.413L716.77,547.696L704.572,549.192Z" fill="#E0603D"/>
<path d="M682.985,582.535L673.55,591.069C672.527,591.863 673.26,593.191 674.726,593.207C674.726,593.207 725.106,592.947 725.213,592.291C725.61,588.214 722.16,573.253 721.488,569.543C721.381,569.009 693.932,591.313 690.542,590.092C688.252,589.268 683.672,582.047 682.985,582.535Z" fill="#8CD1B5"/>
<path d="M657.84,83.708C657.84,83.708 655.458,111.814 676.313,129.966C693.229,144.699 670.298,163.294 670.298,163.294C670.298,163.294 673.458,176.042 667.382,179.278C639.031,194.407 605.124,166.729 599.506,132.409C585.14,133.737 591.323,114.333 599.506,100.914L657.84,83.708Z" fill="#FF616B"/>
<path d="M496.364,103.003C497.235,101.476 502.761,108.331 502.013,106.178C501.265,104.026 495.448,95.675 496.899,94.667C498.105,93.827 503.631,104.056 504.868,103.675C506.105,103.293 498.288,92.408 499.082,91.461C501.296,88.683 507.799,102.484 509.769,101.598C509.631,101.919 502.929,90.331 505.402,89.736C506.547,89.461 511.845,98.041 516.669,106.331C516.742,106.462 516.855,106.566 516.991,106.628C517.127,106.691 517.28,106.708 517.427,106.677C517.574,106.646 517.707,106.57 517.807,106.458C517.906,106.346 517.968,106.205 517.982,106.056C518.486,102.026 519.066,97.583 520.959,99.461C526.211,116.605 525.142,121.353 525.142,121.353L525.066,121.353L555.89,175.474C556.943,177.23 559.523,178.405 560.973,176.863C565.645,171.902 598.575,137.17 598.087,138.819C597.339,141.276 595.675,184.833 593.965,183.627C578.698,212.756 551.905,211.107 551.905,211.107C531.142,200.527 511.051,126.91 511.051,126.91L511.143,126.91C507.86,123.582 495.647,104.468 496.364,103.003Z" fill="#FF937E"/>
<path d="M511.066,126.897C512.863,134.283 514.265,141.759 515.265,149.293C522.541,144.698 529.388,139.456 535.722,133.63L525.035,121.416L525.112,121.416C525.112,121.416 526.18,116.668 520.928,99.524C519.035,97.646 518.455,102.089 517.951,106.119C517.937,106.268 517.876,106.409 517.776,106.521C517.676,106.633 517.543,106.709 517.396,106.74C517.249,106.771 517.097,106.754 516.96,106.691C516.824,106.629 516.711,106.525 516.638,106.394C511.814,98.104 506.517,89.524 505.372,89.799C502.898,90.394 509.601,102.012 509.738,101.661C507.753,102.547 501.25,88.745 499.051,91.524C498.257,92.516 506.074,103.417 504.837,103.737C503.601,104.058 498.074,93.89 496.868,94.73C495.418,95.738 501.25,104.073 501.982,106.241C502.715,108.409 497.204,101.463 496.334,103.066C495.464,104.669 507.845,123.645 511.127,126.912L511.066,126.897Z" fill="#FFC56B"/>
<path d="M600.131,137.05C600.131,137.05 596.376,130.225 588.62,136.805C580.865,143.385 559.949,175.11 559.949,175.11L580.391,210.834L600.131,137.05Z" fill="#FFC56B"/>
<g style="mix-blend-mode:multiply">
<path d="M552.516,211.184L596.194,138.759C596.194,138.759 595.369,175.659 593.324,182.681C585.721,208.94 552.516,211.184 552.516,211.184Z" fill="#FFF8ED"/>
</g>
<path d="M517.829,90.104L507.86,90.104C507.146,90.103 506.442,89.941 505.8,89.628C505.158,89.316 504.595,88.862 504.154,88.3C503.713,87.739 503.405,87.084 503.254,86.386C503.102,85.689 503.111,84.966 503.28,84.272L508.975,61.021C509.178,60.152 509.668,59.378 510.367,58.824C511.065,58.27 511.93,57.968 512.822,57.967L512.822,57.967C513.713,57.968 514.579,58.27 515.277,58.824C515.975,59.378 516.466,60.152 516.669,61.021L522.409,84.348C522.565,85.037 522.563,85.751 522.406,86.439C522.248,87.128 521.938,87.771 521.499,88.324C521.059,88.876 520.501,89.323 519.866,89.631C519.231,89.939 518.535,90.101 517.829,90.104L517.829,90.104Z" fill="#FFC56B"/>
<line x1="512.617" y1="74.579" x2="512.617" y2="107.463" stroke="#020C2B" stroke-width="0.77" stroke-miterlimit="10" stroke-linecap="round"/>
<path d="M513.738,116.99C510.929,116.99 508.715,115.173 508.883,113.021L511.158,95.846L516.333,95.846L518.547,113.021C518.776,115.173 516.547,116.99 513.738,116.99Z" fill="#020C2B" stroke="#020C2B" stroke-width="0.66" stroke-miterlimit="10"/>
<path d="M614.315,128.196L600.804,82.824C600.423,72.045 601.919,66.961 604.361,64.32C611.048,57.099 616.086,55.16 625.292,56.794C666.146,64.259 663.261,90.258 646.513,102.594C636.895,109.602 614.315,128.196 614.315,128.196Z" fill="#FF616B"/>
<path d="M633.551,90.319C633.568,90.425 633.607,90.526 633.667,90.615C633.726,90.704 633.804,90.78 633.896,90.836C633.987,90.893 634.089,90.929 634.196,90.942C634.302,90.956 634.41,90.946 634.513,90.914C636.329,90.334 640.787,89.494 642.589,94.334C644.39,99.173 638.513,105.326 635.245,103.28C634.528,102.837 633.81,104.196 633.413,104.975C629.759,112.551 627.096,120.565 625.49,128.822C623.963,136.211 626.101,145.829 626.101,145.829C626.101,145.829 607.781,143.936 597.903,140.378C597.903,140.378 605.109,117.249 607.689,110.639C604.895,109.265 592.498,109.952 596.01,88.853C599.216,69.556 609.75,67.205 613.109,66.808C615.902,66.457 628.696,67.266 633.551,90.319Z" fill="#FF937E"/>
<path d="M612.59,112.363C612.125,112.816 611.547,113.136 610.917,113.292C610.286,113.447 609.626,113.431 609.004,113.246C608.381,113.061 607.82,112.713 607.377,112.239C606.934,111.764 606.625,111.18 606.483,110.546L614.483,110.546L612.575,112.363Z" fill="#1E2046"/>
<path d="M634.467,97.034C636.574,90.194 641.23,95.248 641.23,95.248Z" fill="#D86859"/>
<path d="M615.292,91.233C614.286,91.2 613.293,91.467 612.438,91.999C611.584,92.531 610.907,93.305 610.492,94.222C610.078,95.14 609.946,96.16 610.112,97.152C610.277,98.145 610.734,99.066 611.424,99.799C612.114,100.532 613.007,101.044 613.988,101.269C614.969,101.494 615.994,101.424 616.935,101.065C617.876,100.707 618.689,100.078 619.272,99.257C619.854,98.436 620.18,97.461 620.208,96.454C620.245,95.111 619.748,93.808 618.827,92.829C617.906,91.851 616.635,91.277 615.292,91.233Z" fill="#FF8169"/>
<path d="M595.491,96.393C596.641,96.193 597.687,95.602 598.452,94.721C599.217,93.839 599.654,92.72 599.689,91.553C599.689,89.66 598.025,88.027 596.514,87.111C596.514,87.111 594.651,92.637 595.491,96.393Z" fill="#FF8169"/>
<path d="M598.621,93.509L607.018,95.555C607.018,95.555 603.964,99.066 601.613,98.058C599.262,97.051 598.621,93.509 598.621,93.509Z" fill="#FFFFFF"/>
<path d="M613.704,83.799C614.513,84.624 613.628,81.448 612.422,80.883C611.215,80.319 609.368,80.028 609.124,81.112C608.88,82.196 611.765,81.83 613.704,83.799Z" fill="#000000"/>
<path d="M598.117,79.952C597.064,80.44 599.033,77.784 600.361,77.692C601.689,77.6 603.415,78.104 602.941,79.57C602.514,80.73 600.636,78.807 598.117,79.952Z" fill="#000000"/>
<path d="M608.896,88.76C608.667,89.737 608.102,90.424 607.644,90.287C607.186,90.149 606.972,89.31 607.186,88.333C607.4,87.356 607.98,86.669 608.453,86.806C608.926,86.943 609.125,87.783 608.896,88.76Z" fill="#000000"/>
<path d="M601.339,87.082C601.125,88.013 600.591,88.609 600.133,88.609C599.675,88.609 599.491,87.662 599.705,86.731C599.919,85.8 600.468,85.204 600.911,85.204C601.354,85.204 601.552,86.151 601.339,87.082Z" fill="#000000"/>
<path d="M645.475,75.908C648.681,80.259 634.788,66.488 632.819,68.518C636.284,69.389 634.803,82.686 634.803,82.686C624.452,86.9 625.475,71.831 625.796,69.999C602.071,87.159 603.552,65.526 606.148,58.519C610.987,45.389 633.78,50.198 644.574,60.29C648.681,64.137 641.658,70.747 645.475,75.908Z" fill="#FF616B"/>
<path d="M603.018,91.981L599.873,91.309C601.001,89.739 602.23,88.245 603.552,86.836L603.018,91.981Z" fill="#D86859"/>
<path d="M641.123,133.206C635.535,132.308 630.052,130.851 624.757,128.854C624.421,129.541 612.238,139.541 605.444,137.557C603.918,137.179 602.574,136.272 601.652,134.998C600.729,133.723 600.288,132.164 600.406,130.595C600.91,131.908 579.033,158.426 576.468,171.143C574.056,183.174 580.544,220.944 580.544,225.661L641.611,225.661C641.611,225.661 646.451,149.358 641.123,133.206Z" fill="#FFC56B"/>
<g style="mix-blend-mode:multiply">
<path d="M652.893,149.004L592.498,227.323L639.611,228.223C639.611,228.223 653.26,165.462 652.893,149.004Z" fill="#FFF8ED"/>
</g>
<path d="M674.878,199.644C693.381,193.11 713.366,193.705 725.915,190.484C734.938,184.118 733.961,185.385 741.06,181.217C741.06,181.217 748.693,176.133 747.991,179.614C747.869,180.331 739.838,188.499 740.602,188.438C741.365,188.377 762.464,186.072 762.693,188.056C762.922,190.041 749.563,190.117 749.685,191.11C749.808,192.102 763.227,190.362 763.945,191.98C764.662,193.598 750.922,195.033 751.517,195.644C752.113,196.255 764.479,194.27 764.891,195.644C765.303,197.018 751.868,198.697 751.701,199.354C751.533,200.01 763.914,198.041 765.074,199.354C765.96,200.285 754.097,202.041 750.662,203.491C743.526,206.526 736.153,208.972 728.617,210.804C723.503,214.01 671.397,235.552 648.772,231.033C648.772,231.033 644.955,225.46 643.215,210.835L674.878,199.644Z" fill="#FF937E"/>
<path d="M765.075,199.291C763.884,198.039 751.518,200.039 751.701,199.291C751.884,198.543 765.304,196.879 764.892,195.581C764.479,194.283 752.098,196.268 751.518,195.581C750.938,194.894 764.647,193.535 763.945,191.917C763.243,190.299 749.793,192.039 749.686,191.047C749.579,190.054 762.938,189.978 762.693,187.993C762.449,186.009 741.32,188.314 740.602,188.375C739.885,188.436 747.869,180.268 747.991,179.551C748.617,176.07 741.06,181.154 741.06,181.154C733.961,185.322 734.953,184.055 725.916,190.421C722.771,191.215 717.977,188.757 714.038,189.245C714.801,196.97 715.931,211.52 717.168,219.184C722.526,217 727.412,211.367 728.618,210.619C736.129,208.823 743.481,206.418 750.602,203.428C754.098,201.978 765.96,200.222 765.075,199.291Z" fill="#FFC56B"/>
<path d="M676.97,199.811L641.994,212.865C641.994,212.865 612.468,138.958 635.353,133.309C658.238,127.661 676.97,199.811 676.97,199.811Z" fill="#FFC56B"/>
<path d="M573.98,150.68C574.633,154.735 576.263,158.571 578.728,161.856C580.576,164.314 583.064,166.649 586.362,165.565C587.919,164.936 589.332,163.996 590.514,162.802C592.301,161.275 594.041,159.55 595.751,157.886C597.461,156.222 598.804,154.833 600.331,153.306C601.821,151.53 603.506,149.927 605.354,148.528C609.613,145.81 614.666,148.238 617.979,151.291C621.033,154.07 623.307,157.55 626.59,160.054C627.895,161.182 629.424,162.022 631.076,162.516C632.729,163.011 634.467,163.15 636.177,162.924C639.475,162.268 641.841,159.749 643.704,157.108C648.528,150.238 652.65,141.597 661.78,139.917C662.528,139.78 662.207,138.635 661.459,138.772C654.894,139.978 650.269,145.093 646.65,150.36C644.635,153.306 643.032,156.634 640.544,159.169C637.246,162.436 632.91,162.527 629.017,160.237C622.498,156.405 619.399,147.902 611.445,146.345C609.956,146.057 608.419,146.134 606.965,146.567C605.511,147 604.184,147.777 603.094,148.833C600.041,151.566 597.4,154.726 594.468,157.566C592.698,159.26 590.942,160.985 589.064,162.573C586.606,164.649 583.95,165.535 581.431,163.046C578.116,159.568 575.98,155.135 575.324,150.375C575.187,149.627 574.042,149.947 574.179,150.696L573.98,150.68Z" fill="#1E2046"/>
<path d="M563.966,162.678C565.89,167.722 568.208,172.608 570.897,177.289C573.232,181.648 576.116,185.691 579.477,189.319C580.935,190.948 582.705,192.268 584.683,193.201C586.66,194.135 588.804,194.663 590.988,194.754C595.812,194.754 600.148,192.25 603.919,189.395C605.666,187.852 607.625,186.567 609.736,185.578C611.179,185.095 612.712,184.936 614.224,185.113C615.736,185.29 617.19,185.798 618.484,186.601C622.942,189.044 625.98,193.212 629.842,196.433C633.094,199.135 636.941,201.12 641.292,200.479C645.872,199.807 649.811,196.754 653.139,193.716C655.261,191.777 657.227,189.674 659.017,187.426C660.672,184.96 662.503,182.618 664.498,180.418C669.078,176.113 675.52,176.754 681.291,177.472C682.055,177.563 682.039,176.373 681.291,176.281C676.833,175.731 672.009,175.197 667.734,176.953C663.46,178.708 661.292,182.632 658.574,186.113C655.358,190.461 651.381,194.191 646.834,197.12C644.703,198.576 642.175,199.337 639.594,199.299C637.014,199.261 634.509,198.425 632.422,196.906C625.888,192.326 619.965,181.792 610.575,184.082C606.179,185.151 602.942,189.075 599.125,191.197C594.316,193.838 588.897,194.494 584.088,191.517C579.278,188.54 576.042,183.456 573.172,178.754C570.007,173.547 567.319,168.064 565.141,162.373C564.867,161.655 563.722,161.961 563.996,162.678L563.966,162.678Z" fill="#1E2046"/>
<path d="M641.123,226.636C643.902,227.262 658.634,245.597 664.649,275.047C666.817,285.734 674.756,328.343 689.076,376.617C709.289,445.043 722.663,525.835 724.342,553.009C716.938,554.949 694.114,556.185 689.427,555.895C678.481,520.887 632.94,386.327 612.834,320.573C612.645,319.871 612.202,319.265 611.591,318.872C610.98,318.478 610.245,318.326 609.528,318.444C608.811,318.561 608.164,318.941 607.711,319.51C607.258,320.078 607.033,320.794 607.078,321.519C606.437,390.54 614.33,538.079 611.124,556.077C607.231,558.215 580.514,557.223 576.01,556.613C571.14,499.545 533.263,259.383 582.407,224.163C606.956,223.644 623.795,222.713 641.123,226.636Z" fill="#8064A2"/>
<path d="M566.79,269.855L566.324,269.739L566.324,269.739L566.79,269.855ZM585.721,224.68C585.598,224.216 585.597,224.216 585.596,224.217C585.595,224.217 585.594,224.217 585.593,224.217C585.592,224.218 585.59,224.218 585.588,224.219C585.584,224.22 585.58,224.221 585.575,224.223C585.566,224.225 585.555,224.229 585.541,224.234C585.515,224.243 585.481,224.255 585.439,224.273C585.356,224.308 585.243,224.362 585.102,224.444C584.821,224.608 584.427,224.884 583.932,225.344C582.944,226.263 581.548,227.922 579.83,230.912C576.395,236.889 571.65,248.231 566.324,269.739L567.256,269.97C572.571,248.502 577.291,237.257 580.662,231.391C582.347,228.459 583.687,226.883 584.586,226.047C585.035,225.629 585.372,225.398 585.585,225.273C585.692,225.211 585.768,225.176 585.811,225.158C585.833,225.149 585.846,225.144 585.852,225.142C585.855,225.141 585.855,225.141 585.854,225.141C585.853,225.141 585.852,225.142 585.85,225.142C585.85,225.143 585.849,225.143 585.848,225.143C585.847,225.143 585.846,225.144 585.846,225.144C585.845,225.144 585.844,225.144 585.721,224.68ZM566.324,269.739C563.142,282.593 562.366,306.994 562.975,336.297C563.584,365.624 565.583,399.926 567.977,432.624C570.372,465.324 573.162,496.424 575.353,519.35C576.448,530.812 577.394,540.232 578.066,546.786C578.403,550.062 578.67,552.622 578.854,554.364C578.945,555.236 579.016,555.9 579.064,556.35C579.088,556.574 579.106,556.744 579.118,556.856C579.125,556.914 579.129,556.956 579.132,556.986C579.134,557 579.135,557.01 579.136,557.018C579.136,557.022 579.136,557.024 579.137,557.026C579.137,557.028 579.137,557.028 579.614,556.976C580.091,556.926 580.091,556.924 580.091,556.922C580.091,556.92 580.091,556.918 580.09,556.914C580.089,556.908 580.088,556.896 580.087,556.882C580.084,556.854 580.079,556.812 580.073,556.754C580.061,556.64 580.043,556.472 580.019,556.248C579.971,555.8 579.9,555.134 579.808,554.264C579.625,552.524 579.357,549.964 579.021,546.688C578.35,540.136 577.404,530.718 576.308,519.258C574.118,496.338 571.328,465.244 568.935,432.554C566.541,399.863 564.543,365.58 563.934,336.277C563.325,306.952 564.11,282.68 567.256,269.97L566.324,269.739Z" fill="#FFFFFF"/>
<path d="M679.29,375.639L679.754,375.515L679.754,375.515L679.29,375.639ZM635.765,224.101C635.32,224.281 635.32,224.281 635.32,224.281C635.32,224.281 635.32,224.281 635.32,224.281C635.32,224.282 635.32,224.282 635.321,224.284C635.322,224.286 635.323,224.29 635.325,224.295C635.329,224.305 635.336,224.321 635.344,224.343C635.362,224.387 635.388,224.455 635.424,224.549C635.497,224.738 635.608,225.034 635.762,225.457C636.07,226.304 636.55,227.661 637.235,229.696C638.605,233.766 640.794,240.546 644.066,251.38C650.612,273.048 661.492,310.928 678.827,375.763L679.754,375.515C662.418,310.674 651.535,272.784 644.985,251.102C641.711,240.261 639.519,233.471 638.145,229.39C637.458,227.349 636.975,225.984 636.664,225.129C636.508,224.701 636.395,224.401 636.321,224.206C636.284,224.109 636.256,224.038 636.238,223.992C636.229,223.968 636.222,223.951 636.217,223.939C636.215,223.933 636.213,223.929 636.212,223.926C636.211,223.924 636.211,223.923 636.21,223.922C636.21,223.922 636.21,223.921 636.21,223.921C636.21,223.921 636.21,223.92 635.765,224.101ZM678.826,375.762C691.037,421.554 704.18,476.201 721.294,554.013L722.231,553.807C705.116,475.987 691.97,421.325 679.754,375.515L678.826,375.762Z" fill="#FFFFFF"/>
<path d="M574.163,557.695C573.797,557.328 572.713,542.581 572.713,542.581L613.765,544.367L611.964,558.412L574.163,557.695Z" fill="#B5E8D3"/>
<path d="M684.328,544.017L688.649,557.329L725.732,554.459L725.014,540.047L684.328,544.017Z" fill="#B5E8D3"/>
<g opacity="0.28" style="mix-blend-mode:multiply">
<path d="M582.408,223.552L662.483,268.36C662.483,268.36 659.429,244.864 638.529,223.521L582.408,223.552Z" fill="#8CD1B5"/>
</g>
<path d="M642.834,222.011L577.691,222.011L577.691,231.247L642.834,231.247L642.834,222.011Z" transform="rotate(360 610.262 226.629)" fill="#8CD1B5"/>
<path d="M456.854,169.981C451.919,165.007 448.192,158.967 445.958,152.327C443.724,145.686 443.043,138.621 443.968,131.676C445.953,131.371 447.694,132.928 449.068,134.409C453.76,139.136 457.539,144.69 460.212,150.79C462.882,156.957 463.155,163.898 460.976,170.255Z" fill="#8CD1B5"/>
<path d="M457.785,170.103C454.146,165.752 449.614,162.233 444.496,159.786C439.378,157.339 433.794,156.021 428.122,155.92C430.95,161.386 435.339,165.887 440.732,168.851C443.43,170.303 446.405,171.165 449.46,171.381C452.516,171.597 455.582,171.161 458.457,170.103Z" fill="#8CD1B5"/>
<path d="M482.075,172.379C480.642,163.886 480.834,155.198 482.639,146.777C484.47,138.319 488.825,130.615 495.128,124.686C495.382,124.384 495.701,124.143 496.06,123.979C496.419,123.816 496.809,123.734 497.204,123.739C499.5,133.459 499.29,143.603 496.593,153.219C494.654,160.059 491.235,166.822 485.357,170.807Z" fill="#8CD1B5"/>
<path d="M512.028,164.699C510.761,170.274 511.219,176.102 513.34,181.41C515.461,186.719 519.146,191.257 523.906,194.424C525.916,191.932 527.222,188.946 527.686,185.777C528.151,182.609 527.757,179.374 526.547,176.409C525.283,173.467 523.445,170.807 521.141,168.584C518.837,166.361 516.113,164.62 513.127,163.463Z" fill="#8CD1B5"/>
<path d="M471.295,138.258C461.54,132.303 452.472,124.838 446.212,115.266C439.953,105.693 436.686,93.892 438.93,82.595C453.934,90.168 465.423,103.255 470.99,119.113C473.036,125.052 474.135,131.876 471.189,137.433Z" fill="#8CD1B5"/>
<path d="M487.845,170.668C492.425,165.431 498.532,158.897 506.166,161.294C514.15,163.782 517.249,172.454 519.356,179.614C519.441,179.858 519.616,180.061 519.845,180.182C520.074,180.303 520.34,180.332 520.59,180.264C520.839,180.196 521.054,180.037 521.191,179.817C521.327,179.597 521.375,179.334 521.325,179.08C518.99,171.08 515.463,161.966 506.715,159.233C498.257,156.592 491.448,163.294 486.349,169.126C485.494,170.118 486.929,171.568 487.799,170.576L487.845,170.668Z" fill="#5BC29C"/>
<path d="M471.22,169.994C478.99,145.842 466.945,121.858 455.877,100.943C455.251,99.782 453.495,100.805 454.106,101.966C464.914,122.408 476.838,145.842 469.25,169.46C468.838,170.712 470.777,171.246 471.22,169.994Z" fill="#5BC29C"/>
<path d="M486.944,237.018L460.64,237.018C457.531,237.02 454.452,236.41 451.579,235.222C448.707,234.033 446.096,232.29 443.897,230.093C441.698,227.895 439.954,225.286 438.764,222.414C437.574,219.542 436.961,216.464 436.961,213.355L448.106,168.669L497.708,168.669L510.623,213.355C510.623,216.464 510.011,219.542 508.821,222.414C507.63,225.286 505.886,227.895 503.687,230.093C501.488,232.29 498.878,234.033 496.005,235.222C493.132,236.41 490.053,237.02 486.944,237.018L486.944,237.018Z" fill="#0096C8"/>
<path d="M455.19,180.928C455.543,180.892 455.87,180.725 456.108,180.462C456.345,180.198 456.477,179.856 456.477,179.501C456.477,179.146 456.345,178.803 456.108,178.54C455.87,178.276 455.543,178.11 455.19,178.073C454.836,178.11 454.509,178.276 454.272,178.54C454.034,178.803 453.902,179.146 453.902,179.501C453.902,179.856 454.034,180.198 454.272,180.462C454.509,180.725 454.836,180.892 455.19,180.928L455.19,180.928Z" fill="#FCFCFC"/>
<path d="M472.395,195.094C472.748,195.058 473.075,194.891 473.313,194.628C473.55,194.364 473.682,194.022 473.682,193.667C473.682,193.312 473.55,192.969 473.313,192.706C473.075,192.442 472.748,192.276 472.395,192.239C472.042,192.276 471.715,192.442 471.477,192.706C471.239,192.969 471.107,193.312 471.107,193.667C471.107,194.022 471.239,194.364 471.477,194.628C471.715,194.891 472.042,195.058 472.395,195.094L472.395,195.094Z" fill="#FCFCFC"/>
<path d="M450.625,211.811C450.978,211.775 451.305,211.609 451.543,211.345C451.781,211.081 451.912,210.739 451.912,210.384C451.912,210.029 451.781,209.687 451.543,209.423C451.305,209.159 450.978,208.993 450.625,208.957C450.272,208.993 449.945,209.159 449.707,209.423C449.469,209.687 449.338,210.029 449.338,210.384C449.338,210.739 449.469,211.081 449.707,211.345C449.945,211.609 450.272,211.775 450.625,211.811L450.625,211.811Z" fill="#FCFCFC"/>
<path d="M493.662,180.928C494.015,180.892 494.342,180.725 494.58,180.462C494.818,180.198 494.95,179.856 494.95,179.501C494.95,179.146 494.818,178.803 494.58,178.54C494.342,178.276 494.015,178.11 493.662,178.073C493.309,178.11 492.982,178.276 492.744,178.54C492.507,178.803 492.375,179.146 492.375,179.501C492.375,179.856 492.507,180.198 492.744,180.462C492.982,180.725 493.309,180.892 493.662,180.928L493.662,180.928Z" fill="#FCFCFC"/>
<path d="M498.699,210.79C499.052,210.754 499.38,210.588 499.617,210.324C499.855,210.06 499.987,209.718 499.987,209.363C499.987,209.008 499.855,208.666 499.617,208.402C499.38,208.138 499.052,207.972 498.699,207.936C498.346,207.972 498.019,208.138 497.781,208.402C497.544,208.666 497.412,209.008 497.412,209.363C497.412,209.718 497.544,210.06 497.781,210.324C498.019,210.588 498.346,210.754 498.699,210.79L498.699,210.79Z" fill="#FCFCFC"/>
<path d="M474.93,230.041C475.283,230.004 475.61,229.838 475.848,229.575C476.085,229.311 476.217,228.968 476.217,228.613C476.217,228.258 476.085,227.916 475.848,227.652C475.61,227.389 475.283,227.223 474.93,227.186C474.577,227.223 474.25,227.389 474.012,227.652C473.774,227.916 473.643,228.258 473.643,228.613C473.643,228.968 473.774,229.311 474.012,229.575C474.25,229.838 474.577,230.004 474.93,230.041L474.93,230.041Z" fill="#FCFCFC"/>
<path d="M442.839,193.798C451.541,195.019 457.281,202.103 460.823,209.614C464.365,217.125 467.571,227.507 461.006,234.438C460.274,235.201 461.434,236.362 462.167,235.598C468.976,228.408 466.35,218.026 462.777,209.981C459.098,201.675 452.854,193.569 443.282,192.225C442.244,192.088 441.755,193.66 442.839,193.752L442.839,193.798Z" fill="#FCFCFC"/>
<path d="M474.715,169.842C474.435,174.366 475.062,178.9 476.559,183.178C478.056,187.456 480.393,191.392 483.432,194.754C486.471,198.116 490.152,200.837 494.258,202.757C498.364,204.676 502.812,205.756 507.341,205.933C508.394,205.933 508.394,204.406 507.341,204.299C503.026,204.125 498.79,203.089 494.882,201.252C490.974,199.415 487.473,196.814 484.586,193.603C481.699,190.391 479.484,186.634 478.072,182.554C476.66,178.473 476.079,174.151 476.364,169.842C476.364,168.788 474.838,168.788 474.715,169.842Z" fill="#FCFCFC"/>
<path d="M528.028,237.199L419.16,237.199L419.16,250.267L528.028,250.267L528.028,237.199Z" fill="#A94846"/>
<path d="M425.985,250.914L543.57,594.952L547.355,593.658L429.77,249.621L425.985,250.914Z" fill="#A94846"/>
<path d="M515.264,249.621L397.68,593.658L401.465,594.952L519.049,250.914L515.264,249.621Z" fill="#A94846"/>
<path d="M1103.131,553.436L1100.978,592.717L1059.62,596.305L1078.108,578.321L1073.238,553.039L1103.131,553.436Z" fill="#FF937E"/>
<path d="M1097.801,554.367L1095.618,589.786L1102.137,578.901L1102.58,556.184L1097.801,554.367Z" fill="#E0603D"/>
<path d="M1067.1,586.87L1057.68,595.404C1056.642,596.198 1057.375,597.527 1058.84,597.542C1058.84,597.542 1107.694,597.282 1107.694,596.626C1108.091,592.55 1103.282,578.229 1102.58,574.519C1102.488,573.985 1078.046,595.649 1074.641,594.366C1072.382,593.603 1067.787,586.336 1067.1,586.87Z" fill="#45A2B9"/>
<path d="M1082.245,57.648C1082.245,57.648 1078.78,68.839 1075.299,84.258C1073.864,90.67 1064.444,90.792 1060.658,100.074C1057.177,108.548 1058.337,118.196 1057.177,123.585C1053.421,141.127 1040.216,124.746 1040.979,135.539C1041.742,146.333 1137.389,209.537 1171.785,147.493C1171.785,147.493 1172.93,135.921 1156.747,125.906C1140.564,115.891 1140.931,118.196 1141.709,105.845C1142.488,93.494 1145.556,94.288 1132.442,79.632C1124.671,70.946 1127.053,59.969 1118.565,56.885C1110.076,53.801 1082.245,57.648 1082.245,57.648Z" fill="#FFC56B"/>
<path d="M1081.054,99.754C1081.054,99.754 1090.412,114.181 1087.252,139.02C1087.252,139.02 1093.817,193.767 1120.961,135.967L1109.664,105.845L1081.054,99.754Z" fill="#FF937E"/>
<path d="M1111.955,106.364C1111.466,112.211 1105.237,122.379 1099.741,122.256C1093.1,122.088 1086.688,114.928 1086.505,104.654C1086.505,100.593 1097.36,100.257 1102.795,100.715C1108.229,101.173 1112.443,100.532 1111.955,106.364Z" fill="#1E2046"/>
<path d="M1124.168,95.035L1116.87,94.165L1117.832,86.027L1125.129,86.898C1125.666,86.962 1126.185,87.131 1126.656,87.397C1127.127,87.662 1127.541,88.017 1127.874,88.443C1128.207,88.868 1128.454,89.355 1128.598,89.876C1128.743,90.397 1128.783,90.941 1128.717,91.478L1128.717,91.478C1128.583,92.552 1128.03,93.529 1127.177,94.196C1126.324,94.863 1125.242,95.164 1124.168,95.035L1124.168,95.035Z" fill="#FF937E"/>
<path d="M1076.428,87.051L1083.771,86.959L1083.878,95.142L1076.535,95.249C1075.448,95.261 1074.401,94.842 1073.623,94.084C1072.844,93.326 1072.398,92.29 1072.382,91.203L1072.382,91.203C1072.37,90.117 1072.789,89.069 1073.547,88.291C1074.305,87.513 1075.341,87.067 1076.428,87.051L1076.428,87.051Z" fill="#FF937E"/>
<path d="M1076.169,89.236L1079.222,89.236L1079.222,92.626L1076.169,92.626C1075.718,92.63 1075.283,92.456 1074.96,92.141C1074.637,91.827 1074.451,91.397 1074.443,90.946L1074.443,90.946C1074.443,90.72 1074.488,90.497 1074.575,90.288C1074.662,90.08 1074.789,89.891 1074.95,89.732C1075.11,89.573 1075.3,89.447 1075.509,89.362C1075.719,89.277 1075.943,89.234 1076.169,89.236L1076.169,89.236Z" fill="#D9634C"/>
<path d="M1124.962,89.234L1121.908,88.822L1121.45,92.166L1124.504,92.578C1124.73,92.608 1124.96,92.591 1125.18,92.53C1125.399,92.469 1125.605,92.364 1125.783,92.221C1125.961,92.078 1126.109,91.901 1126.217,91.7C1126.325,91.499 1126.391,91.279 1126.412,91.051C1126.451,90.62 1126.322,90.19 1126.052,89.851C1125.782,89.513 1125.391,89.292 1124.962,89.234L1124.962,89.234Z" fill="#D9634C"/>
<path d="M1103.618,59.327C1117.633,61.022 1125.435,73.831 1123.725,87.845L1123.587,88.914C1121.297,103.937 1108.885,116.028 1097.634,115.02C1086.382,114.013 1076.26,96.7 1077.924,82.67L1078.062,81.601C1079.756,67.556 1089.603,57.632 1103.618,59.327Z" fill="#FF937E"/>
<path d="M1099.527,104.194L1098.718,104.194C1097.335,104.15 1096.027,103.56 1095.08,102.552C1094.132,101.545 1093.623,100.203 1093.664,98.82L1093.664,98.82L1104.901,99.156C1104.879,99.84 1104.723,100.513 1104.441,101.136C1104.159,101.759 1103.757,102.321 1103.258,102.789C1102.759,103.257 1102.172,103.622 1101.532,103.863C1100.892,104.104 1100.211,104.217 1099.527,104.194Z" fill="#FFFFFF"/>
<path d="M1106.977,92.41C1106.977,93.494 1106.381,94.364 1105.694,94.349C1105.007,94.334 1104.458,93.448 1104.473,92.364C1104.488,91.281 1105.068,90.395 1105.755,90.41C1106.442,90.426 1106.992,91.311 1106.977,92.41Z" fill="#1E2046"/>
<path d="M1096.184,92.18C1096.184,93.279 1095.588,94.15 1094.901,94.134C1094.214,94.119 1093.665,93.234 1093.68,92.134C1093.695,91.035 1094.275,90.18 1094.962,90.196C1095.649,90.211 1096.199,91.096 1096.184,92.18Z" fill="#1E2046"/>
<path d="M1100.962,97.066L1098.504,97.066C1098.199,97.066 1098,96.578 1098.122,96.15L1099.558,91.188C1099.695,90.7 1100.122,90.669 1100.29,91.188L1101.283,96.15C1101.558,96.562 1101.283,97.066 1100.962,97.066Z" fill="#D9634C"/>
<path d="M1091.39,96.976C1091.302,96.399 1091.044,95.862 1090.65,95.432C1090.256,95.003 1089.744,94.699 1089.177,94.561C1088.611,94.422 1088.016,94.455 1087.468,94.655C1086.921,94.855 1086.444,95.212 1086.1,95.683C1085.756,96.153 1085.559,96.716 1085.534,97.298C1085.509,97.881 1085.658,98.457 1085.961,98.955C1086.264,99.453 1086.708,99.85 1087.237,100.096C1087.766,100.341 1088.356,100.424 1088.932,100.334C1089.699,100.207 1090.386,99.784 1090.846,99.156C1091.305,98.528 1091.5,97.746 1091.39,96.976L1091.39,96.976Z" fill="#FF7C6B"/>
<path d="M1114.778,98.088C1114.732,97.694 1114.607,97.314 1114.41,96.969C1114.213,96.625 1113.949,96.323 1113.633,96.084C1113.317,95.844 1112.955,95.67 1112.571,95.573C1112.186,95.477 1111.785,95.459 1111.393,95.52C1111.001,95.582 1110.626,95.722 1110.29,95.933C1109.953,96.143 1109.663,96.419 1109.436,96.745C1109.208,97.07 1109.049,97.438 1108.968,97.826C1108.887,98.214 1108.884,98.615 1108.962,99.004C1109.11,99.751 1109.541,100.411 1110.165,100.847C1110.79,101.283 1111.558,101.46 1112.31,101.341C1113.062,101.223 1113.739,100.818 1114.199,100.212C1114.659,99.605 1114.867,98.844 1114.778,98.088L1114.778,98.088Z" fill="#FF7C6B"/>
<path d="M1110.015,87.248C1110.946,88.042 1109.725,84.759 1108.397,84.195C1108.11,84.061 1107.8,83.986 1107.484,83.973C1107.169,83.96 1106.853,84.009 1106.557,84.118C1106.26,84.228 1105.988,84.395 1105.756,84.609C1105.525,84.824 1105.338,85.083 1105.206,85.37C1106.981,85.408 1108.684,86.073 1110.015,87.248L1110.015,87.248Z" fill="#1E2046"/>
<path d="M1090.657,85.157C1089.603,85.768 1091.435,82.775 1092.824,82.546C1093.444,82.394 1094.098,82.493 1094.645,82.822C1095.191,83.151 1095.585,83.683 1095.74,84.302C1093.998,83.989 1092.201,84.291 1090.657,85.157L1090.657,85.157Z" fill="#1E2046"/>
<path d="M1077.65,86.638C1077.65,86.638 1091.391,73.142 1092.276,68.638C1092.276,68.638 1089.955,79.63 1111.94,74.623C1118.688,73.096 1114.993,91.294 1123.771,86.577C1123.771,86.577 1138.55,51.188 1099.345,49.936C1078.353,49.356 1075.131,66.333 1077.65,86.638Z" fill="#FFC56B"/>
<path d="M1120.441,174.894C1143.235,172.665 1172.883,164.085 1185.768,154.33C1200.833,142.811 1212.381,127.313 1219.111,109.583L1241.69,50.76C1241.69,50.76 1260.926,17.707 1259.751,16.547C1257.827,14.639 1252.423,23.066 1250.026,27.035C1250.016,27.055 1250.002,27.073 1249.985,27.088C1249.968,27.103 1249.948,27.114 1249.927,27.121C1249.906,27.128 1249.884,27.131 1249.861,27.129C1249.839,27.128 1249.817,27.122 1249.797,27.112C1249.777,27.102 1249.759,27.088 1249.744,27.071C1249.73,27.054 1249.718,27.034 1249.711,27.013C1249.704,26.992 1249.701,26.969 1249.703,26.947C1249.705,26.925 1249.711,26.903 1249.721,26.883L1255.064,13.356C1256.774,9.769 1254.377,10.303 1254.087,10.776L1245.064,25.722C1245.044,25.759 1245.01,25.788 1244.97,25.801C1244.93,25.814 1244.887,25.812 1244.848,25.795C1244.809,25.777 1244.779,25.746 1244.762,25.707C1244.746,25.669 1244.745,25.625 1244.759,25.585L1250.423,7.402C1251.171,4.135 1248.759,5.357 1248.53,5.876L1240.118,22.669C1240.011,22.852 1239.721,22.669 1239.782,22.547C1241.156,18.394 1244.27,10.074 1243.995,6.731C1243.797,4.303 1242.591,5.83 1242.179,6.227C1240.255,8.074 1230.087,33.066 1230.087,33.066C1230.087,33.066 1226.088,19.219 1224.286,21.432C1223.126,22.868 1225.538,30.73 1225.233,38.44C1225.034,43.401 1226.485,44.043 1224.378,48.592L1193.539,105.812C1191.095,110.411 1187.913,114.579 1184.119,118.148C1175.89,125.781 1161.112,135.399 1137.449,137.506L1120.441,174.894Z" fill="#FF937E"/>
<path d="M1068.077,178.011C999.041,194.103 962.202,91.159 962.202,91.159L951.759,67.556C951.759,67.556 927.333,38.076 928.355,36.748C929.882,34.565 936.661,42 939.668,45.526C939.806,45.694 940.05,45.526 939.943,45.313L932.462,32.84C930.203,29.572 932.63,29.633 933.012,30.137L944.309,43.358C944.334,43.397 944.372,43.424 944.417,43.434C944.461,43.444 944.507,43.436 944.546,43.412C944.584,43.388 944.612,43.349 944.622,43.305C944.632,43.26 944.624,43.214 944.599,43.175L936.05,26.168C934.768,23.115 937.348,23.878 937.577,24.305L948.615,39.572C948.752,39.74 949.027,39.572 948.92,39.389C946.905,35.526 942.462,27.817 942.187,24.473C942.004,22.046 943.424,23.359 943.897,23.679C946.111,25.206 960.202,48.198 960.202,48.198C960.202,48.198 961.897,33.893 964.034,35.771C965.408,36.992 964.309,45.145 965.881,52.702C966.874,57.572 965.545,58.427 968.37,62.579L988.842,92.914C1005.789,118.868 1037.101,147.707 1081.436,136.471L1085.512,135.829L1068.077,178.011Z" fill="#FF937E"/>
<path d="M960.335,48.234C960.38,48.185 960.377,48.109 960.328,48.064C960.279,48.019 960.204,48.022 960.159,48.071L960.335,48.234ZM958.878,56.148C958.893,56.213 958.957,56.253 959.021,56.239C959.086,56.224 959.127,56.16 959.112,56.095L958.878,56.148ZM960.247,48.152C960.159,48.071 960.159,48.071 960.159,48.071C960.159,48.071 960.158,48.071 960.158,48.071C960.158,48.072 960.158,48.072 960.158,48.072C960.157,48.073 960.157,48.073 960.156,48.074C960.155,48.076 960.153,48.078 960.15,48.081C960.145,48.086 960.138,48.095 960.128,48.106C960.11,48.128 960.083,48.16 960.05,48.203C959.983,48.289 959.89,48.417 959.783,48.586C959.568,48.925 959.295,49.431 959.061,50.105C958.592,51.454 958.278,53.469 958.878,56.148L959.112,56.095C958.522,53.462 958.833,51.492 959.288,50.184C959.515,49.53 959.779,49.04 959.985,48.715C960.088,48.552 960.177,48.431 960.239,48.35C960.27,48.31 960.295,48.281 960.311,48.261C960.32,48.251 960.326,48.244 960.33,48.24C960.332,48.237 960.333,48.236 960.334,48.235C960.335,48.234 960.335,48.234 960.335,48.234C960.335,48.234 960.335,48.233 960.335,48.233C960.335,48.233 960.335,48.233 960.335,48.233C960.335,48.234 960.335,48.234 960.247,48.152Z" fill="#A94846"/>
<path d="M951.07,39.883C951.132,39.859 951.163,39.79 951.139,39.728C951.115,39.666 951.045,39.636 950.983,39.66L951.07,39.883ZM940.711,46.609C940.677,46.666 940.694,46.74 940.751,46.774C940.807,46.809 940.881,46.791 940.916,46.735L940.711,46.609ZM951.027,39.771C950.983,39.66 950.983,39.66 950.983,39.66C950.983,39.66 950.983,39.66 950.983,39.66C950.983,39.66 950.982,39.66 950.982,39.66C950.981,39.661 950.979,39.661 950.977,39.662C950.974,39.664 950.968,39.666 950.96,39.669C950.945,39.675 950.923,39.684 950.894,39.695C950.835,39.719 950.749,39.754 950.639,39.799C950.419,39.891 950.102,40.025 949.715,40.199C948.94,40.547 947.882,41.05 946.75,41.674C944.492,42.918 941.912,44.656 940.711,46.609L940.916,46.735C942.081,44.841 944.608,43.128 946.866,41.884C947.991,41.264 949.042,40.764 949.813,40.418C950.198,40.246 950.513,40.112 950.731,40.021C950.84,39.976 950.925,39.941 950.983,39.918C951.012,39.907 951.034,39.898 951.048,39.892C951.056,39.889 951.061,39.887 951.065,39.885C951.067,39.885 951.068,39.884 951.069,39.884C951.07,39.884 951.07,39.884 951.07,39.883C951.07,39.883 951.07,39.883 951.07,39.883C951.07,39.883 951.07,39.883 951.027,39.771Z" fill="#A94846"/>
<path d="M1081.482,136.424C1065.405,140.774 1048.324,139.48 1033.086,132.76C1027.239,144.134 1013.239,157.187 1007.819,162.148C1020.933,178.728 1047.208,184.255 1067.589,179.507L1086.871,133.202L1081.482,136.424Z" fill="#FF616B"/>
<path d="M1172.67,126.686C1161.927,132.884 1149.925,136.579 1137.556,137.494L1118.305,175.585C1136.839,184.058 1161.937,169.143 1177.143,160.227C1174.502,149.861 1175.296,137.036 1172.67,126.686Z" fill="#FF616B"/>
<path d="M1089.16,135.751C1087.633,136.774 1065.359,170.438 1062.748,182.483C1060.382,193.429 1072.427,229.23 1079.923,244.085C1079.923,244.085 1109.877,251.932 1131.403,246.405C1135.739,229.612 1144.212,167.018 1138.151,136.698C1138.151,136.698 1126.151,134.057 1120.411,133.4C1120.411,133.4 1090.381,156.301 1089.16,135.751Z" fill="#FF937E"/>
<path d="M1087.252,132.453C1085.725,133.476 1062.123,171.063 1059.528,183.108C1057.161,194.055 1064.825,204.894 1064.886,215.749C1064.886,215.749 1123.19,220.13 1144.716,214.589C1149.037,197.795 1144.976,166.223 1138.93,135.919C1138.93,135.919 1125.877,131.461 1120.412,133.4C1120.412,133.4 1092.275,161.765 1087.252,132.453Z" fill="#FF616B"/>
<g opacity="0.5" style="mix-blend-mode:multiply">
<g opacity="0.5" style="mix-blend-mode:multiply">
<path d="M1109.313,217.383C1122.946,217.383 1136.503,216.696 1144.716,214.59C1146.518,207.613 1146.853,198.056 1146.243,187.109C1135.6,199.078 1123.136,209.295 1109.313,217.383L1109.313,217.383Z" fill="#FF616B"/>
</g>
</g>
<path d="M1186.867,553.236L1196.653,592.915L1242.835,596.304L1215.859,576.488L1210.363,553.816L1186.867,553.236Z" fill="#FF937E"/>
<path d="M1197.6,553.529L1197.341,587.94L1193.585,583.605L1185.402,552.018L1197.6,553.529Z" fill="#E0603D"/>
<path d="M1235.737,586.871L1245.172,595.405C1246.195,596.199 1245.462,597.527 1243.996,597.543C1243.996,597.543 1193.616,597.283 1193.509,596.627C1193.112,592.55 1192.303,584.413 1193.005,580.719C1193.112,580.184 1224.791,595.65 1228.119,594.459C1230.47,593.604 1235.05,586.337 1235.737,586.871Z" fill="#45A2B9"/>
<path d="M1132.564,228.468C1135.328,229.093 1151.266,249.841 1157.281,279.382C1159.449,289.993 1167.403,332.679 1181.708,380.937C1201.921,449.363 1215.295,530.169 1216.99,557.345C1209.57,559.283 1186.746,560.505 1182.059,560.229C1171.128,525.223 1125.572,390.662 1105.466,324.908C1105.276,324.209 1104.834,323.605 1104.225,323.212C1103.617,322.819 1102.884,322.666 1102.169,322.782C1101.454,322.898 1100.807,323.274 1100.353,323.839C1099.899,324.403 1099.67,325.116 1099.71,325.839C1099.069,394.876 1106.977,542.413 1103.756,560.413C1099.863,562.551 1073.222,561.557 1068.642,560.947C1063.757,503.865 1025.895,263.719 1075.039,228.498C1099.603,227.979 1115.298,224.544 1132.564,228.468Z" fill="#0096C8"/>
<path d="M1059.405,274.19L1058.939,274.075L1058.939,274.075L1059.405,274.19ZM1078.351,229.016C1078.229,228.551 1078.228,228.552 1078.227,228.552C1078.226,228.552 1078.225,228.552 1078.224,228.553C1078.223,228.553 1078.221,228.554 1078.219,228.554C1078.215,228.555 1078.211,228.556 1078.206,228.558C1078.197,228.561 1078.186,228.564 1078.172,228.569C1078.146,228.578 1078.112,228.59 1078.07,228.608C1077.987,228.643 1077.874,228.696 1077.733,228.778C1077.451,228.942 1077.057,229.217 1076.563,229.677C1075.574,230.595 1074.177,232.253 1072.458,235.242C1069.022,241.217 1064.272,252.559 1058.939,274.075L1059.871,274.306C1065.194,252.83 1069.918,241.585 1073.29,235.72C1074.976,232.79 1076.317,231.215 1077.216,230.38C1077.665,229.963 1078.002,229.732 1078.215,229.609C1078.322,229.547 1078.397,229.512 1078.441,229.493C1078.462,229.484 1078.476,229.48 1078.481,229.478C1078.484,229.477 1078.485,229.477 1078.483,229.477C1078.483,229.477 1078.482,229.478 1078.48,229.478C1078.479,229.478 1078.478,229.478 1078.477,229.479C1078.476,229.479 1078.475,229.479 1078.475,229.479C1078.474,229.48 1078.473,229.48 1078.351,229.016ZM1058.939,274.075C1055.761,286.91 1054.988,311.3 1055.601,340.601C1056.214,369.923 1058.216,404.228 1060.613,436.932C1063.011,469.636 1065.803,500.744 1067.996,523.674C1069.092,535.14 1070.039,544.562 1070.711,551.118C1071.048,554.396 1071.315,556.958 1071.499,558.7C1071.591,559.57 1071.662,560.236 1071.71,560.686C1071.734,560.91 1071.752,561.08 1071.764,561.192C1071.77,561.25 1071.775,561.292 1071.778,561.322C1071.779,561.336 1071.78,561.346 1071.781,561.354C1071.782,561.358 1071.782,561.36 1071.782,561.362C1071.782,561.364 1071.782,561.364 1072.26,561.312C1072.737,561.262 1072.737,561.26 1072.737,561.258C1072.736,561.256 1072.736,561.254 1072.736,561.25C1072.735,561.244 1072.734,561.232 1072.732,561.218C1072.729,561.19 1072.725,561.148 1072.718,561.09C1072.706,560.976 1072.688,560.808 1072.664,560.584C1072.616,560.136 1072.546,559.47 1072.454,558.598C1072.27,556.858 1072.003,554.298 1071.666,551.02C1070.994,544.466 1070.048,535.046 1068.951,523.584C1066.759,500.656 1063.967,469.556 1061.571,436.862C1059.174,404.165 1057.173,369.879 1056.561,340.581C1055.948,311.259 1056.729,286.996 1059.871,274.305L1058.939,274.075Z" fill="#FFFFFF"/>
<path d="M1171.937,379.976L1172.401,379.852L1172.401,379.852L1171.937,379.976ZM1128.396,228.438C1127.952,228.618 1127.952,228.618 1127.952,228.618C1127.952,228.618 1127.952,228.618 1127.952,228.618C1127.952,228.619 1127.952,228.619 1127.953,228.621C1127.954,228.623 1127.955,228.627 1127.957,228.632C1127.961,228.642 1127.968,228.658 1127.976,228.68C1127.993,228.724 1128.02,228.792 1128.056,228.886C1128.128,229.075 1128.24,229.371 1128.394,229.794C1128.702,230.641 1129.182,231.998 1129.867,234.033C1131.237,238.103 1133.426,244.883 1136.7,255.717C1143.248,277.385 1154.131,315.265 1171.474,380.1L1172.401,379.852C1155.057,315.011 1144.171,277.121 1137.619,255.439C1134.343,244.598 1132.151,237.808 1130.777,233.726C1130.09,231.686 1129.607,230.321 1129.296,229.466C1129.14,229.038 1129.027,228.738 1128.953,228.543C1128.916,228.446 1128.888,228.375 1128.87,228.329C1128.86,228.305 1128.854,228.288 1128.849,228.276C1128.847,228.27 1128.845,228.266 1128.843,228.263C1128.843,228.261 1128.842,228.26 1128.842,228.259C1128.842,228.258 1128.842,228.258 1128.842,228.258C1128.841,228.258 1128.841,228.257 1128.396,228.438ZM1171.473,380.099C1183.684,425.891 1196.812,480.538 1213.941,558.35L1214.878,558.144C1197.748,480.324 1184.617,425.662 1172.401,379.852L1171.473,380.099Z" fill="#FFFFFF"/>
<g opacity="0.28" style="mix-blend-mode:multiply">
<path d="M1075.038,227.857L1155.112,272.665C1155.112,272.665 1151.937,249.231 1131.174,227.857L1075.038,227.857Z" fill="#8CD1B5"/>
</g>
<path d="M1149.51,53.341C1151.281,54.486 1151.235,57.722 1149.403,60.577C1147.571,63.432 1144.64,64.836 1142.853,63.63C1141.067,62.424 1141.144,59.249 1142.976,56.394C1144.808,53.539 1147.739,52.287 1149.51,53.341Z" fill="#3F468E"/>
<path d="M1164.456,44.763C1166.242,45.893 1166.181,49.13 1164.349,52C1162.517,54.87 1159.586,56.244 1157.815,55.053C1156.044,53.862 1156.09,50.672 1157.922,47.817C1159.754,44.962 1162.624,43.618 1164.456,44.763Z" fill="#3F468E"/>
<path d="M1149.345,55.288C1149.603,55.674 1150.124,55.778 1150.51,55.521C1150.896,55.264 1151,54.742 1150.743,54.356L1149.345,55.288ZM1149.052,34.334L1148.497,33.703C1148.309,33.869 1148.204,34.11 1148.212,34.36L1149.052,34.334ZM1164.96,20.35L1165.8,20.35C1165.8,20.02 1165.607,19.72 1165.306,19.584C1165.005,19.448 1164.653,19.501 1164.405,19.719L1164.96,20.35ZM1164.12,46.853C1164.12,47.317 1164.496,47.693 1164.96,47.693C1165.424,47.693 1165.8,47.317 1165.8,46.853L1164.12,46.853ZM1150.743,54.356C1150.802,54.444 1150.824,54.517 1150.825,54.521C1150.831,54.539 1150.832,54.545 1150.829,54.533C1150.824,54.51 1150.815,54.463 1150.804,54.385C1150.783,54.23 1150.759,54.005 1150.733,53.711C1150.682,53.126 1150.628,52.312 1150.573,51.341C1150.463,49.402 1150.351,46.864 1150.25,44.338C1150.149,41.814 1150.059,39.306 1149.995,37.429C1149.963,36.491 1149.937,35.71 1149.919,35.164C1149.91,34.891 1149.903,34.677 1149.898,34.531C1149.896,34.458 1149.894,34.402 1149.893,34.365C1149.893,34.346 1149.892,34.332 1149.892,34.322C1149.892,34.317 1149.892,34.314 1149.891,34.311C1149.891,34.31 1149.891,34.309 1149.891,34.309C1149.891,34.308 1149.891,34.308 1149.891,34.308C1149.891,34.308 1149.891,34.308 1149.052,34.334C1148.212,34.36 1148.212,34.36 1148.212,34.361C1148.212,34.361 1148.212,34.361 1148.212,34.361C1148.212,34.362 1148.212,34.363 1148.212,34.364C1148.212,34.366 1148.212,34.37 1148.213,34.375C1148.213,34.385 1148.213,34.399 1148.214,34.418C1148.215,34.456 1148.217,34.512 1148.219,34.585C1148.224,34.731 1148.231,34.946 1148.24,35.219C1148.258,35.766 1148.284,36.547 1148.316,37.487C1148.38,39.365 1148.47,41.877 1148.571,44.405C1148.672,46.933 1148.785,49.483 1148.896,51.436C1148.951,52.412 1149.006,53.246 1149.059,53.857C1149.086,54.161 1149.113,54.42 1149.141,54.618C1149.154,54.716 1149.17,54.812 1149.189,54.897C1149.198,54.939 1149.211,54.99 1149.228,55.043C1149.241,55.083 1149.275,55.183 1149.345,55.288L1150.743,54.356ZM1149.606,34.965L1165.514,20.98L1164.405,19.719L1148.497,33.703L1149.606,34.965ZM1164.12,20.35L1164.12,46.853L1165.8,46.853L1165.8,20.35L1164.12,20.35Z" fill="#3F468E"/>
<path d="M985.697,218.894C987.468,220.024 987.422,223.261 985.59,226.131C983.758,229.001 980.827,230.375 979.056,229.184C977.285,227.993 977.331,224.802 979.163,221.948C980.995,219.093 984.002,217.749 985.697,218.894Z" fill="#3F468E"/>
<path d="M1000.66,210.3C1002.431,211.446 1002.37,214.682 1000.538,217.537C998.706,220.392 995.774,221.781 994.003,220.59C992.232,219.4 992.278,216.209 994.11,213.354C995.942,210.499 998.873,209.155 1000.66,210.3Z" fill="#3F468E"/>
<path d="M985.524,220.829C985.774,221.219 986.293,221.334 986.684,221.084C987.075,220.834 987.189,220.315 986.94,219.924L985.524,220.829ZM985.239,199.888L984.684,199.258C984.496,199.423 984.392,199.665 984.4,199.915L985.239,199.888ZM1001.147,185.889L1001.987,185.889C1001.987,185.559 1001.794,185.259 1001.493,185.123C1001.192,184.987 1000.84,185.04 1000.592,185.258L1001.147,185.889ZM1000.307,212.392C1000.307,212.856 1000.683,213.232 1001.147,213.232C1001.611,213.232 1001.987,212.856 1001.987,212.392L1000.307,212.392ZM986.94,219.924C986.995,220.01 987.015,220.082 987.016,220.085C987.021,220.101 987.022,220.106 987.019,220.094C987.014,220.069 987.006,220.021 986.995,219.942C986.974,219.787 986.95,219.561 986.925,219.267C986.875,218.681 986.822,217.867 986.767,216.896C986.658,214.956 986.545,212.418 986.443,209.892C986.341,207.368 986.25,204.86 986.184,202.983C986.152,202.045 986.125,201.264 986.107,200.718C986.098,200.445 986.091,200.231 986.086,200.085C986.084,200.012 986.082,199.956 986.081,199.918C986.08,199.899 986.08,199.885 986.079,199.876C986.079,199.871 986.079,199.867 986.079,199.865C986.079,199.864 986.079,199.863 986.079,199.862C986.079,199.862 986.079,199.862 986.079,199.862C986.079,199.861 986.079,199.861 985.239,199.888C984.4,199.915 984.4,199.915 984.4,199.916C984.4,199.916 984.4,199.916 984.4,199.916C984.4,199.917 984.4,199.918 984.4,199.919C984.4,199.921 984.4,199.925 984.4,199.93C984.4,199.939 984.401,199.954 984.402,199.973C984.403,200.011 984.405,200.067 984.407,200.14C984.412,200.286 984.419,200.501 984.428,200.774C984.446,201.321 984.473,202.102 984.505,203.042C984.571,204.92 984.662,207.431 984.764,209.96C984.867,212.488 984.98,215.037 985.09,216.99C985.145,217.966 985.199,218.8 985.251,219.41C985.277,219.713 985.304,219.972 985.33,220.169C985.344,220.266 985.359,220.361 985.376,220.445C985.385,220.486 985.397,220.536 985.414,220.588C985.426,220.627 985.458,220.725 985.524,220.829L986.94,219.924ZM985.794,200.519L1001.702,186.519L1000.592,185.258L984.684,199.258L985.794,200.519ZM1000.307,185.889L1000.307,212.392L1001.987,212.392L1001.987,185.889L1000.307,185.889Z" fill="#3F468E"/>
<path d="M1178.837,189.142C1178.84,187.422 1178.333,185.741 1177.38,184.31C1176.426,182.879 1175.07,181.763 1173.482,181.104C1171.894,180.444 1170.146,180.271 1168.46,180.606C1166.773,180.94 1165.224,181.768 1164.008,182.984C1162.792,184.2 1161.965,185.749 1161.63,187.435C1161.295,189.122 1161.469,190.87 1162.128,192.458C1162.787,194.046 1163.903,195.402 1165.334,196.355C1166.765,197.309 1168.447,197.816 1170.166,197.813C1171.305,197.813 1172.432,197.589 1173.484,197.153C1174.536,196.717 1175.492,196.078 1176.298,195.273C1177.103,194.468 1177.742,193.512 1178.177,192.46C1178.613,191.408 1178.837,190.28 1178.837,189.142L1178.837,189.142Z" fill="#3F468E"/>
<path d="M1015.728,53.786C1020.517,53.786 1024.4,49.904 1024.4,45.115C1024.4,40.326 1020.517,36.443 1015.728,36.443C1010.939,36.443 1007.057,40.326 1007.057,45.115C1007.057,49.904 1010.939,53.786 1015.728,53.786Z" fill="#3F468E"/>
<path d="M979.286,336.632C984.075,336.632 987.957,332.75 987.957,327.961C987.957,323.171 984.075,319.289 979.286,319.289C974.497,319.289 970.614,323.171 970.614,327.961C970.614,332.75 974.497,336.632 979.286,336.632Z" fill="#3F468E"/>
<path d="M1227.417,411.242C1227.417,409.527 1226.909,407.85 1225.956,406.424C1225.003,404.998 1223.649,403.887 1222.064,403.23C1220.48,402.574 1218.736,402.402 1217.054,402.737C1215.372,403.072 1213.827,403.897 1212.614,405.11C1211.401,406.323 1210.575,407.868 1210.241,409.55C1209.906,411.232 1210.078,412.976 1210.734,414.56C1211.391,416.145 1212.502,417.499 1213.928,418.452C1215.354,419.405 1217.031,419.913 1218.746,419.913C1221.046,419.913 1223.251,419 1224.877,417.374C1226.504,415.747 1227.417,413.542 1227.417,411.242L1227.417,411.242Z" fill="#3F468E"/>
<path d="M1267.324,58.991C1272.113,58.991 1275.995,55.109 1275.995,50.32C1275.995,45.531 1272.113,41.648 1267.324,41.648C1262.535,41.648 1258.652,45.531 1258.652,50.32C1258.652,55.109 1262.535,58.991 1267.324,58.991Z" fill="#3F468E"/>
<path d="M1069.406,111.569C1068.37,109.79 1066.83,108.358 1064.98,107.454C1063.131,106.55 1061.055,106.215 1059.015,106.49C1056.974,106.766 1055.062,107.64 1053.518,109.002C1051.975,110.364 1050.87,112.154 1050.343,114.144C1049.816,116.134 1049.891,118.236 1050.558,120.183C1051.225,122.131 1052.455,123.837 1054.092,125.086C1055.728,126.335 1057.698,127.07 1059.753,127.2C1061.808,127.329 1063.854,126.847 1065.635,125.813C1068.022,124.423 1069.76,122.142 1070.467,119.471C1071.174,116.801 1070.792,113.959 1069.406,111.569L1069.406,111.569Z" fill="#1E2046"/>
<path d="M1060.543,104.502L1060.085,104.502C1059.175,104.502 1058.436,105.241 1058.436,106.151L1058.436,127.143C1058.436,128.054 1059.175,128.792 1060.085,128.792L1060.543,128.792C1061.454,128.792 1062.192,128.054 1062.192,127.143L1062.192,106.151C1062.192,105.241 1061.454,104.502 1060.543,104.502Z" transform="rotate(-60.32 1060.314 116.647)" fill="#272B4F"/>
<path d="M1049.192,119.656L1044.879,119.656L1044.879,129.057L1049.192,129.057L1049.192,119.656Z" transform="rotate(-60.347 1047.036 124.357)" fill="#1E2046"/>
<path d="M1052.307,127.097L1028.735,140.074C1028.079,140.436 1027.31,140.535 1026.584,140.351C1025.858,140.167 1025.23,139.713 1024.826,139.081C1024.402,138.421 1024.256,137.62 1024.422,136.852C1024.589,136.085 1025.052,135.415 1025.712,134.99L1048.414,120.41L1052.307,127.097Z" fill="#1E2046"/>
<line x1="1041.019" y1="128.027" x2="1041.019" y2="576.092" stroke="#1E2046" stroke-width="2.28" stroke-miterlimit="10"/>
<path d="M993.261,601.6L1044.924,549.159L1041.675,545.958L990.013,598.4L993.261,601.6Z" fill="#1E2046"/>
<path d="M1097.365,598.4L1045.702,545.958L1042.454,549.159L1094.117,601.6L1097.365,598.4Z" fill="#1E2046"/>
<path d="M1048.259,108.405C1048.492,108.617 1048.853,108.6 1049.065,108.367C1049.276,108.134 1049.259,107.774 1049.026,107.562L1048.259,108.405ZM1033.515,93.455C1033.282,93.243 1032.922,93.261 1032.71,93.493C1032.498,93.726 1032.515,94.087 1032.748,94.299L1033.515,93.455ZM1049.026,107.562L1033.515,93.455L1032.748,94.299L1048.259,108.405L1049.026,107.562Z" fill="#45A2B9"/>
<path d="M1047.817,112.201C1048.131,112.227 1048.406,111.994 1048.432,111.68C1048.458,111.366 1048.225,111.091 1047.911,111.065L1047.817,112.201ZM1027.011,109.34C1026.697,109.314 1026.422,109.548 1026.396,109.861C1026.37,110.175 1026.603,110.45 1026.917,110.476L1027.011,109.34ZM1047.911,111.065L1027.011,109.34L1026.917,110.476L1047.817,112.201L1047.911,111.065Z" fill="#45A2B9"/>
</svg>
