<svg width="92" height="90" viewBox="0 0 92 90" fill="none" xmlns="http://www.w3.org/2000/svg" xmlns:xlink="http://www.w3.org/1999/xlink">
<path d="M46,-1C21.16,-1 1,19.16 1,44C1,68.84 21.16,89 46,89C70.84,89 91,68.84 91,44C91,19.16 70.84,-1 46,-1ZM64,48.5L50.5,48.5L50.5,62C50.5,64.475 48.475,66.5 46,66.5C43.525,66.5 41.5,64.475 41.5,62L41.5,48.5L28,48.5C25.525,48.5 23.5,46.475 23.5,44C23.5,41.525 25.525,39.5 28,39.5L41.5,39.5L41.5,26C41.5,23.525 43.525,21.5 46,21.5C48.475,21.5 50.5,23.525 50.5,26L50.5,39.5L64,39.5C66.475,39.5 68.5,41.525 68.5,44C68.5,46.475 66.475,48.5 64,48.5Z" fill="#0096C8"/>
</svg>
