<svg width="74" height="64" viewBox="0 0 74 64" fill="none" xmlns="http://www.w3.org/2000/svg" xmlns:xlink="http://www.w3.org/1999/xlink">
<path d="M53.366,23.999L38.766,2.133C38.133,1.199 37.066,0.733 36,0.733C34.933,0.733 33.866,1.199 33.233,2.166L18.633,23.999L2.666,23.999C0.833,23.999 -0.667,25.499 -0.667,27.333C-0.667,27.633 -0.634,27.933 -0.534,28.233L7.933,59.133C8.7,61.933 11.266,63.999 14.333,63.999L57.666,63.999C60.733,63.999 63.3,61.933 64.1,59.133L72.566,28.233L72.666,27.333C72.666,25.499 71.166,23.999 69.333,23.999L53.366,23.999ZM26,23.999L36,9.333L46,23.999L26,23.999ZM36,50.666C32.333,50.666 29.333,47.666 29.333,43.999C29.333,40.333 32.333,37.333 36,37.333C39.666,37.333 42.666,40.333 42.666,43.999C42.666,47.666 39.666,50.666 36,50.666Z" fill="#C0504D"/>
</svg>
