<svg width="80" height="80" viewBox="0 0 80 80" fill="none" xmlns="http://www.w3.org/2000/svg" xmlns:xlink="http://www.w3.org/1999/xlink">
<rect  x="16" y="26" width="48" height="38" fill="#0096C8"/>
<path d="M53.333,35.1C52.367,34.133 50.767,34.133 49.8,35.1L35.3,49.6L30,44.3C29.033,43.333 27.433,43.333 26.467,44.3C25.5,45.266 25.5,46.866 26.467,47.833L32.933,54.3C34.233,55.6 36.333,55.6 37.633,54.3L53.3,38.633C54.3,37.666 54.3,36.066 53.333,35.1ZM63.333,10L60,10L60,6.666C60,4.833 58.5,3.333 56.667,3.333C54.833,3.333 53.333,4.833 53.333,6.666L53.333,10L26.667,10L26.667,6.666C26.667,4.833 25.167,3.333 23.333,3.333C21.5,3.333 20,4.833 20,6.666L20,10L16.667,10C12.967,10 10.033,13 10.033,16.666L10,63.333C10,67 12.967,70 16.667,70L63.333,70C67,70 70,67 70,63.333L70,16.666C70,13 67,10 63.333,10ZM60,63.333L20,63.333C18.167,63.333 16.667,61.833 16.667,60L16.667,26.666L63.333,26.666L63.333,60C63.333,61.833 61.833,63.333 60,63.333Z" fill="#0096C8"/>
<path d="M53.592,34.725C52.625,33.758 51.025,33.758 50.058,34.725L35.558,49.225L30.258,43.925C29.292,42.958 27.692,42.958 26.725,43.925C25.758,44.892 25.758,46.492 26.725,47.458L33.192,53.925C34.492,55.225 36.592,55.225 37.892,53.925L53.558,38.258C54.558,37.292 54.558,35.692 53.592,34.725Z" fill="#FFFFFF"/>
</svg>
