<svg width="32" height="32" viewBox="0 0 32 32" fill="none" xmlns="http://www.w3.org/2000/svg" xmlns:xlink="http://www.w3.org/1999/xlink">
<path d="M32,16C32,7.163 24.837,0 16,0C7.163,0 0,7.163 0,16C0,23.986 5.851,30.605 13.5,31.806L13.5,20.625L9.438,20.625L9.438,16L13.5,16L13.5,12.475C13.5,8.465 15.889,6.25 19.543,6.25C21.294,6.25 23.125,6.563 23.125,6.563L23.125,10.5L21.107,10.5C19.12,10.5 18.5,11.733 18.5,12.999L18.5,16L22.938,16L22.228,20.625L18.5,20.625L18.5,31.806C26.149,30.605 32,23.986 32,16Z" fill="#1877F2"/>
<path d="M22.228,20.625L22.938,16L18.5,16L18.5,12.999C18.5,11.733 19.12,10.5 21.107,10.5L23.125,10.5L23.125,6.563C23.125,6.563 21.294,6.25 19.543,6.25C15.889,6.25 13.5,8.465 13.5,12.475L13.5,16L9.438,16L9.438,20.625L13.5,20.625L13.5,31.806C14.315,31.933 15.149,32 16,32C16.851,32 17.685,31.933 18.5,31.806L18.5,20.625L22.228,20.625Z" fill="#FFFFFF"/>
</svg>
