<svg width="18" height="20" viewBox="0 0 18 20" fill="none" xmlns="http://www.w3.org/2000/svg" xmlns:xlink="http://www.w3.org/1999/xlink">
<path d="M9.101,8.554C9.097,9.567 9.101,10.579 9.105,11.591C10.803,11.647 12.504,11.621 14.201,11.647C13.452,15.411 8.331,16.632 5.622,14.173C2.836,12.017 2.968,7.287 5.864,5.284C7.889,3.667 10.769,4.067 12.793,5.467C13.588,4.731 14.333,3.944 15.052,3.127C13.367,1.783 11.3,0.826 9.101,0.928C4.512,0.775 0.293,4.795 0.216,9.384C-0.077,13.135 2.389,16.814 5.873,18.141C9.344,19.477 13.793,18.567 16.009,15.449C17.472,13.48 17.787,10.945 17.616,8.563C14.775,8.542 11.938,8.546 9.101,8.554Z" fill="#6D747A"/>
</svg>
