<svg width="32" height="32" viewBox="0 0 32 32" fill="none" xmlns="http://www.w3.org/2000/svg" xmlns:xlink="http://www.w3.org/1999/xlink">
<path d="M6.896,16C6.896,14.961 7.069,13.964 7.377,13.03L1.984,8.912C0.933,11.046 0.341,13.45 0.341,16C0.341,18.548 0.933,20.951 1.982,23.083L7.372,18.957C7.066,18.027 6.896,17.034 6.896,16Z" clip-rule="evenodd" fill-rule="evenodd" fill="#FBBC05"/>
<path d="M16.364,6.546C18.622,6.546 20.661,7.346 22.263,8.654L26.924,4C24.084,1.527 20.443,0 16.364,0C10.032,0 4.59,3.621 1.984,8.912L7.377,13.03C8.619,9.258 12.161,6.546 16.364,6.546Z" clip-rule="evenodd" fill-rule="evenodd" fill="#EA4335"/>
<path d="M16.364,25.455C12.161,25.455 8.619,22.742 7.377,18.97L1.984,23.087C4.59,28.379 10.032,32 16.364,32C20.272,32 24.003,30.612 26.804,28.012L21.685,24.055C20.241,24.965 18.422,25.455 16.364,25.455Z" clip-rule="evenodd" fill-rule="evenodd" fill="#34A853"/>
<path d="M31.659,16C31.659,15.055 31.513,14.037 31.294,13.091L16.364,13.091L16.364,19.273L24.958,19.273C24.528,21.381 23.359,23.001 21.685,24.056L26.804,28.013C29.745,25.283 31.659,21.216 31.659,16Z" clip-rule="evenodd" fill-rule="evenodd" fill="#4285F4"/>
</svg>
