<svg width="48" height="48" viewBox="0 0 48 48" fill="none" xmlns="http://www.w3.org/2000/svg" xmlns:xlink="http://www.w3.org/1999/xlink">
<path d="M24,5L40.454,14.5L40.454,33.5L24,43L7.546,33.5L7.546,14.5L24,5Z" fill="#8064A2"/>
<path d="M23.241,14.274C23.484,13.545 24.516,13.545 24.759,14.274L26.563,19.681C26.671,20.006 26.974,20.225 27.315,20.228L33.015,20.273C33.784,20.279 34.102,21.26 33.484,21.716L28.899,25.103C28.624,25.306 28.509,25.662 28.612,25.988L30.33,31.422C30.562,32.155 29.728,32.761 29.103,32.314L24.465,29C24.187,28.802 23.813,28.802 23.535,29L18.897,32.314C18.272,32.761 17.438,32.155 17.67,31.422L19.388,25.988C19.491,25.662 19.376,25.306 19.101,25.103L14.516,21.716C13.898,21.26 14.216,20.279 14.985,20.273L20.685,20.228C21.026,20.225 21.329,20.006 21.437,19.681L23.241,14.274Z" fill="#FFFFFF"/>
</svg>
