<svg width="28" height="28" viewBox="0 0 28 28" fill="none" xmlns="http://www.w3.org/2000/svg" xmlns:xlink="http://www.w3.org/1999/xlink">
<path d="M14,0.344C10.292,0.344 9.827,0.359 8.371,0.426C6.917,0.492 5.925,0.723 5.056,1.061C4.159,1.409 3.397,1.876 2.638,2.635C1.879,3.394 1.412,4.156 1.063,5.054C0.726,5.922 0.495,6.915 0.429,8.368C0.362,9.824 0.347,10.289 0.347,13.997C0.347,17.705 0.362,18.17 0.429,19.626C0.495,21.08 0.726,22.072 1.063,22.941C1.412,23.838 1.879,24.6 2.638,25.359C3.397,26.118 4.159,26.585 5.056,26.934C5.925,27.271 6.917,27.502 8.371,27.568C9.827,27.635 10.292,27.65 14,27.65C17.708,27.65 18.173,27.635 19.629,27.568C21.082,27.502 22.075,27.271 22.943,26.934C23.841,26.585 24.603,26.118 25.362,25.359C26.121,24.6 26.588,23.838 26.936,22.941C27.274,22.072 27.505,21.08 27.571,19.626C27.637,18.17 27.653,17.705 27.653,13.997C27.653,10.289 27.637,9.824 27.571,8.368C27.505,6.915 27.274,5.922 26.936,5.054C26.588,4.156 26.121,3.394 25.362,2.635C24.603,1.876 23.841,1.409 22.943,1.061C22.075,0.723 21.082,0.492 19.629,0.426C18.173,0.359 17.708,0.344 14,0.344ZM14,2.804C17.646,2.804 18.077,2.818 19.517,2.883C20.848,2.944 21.571,3.167 22.052,3.354C22.69,3.601 23.144,3.897 23.622,4.375C24.1,4.853 24.396,5.307 24.643,5.945C24.83,6.426 25.053,7.149 25.114,8.48C25.179,9.92 25.193,10.351 25.193,13.997C25.193,17.643 25.179,18.074 25.114,19.514C25.053,20.845 24.83,21.568 24.643,22.049C24.396,22.687 24.1,23.142 23.622,23.619C23.144,24.097 22.69,24.393 22.052,24.641C21.571,24.828 20.848,25.05 19.517,25.111C18.078,25.176 17.646,25.19 14,25.19C10.354,25.19 9.922,25.176 8.483,25.111C7.152,25.05 6.429,24.828 5.948,24.641C5.31,24.393 4.856,24.097 4.378,23.619C3.9,23.142 3.604,22.687 3.356,22.049C3.169,21.568 2.947,20.845 2.886,19.514C2.821,18.074 2.807,17.643 2.807,13.997C2.807,10.351 2.821,9.92 2.886,8.48C2.947,7.149 3.169,6.426 3.356,5.945C3.604,5.307 3.9,4.853 4.378,4.375C4.856,3.897 5.31,3.601 5.948,3.354C6.429,3.167 7.152,2.944 8.483,2.883C9.923,2.818 10.354,2.804 14,2.804Z" fill="#6D747A"/>
<path d="M14,18.561C11.487,18.561 9.449,16.524 9.449,14.01C9.449,11.497 11.487,9.459 14,9.459C16.514,9.459 18.551,11.497 18.551,14.01C18.551,16.524 16.514,18.561 14,18.561ZM14,6.999C10.128,6.999 6.989,10.138 6.989,14.01C6.989,17.882 10.128,21.021 14,21.021C17.873,21.021 21.012,17.882 21.012,14.01C21.012,10.138 17.873,6.999 14,6.999Z" fill="#6D747A"/>
<path d="M22.926,6.701C22.926,7.606 22.193,8.34 21.288,8.34C20.383,8.34 19.649,7.606 19.649,6.701C19.649,5.796 20.383,5.063 21.288,5.063C22.193,5.063 22.926,5.796 22.926,6.701Z" fill="#6D747A"/>
</svg>
