<svg width="32" height="32" viewBox="0 0 32 32" fill="none" xmlns="http://www.w3.org/2000/svg" xmlns:xlink="http://www.w3.org/1999/xlink">
<path d="M23.639,10.667L22.326,10.667L22.326,8C22.326,4.32 19.384,1.333 15.759,1.333C12.135,1.333 9.193,4.32 9.193,8L9.193,10.667L7.879,10.667C6.435,10.667 5.253,11.867 5.253,13.333L5.253,26.667C5.253,28.133 6.435,29.333 7.879,29.333L23.639,29.333C25.084,29.333 26.266,28.133 26.266,26.667L26.266,13.333C26.266,11.867 25.084,10.667 23.639,10.667ZM15.759,22.667C14.315,22.667 13.133,21.467 13.133,20C13.133,18.533 14.315,17.333 15.759,17.333C17.204,17.333 18.386,18.533 18.386,20C18.386,21.467 17.204,22.667 15.759,22.667ZM11.819,10.667L11.819,8C11.819,5.787 13.579,4 15.759,4C17.939,4 19.699,5.787 19.699,8L19.699,10.667L11.819,10.667Z" fill="#939CA3"/>
</svg>
