<svg width="38" height="50" viewBox="0 0 38 50" fill="none" xmlns="http://www.w3.org/2000/svg" xmlns:xlink="http://www.w3.org/1999/xlink">
<path d="M18,31.333C22.426,31.333 26,27.76 26,23.333L26,7.333C26,2.907 22.426,-0.667 18,-0.667C13.573,-0.667 10,2.907 10,7.333L10,23.333C10,27.76 13.573,31.333 18,31.333ZM33.76,23.333C32.453,23.333 31.36,24.293 31.146,25.6C30.053,31.867 24.586,36.667 18,36.667C11.413,36.667 5.946,31.867 4.853,25.6C4.64,24.293 3.546,23.333 2.24,23.333C0.613,23.333 -0.667,24.773 -0.427,26.373C0.88,34.373 7.28,40.64 15.333,41.787L15.333,47.333C15.333,48.8 16.533,50 18,50C19.466,50 20.666,48.8 20.666,47.333L20.666,41.787C28.72,40.64 35.12,34.373 36.426,26.373C36.693,24.773 35.386,23.333 33.76,23.333Z" fill="#FFFFFF"/>
</svg>
