<svg width="80" height="40" viewBox="0 0 80 40" fill="none" xmlns="http://www.w3.org/2000/svg" xmlns:xlink="http://www.w3.org/1999/xlink">
<path d="M40,22.5C45.433,22.5 50.233,23.8 54.133,25.5C57.733,27.1 60,30.7 60,34.6L60,40L20,40L20,34.633C20,30.7 22.267,27.1 25.867,25.533C29.767,23.8 34.567,22.5 40,22.5ZM13.333,23.333C17,23.333 20,20.333 20,16.667C20,13 17,10 13.333,10C9.667,10 6.667,13 6.667,16.667C6.667,20.333 9.667,23.333 13.333,23.333ZM17.1,27C15.867,26.8 14.633,26.667 13.333,26.667C10.033,26.667 6.9,27.367 4.067,28.6C1.6,29.667 0,32.067 0,34.767L0,40L15,40L15,34.633C15,31.867 15.767,29.267 17.1,27ZM66.667,23.333C70.333,23.333 73.333,20.333 73.333,16.667C73.333,13 70.333,10 66.667,10C63,10 60,13 60,16.667C60,20.333 63,23.333 66.667,23.333ZM80,34.767C80,32.067 78.4,29.667 75.933,28.6C73.1,27.367 69.967,26.667 66.667,26.667C65.367,26.667 64.133,26.8 62.9,27C64.233,29.267 65,31.867 65,34.633L65,40L80,40L80,34.767ZM40,0C45.533,0 50,4.467 50,10C50,15.533 45.533,20 40,20C34.467,20 30,15.533 30,10C30,4.467 34.467,0 40,0Z" fill="#8064A2"/>
</svg>
