<svg width="32" height="34" viewBox="0 0 32 34" fill="none" xmlns="http://www.w3.org/2000/svg" xmlns:xlink="http://www.w3.org/1999/xlink">
<path d="M16,0.031C7.163,0.031 0,7.195 0,16.031C0,22.81 4.217,28.604 10.169,30.936C10.029,29.67 9.903,27.723 10.225,26.341C10.515,25.092 12.101,18.388 12.101,18.388C12.101,18.388 11.622,17.429 11.622,16.012C11.622,13.787 12.912,12.126 14.517,12.126C15.882,12.126 16.542,13.151 16.542,14.38C16.542,15.753 15.668,17.806 15.217,19.708C14.84,21.3 16.015,22.599 17.586,22.599C20.43,22.599 22.616,19.6 22.616,15.272C22.616,11.441 19.863,8.763 15.933,8.763C11.38,8.763 8.708,12.177 8.708,15.706C8.708,17.081 9.237,18.556 9.898,19.357C10.029,19.516 10.048,19.655 10.009,19.816C9.888,20.322 9.618,21.408 9.565,21.631C9.495,21.924 9.333,21.986 9.03,21.845C7.032,20.915 5.782,17.993 5.782,15.646C5.782,10.599 9.449,5.964 16.354,5.964C21.904,5.964 26.218,9.919 26.218,15.205C26.218,20.719 22.741,25.157 17.915,25.157C16.294,25.157 14.77,24.315 14.248,23.32C14.248,23.32 13.446,26.375 13.251,27.123C12.89,28.513 11.915,30.255 11.263,31.318C12.76,31.781 14.351,32.031 16,32.031C24.837,32.031 32,24.868 32,16.031C32,7.195 24.837,0.031 16,0.031L16,0.031Z" fill="#6D747A"/>
</svg>
