<svg width="80" height="80" viewBox="0 0 80 80" fill="none" xmlns="http://www.w3.org/2000/svg" xmlns:xlink="http://www.w3.org/1999/xlink">
<path d="M40,0.001C17.945,0.001 0,17.946 0,40.001C0,46.552 1.725,52.675 4.523,58.134L8,64.005L14,70.005L21.887,75.485C27.341,78.278 33.456,80.001 40,80.001C62.055,80.001 80,62.056 80,40.001C80,17.946 62.055,0.001 40,0.001ZM28,26.005C32.418,26.005 36,29.587 36,34.005C36,34.177 35.959,34.339 35.949,34.509C35.977,34.671 36,34.837 36,35.009C36,35.559 35.895,48.585 26.801,55.407C26.261,55.811 25.63,56.009 25.004,56.009C24.092,56.009 23.192,55.592 22.602,54.806C21.608,53.48 21.875,51.6 23.199,50.606C26.215,48.344 27.886,44.963 28.82,41.923C28.546,41.951 28.282,42.005 28,42.005C23.582,42.005 20,38.423 20,34.005C20,29.587 23.582,26.005 28,26.005ZM52,26.005C56.418,26.005 60,29.587 60,34.005C60,34.177 59.959,34.339 59.949,34.509C59.977,34.671 60,34.837 60,35.009C60,35.559 59.895,48.585 50.801,55.407C50.261,55.811 49.63,56.009 49.004,56.009C48.092,56.009 47.192,55.592 46.602,54.806C45.608,53.48 45.875,51.6 47.199,50.606C50.215,48.344 51.886,44.963 52.82,41.923C52.546,41.951 52.282,42.005 52,42.005C47.582,42.005 44,38.423 44,34.005C44,29.587 47.582,26.005 52,26.005Z" transform="rotate(-360 40 40.001)" fill="#8064A2"/>
</svg>
