<svg width="26" height="26" viewBox="0 0 26 26" fill="none" xmlns="http://www.w3.org/2000/svg" xmlns:xlink="http://www.w3.org/1999/xlink">
<path d="M9.667,0C4.344,0 0,4.344 0,9.667C0,14.99 4.344,19.333 9.667,19.333C11.849,19.333 13.859,18.595 15.48,17.367L21.724,23.609C21.847,23.737 21.994,23.84 22.157,23.91C22.32,23.98 22.495,24.017 22.672,24.019C22.85,24.021 23.026,23.987 23.19,23.92C23.354,23.853 23.503,23.754 23.629,23.629C23.754,23.503 23.853,23.354 23.92,23.19C23.987,23.026 24.021,22.85 24.019,22.672C24.017,22.495 23.98,22.32 23.91,22.157C23.84,21.994 23.737,21.847 23.609,21.724L17.367,15.48C18.595,13.859 19.333,11.849 19.333,9.667C19.333,4.344 14.99,0 9.667,0ZM9.667,2.667C13.548,2.667 16.667,5.785 16.667,9.667C16.667,11.53 15.943,13.214 14.766,14.465C14.651,14.548 14.55,14.648 14.467,14.763C13.216,15.942 11.532,16.667 9.667,16.667C5.785,16.667 2.667,13.548 2.667,9.667C2.667,5.785 5.785,2.667 9.667,2.667Z" fill="#FFFFFF"/>
</svg>
