<svg width="48" height="48" viewBox="0 0 48 48" fill="none" xmlns="http://www.w3.org/2000/svg" xmlns:xlink="http://www.w3.org/1999/xlink">
<path d="M43.84,14.5L43.84,14.76L40.92,25.56C40.574,26.842 39.814,27.973 38.757,28.776C37.7,29.58 36.407,30.01 35.08,30L19.78,30C18.278,30.006 16.828,29.448 15.717,28.438C14.606,27.427 13.915,26.036 13.78,24.54L12.48,9.82C12.435,9.321 12.204,8.858 11.834,8.521C11.464,8.184 10.98,7.998 10.48,8L6.14,8C5.609,8 5.101,7.789 4.725,7.414C4.35,7.039 4.14,6.53 4.14,6C4.14,5.469 4.35,4.961 4.725,4.586C5.101,4.211 5.609,4 6.14,4L10.48,4C11.982,3.994 13.431,4.551 14.542,5.562C15.653,6.573 16.344,7.964 16.48,9.46L16.48,10L39.86,10C40.43,9.995 40.994,10.113 41.515,10.344C42.036,10.576 42.502,10.916 42.881,11.342C43.259,11.768 43.543,12.271 43.712,12.815C43.88,13.36 43.931,13.934 43.86,14.5L43.84,14.5Z" fill="#8064A2"/>
<path d="M18.14,44C20.901,44 23.14,41.762 23.14,39C23.14,36.239 20.901,34 18.14,34C15.378,34 13.14,36.239 13.14,39C13.14,41.762 15.378,44 18.14,44Z" fill="#8064A2"/>
<path d="M34.14,44C36.901,44 39.14,41.762 39.14,39C39.14,36.239 36.901,34 34.14,34C31.378,34 29.14,36.239 29.14,39C29.14,41.762 31.378,44 34.14,44Z" fill="#8064A2"/>
</svg>
