<svg width="32" height="26" viewBox="0 0 32 26" fill="none" xmlns="http://www.w3.org/2000/svg" xmlns:xlink="http://www.w3.org/1999/xlink">
<path d="M10.063,25.002C22.139,25.002 28.744,14.997 28.744,6.321C28.744,6.037 28.744,5.754 28.725,5.473C30.009,4.543 31.119,3.393 32,2.074C30.802,2.605 29.531,2.953 28.229,3.107C29.599,2.287 30.626,0.996 31.115,-0.524C29.827,0.241 28.417,0.78 26.947,1.069C25.705,-0.251 23.971,-1 22.16,-1C18.554,-1 15.588,1.967 15.588,5.572C15.588,6.072 15.645,6.57 15.758,7.057C10.482,6.793 5.559,4.297 2.227,0.198C0.494,3.181 1.391,7.046 4.26,8.962C3.215,8.931 2.193,8.649 1.28,8.14L1.28,8.223C1.281,11.337 3.495,14.043 6.547,14.659C5.581,14.923 4.566,14.961 3.583,14.772C4.441,17.44 6.915,19.279 9.717,19.331C7.392,21.158 4.519,22.15 1.563,22.147C1.04,22.146 0.519,22.115 0,22.052C3.002,23.979 6.496,25.001 10.063,24.997Z" fill="#6D747A"/>
</svg>
