<svg width="30" height="22" viewBox="0 0 30 22" fill="none" xmlns="http://www.w3.org/2000/svg" xmlns:xlink="http://www.w3.org/1999/xlink">
<path d="M27.774,3.055C27.443,1.81 26.469,0.829 25.232,0.497C22.99,-0.108 14,-0.108 14,-0.108C14,-0.108 5.01,-0.108 2.767,0.497C1.531,0.83 0.556,1.81 0.226,3.055C-0.375,5.312 -0.375,10.02 -0.375,10.02C-0.375,10.02 -0.375,14.728 0.226,16.985C0.556,18.23 1.531,19.169 2.767,19.502C5.01,20.107 14,20.107 14,20.107C14,20.107 22.99,20.107 25.232,19.502C26.469,19.169 27.443,18.23 27.774,16.985C28.375,14.728 28.375,10.02 28.375,10.02C28.375,10.02 28.375,5.312 27.774,3.055Z" fill="#6D747A"/>
<path d="M11.06,14.294L11.06,5.744L18.574,10.019L11.06,14.294Z" fill="#EBEDF0"/>
</svg>
